<?xml version="1.0" standalone="no"?>
<!DOCTYPE svg PUBLIC "-//W3C//DTD SVG 1.1//EN" "http://www.w3.org/Graphics/SVG/1.1/DTD/svg11.dtd" >
<svg xmlns="http://www.w3.org/2000/svg">
<metadata>
This is a custom SVG webfont generated by Font Squirrel.
Copyright   : c 20072008 Typodermic This font is freeware Read attached text file for details Check out the rest of the Gnuolane family and the OpenType version at Typodermic httpwwwtypodermiccom
Designer    : Ray Larabie
Foundry     : Ray Larabie
Foundry URL : httpwwwtypodermiccom
</metadata>
<defs>
<font id="webfontsb5VB5eE" horiz-adv-x="962" >
<font-face units-per-em="2048" ascent="1638" descent="-410" />
<missing-glyph horiz-adv-x="434" />
<glyph horiz-adv-x="0" />
<glyph horiz-adv-x="0" />
<glyph unicode="&#xd;" horiz-adv-x="966" />
<glyph unicode=" "  horiz-adv-x="434" />
<glyph unicode="&#x09;" horiz-adv-x="434" />
<glyph unicode="&#xa0;" horiz-adv-x="434" />
<glyph unicode="!" horiz-adv-x="403" d="M322 1602l-39 -1125h-164l-39 1125h242zM295 0h-191v266h191v-266z" />
<glyph unicode="&#x22;" horiz-adv-x="524" d="M336 1593h166l-17 -598h-129zM23 1593h165l-20 -598h-125z" />
<glyph unicode="#" horiz-adv-x="1003" d="M952 1477l-108 -373h125v-131h-162l-96 -348h176v-133h-213l-109 -396l-153 39l104 357h-201l-110 -396l-152 39l52 178l51 179h-125v133h159l97 348h-172v131h213l114 414l150 -41l-105 -373h197l115 414zM350 625h197l96 348h-192z" />
<glyph unicode="$" horiz-adv-x="743" d="M305 0v174q-127 14 -192.5 95t-65.5 251l166 25q0 -47 5 -87t19.5 -70t42 -47t72.5 -17q98 0 129 43t31 118q0 47 -11.5 81t-34 59.5t-54 45t-74.5 40.5q-61 29 -108.5 60.5t-79 71.5t-49 91t-17.5 119q0 111 46 184.5t175 87.5v201h119v-197q63 -6 106 -21.5t70 -44 t42 -74.5t26 -112l-152 -28q-10 68 -36.5 98.5t-94.5 30.5q-53 0 -87 -24t-34 -95q0 -70 32 -115t110 -82q61 -31 112 -59.5t88 -67.5t56.5 -94t19.5 -137q0 -143 -61.5 -226t-196.5 -100v-178h-119z" />
<glyph unicode="%" horiz-adv-x="1267" d="M305 1569q88 0 137.5 -30t73 -85t28.5 -133t5 -174q0 -90 -5 -166t-28.5 -133t-73 -89t-137.5 -32q-86 0 -135 32t-73.5 89t-30 133t-5.5 166q0 96 5.5 174t30 133t73.5 85t135 30zM238 0l657 1548h137l-655 -1548h-139zM305 1444q-39 0 -60.5 -16.5t-32.5 -51.5t-13 -92 t-2 -137t2 -136.5t13 -93t32.5 -53t60.5 -16.5t60.5 16.5t32 53t12.5 93t2 136.5t-2 137t-12.5 92t-32 51.5t-60.5 16.5zM963 819q88 0 137 -29.5t72.5 -84t28.5 -132t5 -174.5q0 -90 -5 -166.5t-28.5 -133t-72.5 -88t-137 -31.5q-86 0 -135.5 31.5t-74 88t-29.5 133 t-5 166.5q0 96 5 174t29.5 132.5t74 84t135.5 29.5zM963 696q-39 0 -60.5 -16t-33 -51t-13.5 -92.5t-2 -137.5t2 -136t13.5 -93t33 -53.5t60.5 -16.5t60 16.5t31.5 53.5t12.5 93t2 136t-2 137.5t-12.5 92.5t-31.5 51t-60 16z" />
<glyph unicode="&#x26;" horiz-adv-x="1062" d="M254 1292q0 45 7 91.5t31.5 84t73 61t130.5 23.5q139 0 187 -64.5t48 -193.5q0 -80 -17.5 -143.5t-47 -115.5t-68.5 -94t-80 -79q63 -115 128 -214t132 -191q35 90 48.5 188t19.5 191l166 -31q-16 -123 -42 -252t-73 -246q35 -39 82 -87l82 -85l-125 -149l-72 76 q-41 44 -69 79q-63 -78 -146.5 -125t-199.5 -47q-115 0 -191 33t-122 85t-65.5 114.5t-19.5 124.5q0 104 21.5 189t61.5 153.5t96.5 124t123.5 104.5q-53 100 -76.5 202.5t-23.5 192.5zM440 131q86 0 147.5 41t106.5 109q-80 109 -150.5 226.5t-131.5 237.5 q-78 -66 -124 -154.5t-46 -217.5q0 -49 9 -93t32.5 -77t61.5 -52.5t95 -19.5zM397 1276q0 -59 16.5 -131t45.5 -144q55 53 94 123t39 154q0 59 -19.5 97t-76.5 38q-61 0 -80 -43t-19 -94z" />
<glyph unicode="'" horiz-adv-x="210" d="M23 1593h165l-18 -598h-127z" />
<glyph unicode="(" horiz-adv-x="645" d="M532 1513q-76 -53 -133 -141t-96 -200.5t-59.5 -243.5t-20.5 -273q0 -156 23.5 -291t68.5 -243.5t113 -184t156 -112.5l-74 -111q-125 45 -210 136.5t-138 214t-77 273t-24 318.5q0 152 18.5 296.5t62.5 271.5t117 229t183 168z" />
<glyph unicode=")" horiz-adv-x="645" d="M115 -184q76 55 133 142t96 197.5t58.5 241.5t19.5 275q0 156 -23.5 292t-69.5 243.5t-114 183t-154 112.5l74 113q125 -47 211 -137t139.5 -215t76 -275.5t22.5 -316.5q0 -150 -18.5 -294.5t-62.5 -271t-117 -229t-183 -168.5z" />
<glyph unicode="*" horiz-adv-x="999" d="M596 1526l-31 -332l324 133l49 -156l-346 -81l227 -250l-155 -109l-162 283l-180 -279l-146 109l230 243l-345 89l56 153l319 -133l-35 330h195z" />
<glyph unicode="+" horiz-adv-x="1085" d="M477 696h-416v129h416v418h129v-418h418v-129h-418v-417h-129v417z" />
<glyph unicode="," horiz-adv-x="333" d="M274 51q0 -143 -151 -301l-55 43q106 106 106 219h-94v254h194v-215z" />
<glyph unicode="-" horiz-adv-x="448" d="M23 537l16 129h389l-16 -129h-389z" />
<glyph unicode="." horiz-adv-x="313" d="M254 0h-193v266h193v-266z" />
<glyph unicode="/" horiz-adv-x="512" d="M383 1526h121l-375 -1526h-121z" />
<glyph unicode="0" horiz-adv-x="899" d="M449 1552q143 0 222 -37.5t115.5 -129t44 -243t7.5 -380.5q0 -227 -7.5 -380t-44 -243t-115.5 -128t-222 -38t-222.5 38t-116 129t-43 243t-6.5 379t6.5 379.5t43 244t116 129t222.5 37.5zM449 1393q-68 0 -105 -29t-54.5 -101.5t-21.5 -194.5t-4 -306t3 -306 t21.5 -192.5t55.5 -99.5t105 -29q66 0 102.5 29t54 99.5t21.5 192.5t4 306t-4 306t-21.5 194.5t-54 101.5t-102.5 29z" />
<glyph unicode="1" horiz-adv-x="507" d="M18 1323q113 23 179.5 78t119.5 151h129v-1552h-202v1278q-20 -35 -72.5 -67.5t-128.5 -39.5z" />
<glyph unicode="2" horiz-adv-x="817" d="M397 1393q-49 0 -77.5 -18.5t-45 -61.5t-23.5 -114t-13 -175l-187 27q6 125 15.5 219t45 156.5t105.5 94t197 31.5q96 0 158.5 -23.5t99.5 -75.5t51 -133t14 -198q0 -141 -41 -278t-105.5 -263t-142 -234.5t-151.5 -190.5h471l-10 -156h-697v152q94 88 182.5 199.5 t155 237.5t106.5 262t40 271q0 152 -34 211.5t-114 59.5z" />
<glyph unicode="3" horiz-adv-x="829" d="M403 1552q117 0 182.5 -30.5t99.5 -86t42 -132t8 -170.5q0 -55 -8 -109.5t-24.5 -102t-42 -80t-60.5 -44.5q51 -16 86 -49t55.5 -79t28.5 -104.5t8 -124.5q0 -96 -9 -180t-46 -148.5t-112.5 -101.5t-209.5 -37q-102 0 -168.5 21.5t-106.5 63.5t-58.5 101.5t-24.5 133.5 l166 55q8 -53 18.5 -92t31 -66.5t53 -41t85.5 -13.5q63 0 100.5 19.5t56.5 59.5t25.5 100.5t6.5 140.5q0 68 -7.5 117t-28 79.5t-58 46t-97.5 15.5h-108l16 155h92q45 0 74 12.5t45 40t22.5 74.5t6.5 119q0 74 -4 127t-17.5 87t-41 49.5t-77.5 15.5q-43 0 -70.5 -11.5 t-45 -37t-26.5 -68.5t-15 -105l-172 17q6 102 21.5 172t51 113t97 61t159.5 18z" />
<glyph unicode="4" horiz-adv-x="780" d="M27 444l419 1082h240v-1053h86l-16 -162h-70v-311h-199v311h-460v133zM487 473v733l-286 -733h286z" />
<glyph unicode="5" horiz-adv-x="825" d="M330 1354l-27 -428q70 51 217 51q80 0 130 -28.5t78 -87t38 -144.5t10 -203q0 -129 -9 -229.5t-48 -169t-116 -105.5t-214 -37q-74 0 -129 15.5t-98 46.5t-76 78t-63 110l137 101q35 -90 83 -139.5t132 -49.5q70 0 108.5 22.5t57 67.5t21.5 114t3 161q0 82 -4 141 t-19.5 96t-46 54.5t-81.5 17.5q-111 0 -181 -68l-133 68l45 717h578l-18 -172h-375z" />
<glyph unicode="6" horiz-adv-x="886" d="M449 1393q-66 0 -106 -31t-60.5 -98.5t-27.5 -176t-7 -264.5q47 82 129 123t164 41q102 0 160.5 -37t88 -101.5t37 -154.5t7.5 -194q0 -119 -10.5 -216.5t-49.5 -166t-115.5 -106.5t-209.5 -38q-141 0 -219 60.5t-116 163t-45.5 235.5t-7.5 281q0 248 18.5 409.5 t62.5 257t117 134t179 38.5q94 0 160 -16t108 -53t61 -93.5t24 -136.5l-158 -61q-4 49 -13.5 86t-29 62.5t-54 39t-87.5 13.5zM461 823q-66 0 -119 -50t-78 -140q2 -135 6 -229.5t22.5 -154t53.5 -87t98 -27.5t100.5 25.5t55.5 72t22.5 110t4.5 138.5q0 90 -4.5 154.5 t-20.5 106.5t-50 61.5t-91 19.5z" />
<glyph unicode="7" horiz-adv-x="681" d="M51 1526h606v-125q-74 -94 -127 -251t-90 -347.5t-59.5 -398t-30.5 -404.5h-237q8 197 37.5 395.5t74.5 377.5t106.5 331.5t135.5 261.5h-432z" />
<glyph unicode="8" horiz-adv-x="872" d="M590 821q117 -39 176 -134t59 -288q0 -121 -21.5 -202.5t-68.5 -131t-120.5 -71t-176.5 -21.5q-102 0 -176 21.5t-121 71t-68.5 131.5t-21.5 202q0 96 10.5 167t37 121t72.5 82t118 50q-55 14 -91 41t-55.5 70t-28 106.5t-8.5 153.5q0 86 16.5 153.5t55.5 113.5 t102.5 70.5t157.5 24.5q182 0 257 -93t75 -269q0 -90 -9 -153.5t-30.5 -106.5t-56.5 -69t-84 -40zM428 741q-51 -16 -86 -39.5t-56.5 -61.5t-30.5 -95.5t-9 -138.5q0 -145 38 -214t146 -69q109 0 145.5 68.5t36.5 214.5q0 80 -9 135t-30.5 93t-57.5 62.5t-87 44.5zM446 893 q39 18 67 37.5t46.5 51.5t26.5 83t8 131q0 121 -33 169t-112 48q-80 0 -116 -48t-36 -169q0 -80 8 -130t25.5 -82t46 -52.5t69.5 -38.5z" />
<glyph unicode="9" horiz-adv-x="886" d="M428 129q66 0 105.5 37t63.5 111.5t32 187.5t8 262q-45 -61 -123 -104t-170 -43q-102 0 -159.5 36.5t-87 101t-37 152.5t-7.5 193q0 121 10.5 212t49.5 152.5t115.5 92t209.5 30.5q141 0 219 -54t116 -147.5t45 -220.5t7 -274q0 -248 -20.5 -417t-65.5 -272.5 t-119.5 -148.5t-181.5 -45q-190 0 -278 84t-97 246l156 59q4 -49 17.5 -91t38 -72.5t62.5 -49t91 -18.5zM428 741q63 0 113.5 49.5t79.5 120.5q0 137 -4.5 228.5t-21.5 146.5t-53 77.5t-100 22.5q-63 0 -100 -19t-55.5 -58t-23.5 -98.5t-5 -141.5q0 -84 4 -146.5 t20.5 -102.5t51.5 -59.5t94 -19.5z" />
<glyph unicode=":" horiz-adv-x="313" d="M254 0h-193v266h193v-266zM254 846h-193v266h193v-266z" />
<glyph unicode=";" horiz-adv-x="327" d="M262 846h-192v266h192v-266zM262 51q0 -143 -151 -301l-56 43q106 106 107 219h-94v254h194v-215z" />
<glyph unicode="&#x3c;" horiz-adv-x="804" d="M743 246l-682 440v107l682 452v-155l-557 -349l557 -344v-151z" />
<glyph unicode="=" horiz-adv-x="1132" d="M61 504v129h1010v-129h-1010zM61 930v129h1010v-129h-1010z" />
<glyph unicode="&#x3e;" horiz-adv-x="804" d="M61 397l555 344l-555 349v155l682 -452v-107l-682 -440v151z" />
<glyph unicode="?" horiz-adv-x="751" d="M516 1253q0 57 -6 99.5t-21.5 69t-44 39t-73.5 12.5q-53 0 -84 -20.5t-48.5 -62.5t-24.5 -106.5t-11 -150.5l-180 24q6 125 19 215t51 148.5t106.5 86t183.5 27.5q102 0 166.5 -21.5t101.5 -66.5t51.5 -117.5t14.5 -173.5q0 -86 -23.5 -151.5t-58.5 -118.5t-76 -99 t-75.5 -93.5t-58.5 -99.5t-24 -120q0 -59 19 -110h-162q-27 53 -27 129q0 111 44 190.5t98.5 152.5t98.5 146.5t44 171.5zM434 0h-192v266h192v-266z" />
<glyph unicode="@" horiz-adv-x="1208" d="M596 991q47 0 73.5 -28.5t43.5 -63.5q2 61 12 105h72v-541q0 -53 20.5 -95t61.5 -42q29 0 51 12t38.5 55t24.5 128t8 231q0 193 -9 308.5t-48 179t-120 83.5t-224 20q-94 0 -159.5 -9t-110.5 -37.5t-71 -81t-39 -137.5t-17 -206.5t-4 -289.5q0 -178 9 -303t30.5 -207 t59.5 -128t95.5 -68.5t136 -28t183.5 -5.5q150 0 237.5 47.5t132.5 116.5l68 -119q-55 -92 -166 -143t-276 -51q-137 0 -238.5 11t-173.5 44t-118 93.5t-71.5 159.5t-36 241.5t-10.5 339.5q0 188 5.5 329.5t22.5 241.5t52 164.5t95.5 102.5t148.5 52.5t215 14.5 q193 0 300.5 -28.5t159.5 -110.5t63.5 -229.5t11.5 -383.5q0 -170 -19.5 -273.5t-52.5 -160.5t-77 -75.5t-95 -18.5q-70 0 -102.5 40t-43.5 89q-37 -129 -147 -129q-72 0 -112 16.5t-59 60.5t-24.5 121.5t-5.5 198.5q0 119 5.5 194.5t24.5 119t59 58.5t110 15zM596 877 q-31 0 -48.5 -10.5t-25.5 -39t-10 -81t-2 -136.5q0 -86 2 -140t11 -87t27.5 -45t53.5 -12q41 0 64.5 42t23.5 113v267q-16 61 -35.5 95t-60.5 34z" />
<glyph unicode="A" horiz-adv-x="862" d="M559 367h-285l-63 -367h-193l304 1526h215l307 -1526h-223zM289 528h252l-123 668z" />
<glyph unicode="B" horiz-adv-x="897" d="M82 1526h321q141 0 222.5 -26.5t122 -76t51 -119t10.5 -155.5q0 -123 -45 -212t-154 -116q137 -29 191.5 -122t54.5 -232q0 -98 -7 -183t-43 -148.5t-113 -99.5t-218 -36h-393v1526zM274 150h148q86 0 134 20t71.5 59t27.5 96.5t4 133.5q0 66 -7 117t-29.5 84.5t-63.5 51 t-106 17.5h-179v-579zM274 874h154q61 0 97 19.5t55.5 53.5t24.5 81t5 105q0 68 -8 112.5t-29.5 72.5t-60.5 40t-102 12h-136v-496z" />
<glyph unicode="C" horiz-adv-x="909" d="M467 1393q-68 0 -106.5 -36t-57 -112t-24 -195.5t-5.5 -287.5q0 -170 5.5 -289t24 -194.5t57 -109.5t106.5 -34t104.5 20.5t54 66.5t21.5 122t8 188l203 -16q-10 -139 -21.5 -240.5t-49 -169t-111.5 -100.5t-209 -33q-147 0 -229 50.5t-121 148.5t-47.5 245.5t-8.5 344.5 q0 195 8.5 342t47.5 247.5t120.5 150.5t229.5 50q137 0 214 -27.5t115 -91t48 -165t14 -248.5l-199 -27q-4 127 -9 205t-23.5 121t-55 58.5t-104.5 15.5z" />
<glyph unicode="D" d="M424 1526q166 0 261 -48t143.5 -143.5t60.5 -239t12 -333.5q0 -209 -11 -354.5t-57.5 -235.5t-139.5 -131t-255 -41h-356v1526h342zM283 1370v-1202h159q86 0 136.5 32.5t76 104.5t32.5 184.5t7 272.5q0 168 -6 283.5t-31.5 187.5t-80 104.5t-148.5 32.5h-145z" />
<glyph unicode="E" horiz-adv-x="722" d="M668 1526v-160h-383v-481h321l-14 -162h-307v-567h393v-156h-596v1526h586z" />
<glyph unicode="F" horiz-adv-x="729" d="M711 1526v-160h-424v-506h344l-17 -162h-327v-698h-205v1526h629z" />
<glyph unicode="G" horiz-adv-x="915" d="M848 782v-782h-150l-18 145q-14 -35 -35.5 -65.5t-54.5 -54t-80 -38t-111 -14.5q-123 0 -191.5 56.5t-100 161t-39 252t-7.5 329.5q0 178 8.5 322.5t47.5 246t120.5 156.5t231.5 55q133 0 207 -26.5t110.5 -84t46 -148.5t15.5 -218l-168 -41q-4 96 -10 164t-26.5 111 t-58.5 62.5t-108 19.5q-76 0 -118 -39t-62.5 -116t-25.5 -193.5t-5 -270.5q0 -143 4 -261t22.5 -201t54.5 -129t99 -46q90 0 145.5 57.5t65.5 149.5v281h-190l27 159h354z" />
<glyph unicode="H" horiz-adv-x="923" d="M287 1526v-658h352v658h203v-1526h-203v709h-352v-709h-205v1526h205z" />
<glyph unicode="I" horiz-adv-x="366" d="M285 1526v-1526h-203v1526h203z" />
<glyph unicode="J" horiz-adv-x="753" d="M672 369q0 -92 -9.5 -166t-43 -125t-101 -78t-182.5 -27q-74 0 -126 14.5t-88 44t-60.5 72.5t-43.5 101l158 61q16 -66 48 -98.5t108 -32.5q47 0 74.5 12.5t42 40t18.5 68.5t4 100v1170h201v-1157z" />
<glyph unicode="K" horiz-adv-x="880" d="M436 799l-151 -264v-535h-203v1526h203v-678l307 678h229l-268 -500l307 -1026h-235z" />
<glyph unicode="L" horiz-adv-x="626" d="M287 1526v-1370h313v-156h-518v1526h205z" />
<glyph unicode="M" horiz-adv-x="1148" d="M229 1112v-1112h-155v1526h241l265 -1211l268 1211h227v-1526h-168v1112l-235 -1112h-197z" />
<glyph unicode="N" horiz-adv-x="911" d="M78 1526h211l370 -1057v1057h175v-1526h-209l-373 1055v-1055h-174v1526z" />
<glyph unicode="O" d="M487 1552q152 0 235 -49t123 -147.5t48 -246.5t8 -347q0 -201 -8 -348.5t-48 -245.5t-123 -146.5t-235 -48.5t-236.5 50.5t-126.5 148.5t-52.5 245.5t-10.5 344.5q0 195 10.5 342t52.5 247.5t126.5 150.5t236.5 50zM487 1393q-74 0 -115.5 -36t-63 -112t-28 -195.5 t-6.5 -287.5q0 -170 6.5 -289t28 -194.5t63.5 -109.5t115 -34q72 0 112 34t59.5 109.5t23.5 194.5t4 289q0 168 -4 287.5t-23.5 196.5t-59.5 112t-112 35z" />
<glyph unicode="P" horiz-adv-x="849" d="M346 1526q145 0 237.5 -26.5t144.5 -79t71.5 -130.5t19.5 -178q0 -113 -19.5 -203t-69.5 -152.5t-138 -96t-225 -33.5h-84v-627h-201v1526h264zM283 1360v-574h108q74 0 119 20.5t69.5 60.5t31.5 98.5t7 132.5q0 63 -7 112.5t-29.5 83t-66.5 50t-120 16.5h-112z" />
<glyph unicode="Q" d="M487 1552q152 0 235 -49t123 -147.5t48 -246.5t8 -347q0 -174 -6 -309.5t-32.5 -231.5t-84 -154.5t-157.5 -78.5q35 -66 79.5 -124.5t98.5 -101.5l-144 -108q-66 57 -121 145t-81 176q-139 10 -218 63.5t-117 151t-47.5 239.5t-9.5 333q0 195 10.5 342t52.5 247.5 t126.5 150.5t236.5 50zM487 1393q-74 0 -115.5 -36t-63 -112t-28 -195.5t-6.5 -287.5q0 -170 6.5 -289t28 -194.5t63.5 -109.5t115 -34q72 0 112 34t59.5 109.5t23.5 194.5t4 289q0 168 -4 287.5t-23.5 196.5t-59.5 112t-112 35z" />
<glyph unicode="R" horiz-adv-x="825" d="M582 0l-146 684h-151v-684h-203v1526h324q127 0 203.5 -22.5t117.5 -71t54.5 -122t13.5 -175.5q0 -86 -7.5 -158t-27 -126t-53 -91t-86.5 -51l186 -709h-225zM432 840q57 0 91 14t52.5 48t23.5 89.5t5 134.5q0 70 -5 118t-23.5 77t-56.5 42t-101 13h-133v-536h147z" />
<glyph unicode="S" horiz-adv-x="817" d="M420 1552q102 0 164.5 -26.5t96.5 -72.5t45 -109.5t15 -135.5l-161 -22q-4 49 -9.5 88t-22 65.5t-46 40t-80.5 13.5q-53 0 -85 -14.5t-49.5 -40t-23.5 -63.5t-6 -85q0 -59 13.5 -103.5t38 -78t58 -59t74.5 -50.5q61 -35 120 -73t105 -94t73.5 -139t27.5 -210 q0 -197 -85 -303.5t-294 -106.5q-102 0 -166.5 26t-103.5 82t-57.5 146t-26.5 219l174 35q4 -96 14 -162.5t29.5 -107.5t52.5 -58.5t84 -17.5q55 0 89 16.5t52.5 48t25.5 80t7 111.5q0 74 -14 127t-42 92t-69 71t-92 62q-55 33 -105.5 72t-90 92.5t-63.5 123t-24 165.5 q0 82 17.5 147.5t58.5 111.5t110 71.5t171 25.5z" />
<glyph unicode="T" horiz-adv-x="739" d="M729 1526v-160h-260v-1366h-203v1366h-254v160h717z" />
<glyph unicode="U" horiz-adv-x="888" d="M281 1526v-920q0 -125 4 -214t20.5 -146.5t49 -84t89.5 -26.5q55 0 88 26.5t49.5 84t20.5 146.5t4 214v920h205v-1086q0 -111 -12.5 -196.5t-50 -146t-110.5 -92.5t-194 -32q-117 0 -189.5 31t-111.5 90.5t-52 146.5t-13 199v1086h203z" />
<glyph unicode="V" horiz-adv-x="862" d="M442 350l209 1176h193l-307 -1526h-213l-306 1526h220z" />
<glyph unicode="W" horiz-adv-x="1327" d="M565 1526h209l170 -1215l152 1215h213l-256 -1526h-199l-184 1227l-178 -1227h-220l-254 1526h218l155 -1219z" />
<glyph unicode="X" horiz-adv-x="876" d="M18 0l314 797l-287 729h207l192 -510l183 510h188l-280 -711l323 -815h-211l-221 590l-209 -590h-199z" />
<glyph unicode="Y" horiz-adv-x="782" d="M399 854l193 672h170l-268 -883v-643h-201v643l-275 883h199z" />
<glyph unicode="Z" horiz-adv-x="720" d="M94 1526h570v-131l-428 -1237h450v-158h-657v135l434 1229h-369v162z" />
<glyph unicode="[" horiz-adv-x="604" d="M61 1683h482v-124h-324v-1743h324v-129h-482v1996z" />
<glyph unicode="\" horiz-adv-x="512" d="M504 0h-121l-375 1526h121z" />
<glyph unicode="]" horiz-adv-x="604" d="M543 -313h-482v125h320v1744h-320v127h482v-1996z" />
<glyph unicode="^" horiz-adv-x="995" d="M496 1292l-273 -610h-162l388 842h94l393 -842h-174z" />
<glyph unicode="_" horiz-adv-x="878" d="M872 -254h-864v113h864v-113z" />
<glyph unicode="`" horiz-adv-x="557" d="M121 1577l332 -260l-68 -76l-367 217z" />
<glyph unicode="a" horiz-adv-x="808" d="M391 1130q106 0 172 -24.5t102.5 -74.5t49 -125t12.5 -173v-518q0 -59 23.5 -73.5t52.5 -14.5l-17 -127q-104 0 -151 36t-57 87q-39 -68 -100.5 -107t-176.5 -39q-74 0 -121 26t-75.5 69t-40 97t-11.5 112q0 109 16.5 183.5t67.5 120.5t147.5 65.5t256.5 19.5v84 q0 57 -4.5 99t-19.5 69.5t-44 40t-78 12.5q-84 0 -111.5 -45t-35.5 -150l-162 15q6 86 19.5 149.5t45 105.5t89 61t151.5 19zM541 557q-98 -6 -157.5 -17.5t-90.5 -39t-41 -76.5t-10 -131q0 -84 22.5 -128t85.5 -44q80 0 126 51t65 147v238z" />
<glyph unicode="b" horiz-adv-x="845" d="M279 985q14 25 37.5 51.5t56.5 47t77 33.5t101 13q86 0 133 -39.5t70.5 -114.5t27.5 -183.5t4 -245.5q0 -113 -5 -215.5t-34.5 -181t-90 -126t-171.5 -47.5t-169 44.5t-101 121.5q0 -8 -2 -27.5t-6 -41t-9 -43t-14 -31.5h-102v1614l197 35v-664zM465 977q-72 0 -121 -43 t-76 -109v-563q23 -61 69 -96t99 -35q55 0 87 22.5t48.5 71.5t20.5 130t4 198q0 121 -3 203t-15.5 131t-39 69.5t-73.5 20.5z" />
<glyph unicode="c" horiz-adv-x="792" d="M430 1130q86 0 142.5 -19t91 -62t51 -113t20.5 -170l-157 -25q-8 127 -36 181.5t-112 54.5q-66 0 -101.5 -28.5t-53 -84t-20.5 -133.5t-3 -176t3 -177t18.5 -134.5t48 -85t92.5 -29.5q51 0 82.5 18.5t49 52t26 83t12.5 110.5l157 -16q-4 -74 -15 -145.5t-45 -128 t-97.5 -91.5t-169.5 -35q-129 0 -201 46.5t-105.5 126t-40 184t-6.5 221.5q0 119 6.5 223.5t42 182t110.5 123.5t210 46z" />
<glyph unicode="d" horiz-adv-x="874" d="M793 0h-162q-4 12 -6 32.5l-4.5 44t-3.5 45t-1 36.5q-33 -78 -93 -128t-165 -50q-106 0 -165.5 43t-89 116.5t-36 172t-6.5 210.5q0 137 7.5 250t38 192.5t93 122.5t173.5 43q90 0 147.5 -40.5t81.5 -94.5v619l191 35v-1649zM418 975q-57 0 -89 -25.5t-48.5 -79 t-20.5 -138.5t-4 -204q0 -102 3 -177t16.5 -124t42 -73.5t79.5 -24.5q49 0 83 16.5t57.5 44t39 65.5t25.5 81v510q-27 59 -76 94t-108 35z" />
<glyph unicode="e" horiz-adv-x="841" d="M424 1130q131 0 203.5 -45t107.5 -116.5t41 -159.5t6 -174v-86h-538q0 -84 5 -160t24.5 -134t59.5 -92t111 -34q100 0 136 59.5t47 161.5l155 -22q-10 -86 -32.5 -151.5t-62.5 -109.5t-102.5 -67t-152.5 -23q-133 0 -206.5 48.5t-110.5 128t-45.5 183t-8.5 214.5 q0 119 8.5 225.5t44.5 184t108.5 123.5t201.5 46zM426 993q-61 0 -95 -24.5t-52.5 -67.5t-23.5 -103.5t-7 -133.5h354v81q0 51 -7 96.5t-25.5 79t-53.5 53t-90 19.5z" />
<glyph unicode="f" horiz-adv-x="509" d="M485 975h-217v-975h-192v975h-88l16 137h72v156q0 111 14 183.5t45 114.5t80 59t121 17q70 0 113 -19t65 -46l-35 -137q-43 53 -106 53q-29 0 -49.5 -8t-32.5 -34t-17.5 -74t-5.5 -128v-137h234z" />
<glyph unicode="g" horiz-adv-x="770" d="M702 774q0 -72 -14 -137.5t-47 -115.5t-85 -79.5t-126 -29.5h-37q-18 0 -35 2q-29 -16 -41 -38t-12 -63q0 -35 22.5 -65.5t73.5 -30.5h109q49 0 94 -17.5t81 -54t56.5 -95t20.5 -140.5q0 -195 -78 -277t-246 -82h-172q-131 0 -194.5 72t-63.5 182q0 137 55.5 197.5 t172.5 79.5q-31 12 -54.5 26.5t-39 36t-22.5 52t-7 75.5q0 80 32.5 126t94.5 63q-86 43 -123 123t-37 190q0 63 12 123.5t47 108t96.5 77t157.5 29.5q35 0 64.5 -5t54.5 -13q20 66 48 121t63 88l114 -62q-41 -29 -78.5 -82t-62.5 -108q61 -47 83.5 -123t22.5 -154zM178 -135 q0 -55 13.5 -89t42 -53.5t73.5 -26.5t107 -7q111 0 154.5 42t43.5 144q0 98 -45 130t-143 32q-61 0 -107.5 -6t-77 -24.5t-46 -52.5t-15.5 -89zM393 535q74 0 101.5 53t27.5 182q0 127 -26.5 175t-102.5 48t-101.5 -50t-25.5 -173q0 -125 25.5 -180t101.5 -55z" />
<glyph unicode="h" horiz-adv-x="882" d="M608 0v844q0 61 -32.5 96t-96.5 35q-72 0 -116 -41t-89 -133v-801h-192v1614l192 35v-682q47 72 112 117.5t171 45.5q74 0 121 -24.5t74.5 -66.5t38 -95t10.5 -110v-834h-193z" />
<glyph unicode="i" horiz-adv-x="356" d="M274 0h-192v1112h192v-1112zM274 1339h-192v267h192v-267z" />
<glyph unicode="j" horiz-adv-x="382" d="M301 1339h-192v267h192v-267zM109 1112h192v-1186q0 -111 -14.5 -183.5t-45 -114.5t-79.5 -59.5t-121 -17.5q-70 0 -113 19.5t-65 46.5l37 137q20 -29 50 -39t58 -10q27 0 46.5 9.5t31.5 38t17.5 82.5t5.5 145v1132z" />
<glyph unicode="k" horiz-adv-x="806" d="M424 610l-150 -200v-410h-192v1614l192 35v-1014l271 477h225l-223 -319l250 -793h-230z" />
<glyph unicode="l" horiz-adv-x="356" d="M82 0v1614l192 35v-1649h-192z" />
<glyph unicode="m" horiz-adv-x="1306" d="M754 0h-191v844q0 131 -123 131q-47 0 -85 -38t-81 -136v-801h-192v1112h162q4 -37 10 -78t8 -84q47 88 104.5 134t143.5 46q104 0 156.5 -50t70.5 -122q47 84 102.5 128t141.5 44q74 0 121 -24.5t74.5 -66.5t38 -95t10.5 -110v-834h-191v813q0 78 -25.5 120t-97.5 42 q-47 0 -81.5 -36t-75.5 -128v-811z" />
<glyph unicode="n" horiz-adv-x="882" d="M244 1112q2 -12 5 -32.5t6 -45t5 -47t2 -37.5q49 86 119 133t176 47q74 0 121 -24.5t74.5 -66.5t38 -95t10.5 -110v-834h-193v844q0 61 -32.5 96t-96.5 35q-72 0 -116 -41t-89 -133v-801h-192v1112h162z" />
<glyph unicode="o" horiz-adv-x="878" d="M438 1130q141 0 218 -47t113 -126.5t42 -185t6 -220.5t-6 -218.5t-42 -182t-112.5 -126t-218.5 -47.5q-141 0 -217 47.5t-111.5 126t-42 182t-6.5 218.5t6.5 220.5t42 185t112.5 126.5t216 47zM438 975q-68 0 -104.5 -24.5t-55 -77t-21.5 -132t-3 -190.5t3 -189.5 t21.5 -131t55.5 -77t104 -24.5q68 0 105 24.5t55 77t21.5 131t3.5 189.5t-3.5 190.5t-21.5 132t-55 77t-105 24.5z" />
<glyph unicode="p" horiz-adv-x="866" d="M82 1112h162q8 -80 12 -160q35 78 95.5 129.5t164.5 51.5q106 0 165.5 -43t88.5 -118t36 -173.5t7 -208.5q0 -139 -8 -252t-39 -191.5t-93.5 -121.5t-170.5 -43q-37 0 -74 11t-67.5 30.5t-54 44t-36.5 49.5v-566h-188v1561zM457 137q55 0 88 25.5t48 80t19 138.5t4 201 q0 102 -3 177t-16 124t-42 73.5t-80 24.5q-49 0 -83 -16.5t-57.5 -44t-38.5 -66.5t-26 -82v-508q18 -45 66.5 -86t120.5 -41z" />
<glyph unicode="q" horiz-adv-x="843" d="M565 123q-14 -25 -37.5 -50.5t-57.5 -45t-78 -32.5t-99 -13q-86 0 -133 39.5t-69.5 114.5t-27 182.5t-4.5 244.5q0 113 5.5 216.5t34 182t89 126t168.5 47.5q113 0 171.5 -46.5t101.5 -121.5q0 29 7 68.5t21 76.5h105v-1561h-197v572zM379 133q72 0 122 42t77 108v565 q-29 66 -74 98.5t-96 32.5q-55 0 -87 -22.5t-48.5 -71.5t-21.5 -130t-5 -198q0 -121 3 -202t16.5 -130t40 -70.5t73.5 -21.5z" />
<glyph unicode="r" horiz-adv-x="573" d="M233 1112q16 -88 17 -182q41 86 123 134t190 48l-16 -192q-72 0 -119 -14.5t-79 -42t-49 -70.5t-26 -99v-694h-192v1112h151z" />
<glyph unicode="s" horiz-adv-x="731" d="M371 1130q86 0 138 -12t83 -41.5t45 -79t27 -120.5l-152 -29q-10 70 -31.5 99.5t-91.5 29.5q-59 0 -94 -25.5t-35 -93.5q0 -61 23.5 -104t89.5 -80l124 -67q56 -30 96 -67.5t62.5 -93t22.5 -143.5q0 -160 -77 -245t-251 -85q-156 0 -231.5 80t-75.5 266l166 25 q0 -45 6 -85t21.5 -70.5t42 -48t69.5 -17.5q98 0 129 43t31 119q0 92 -46 139t-128 86q-61 29 -108.5 59.5t-79 69.5t-49 90t-17.5 123q0 63 13 114.5t47 88.5t89.5 56t141.5 19z" />
<glyph unicode="t" horiz-adv-x="561" d="M274 1112h279l-16 -137h-263v-690q0 -63 29 -99t62 -36q45 0 70.5 23.5t47.5 70.5l80 -119q-27 -53 -88 -94t-160 -41q-111 0 -172 64.5t-61 205.5v715h-84l14 137h70v281l192 32v-313z" />
<glyph unicode="u" horiz-adv-x="843" d="M623 0q-4 10 -8 32l-6 45q-3 24 -4 46t-1 37q-43 -86 -107.5 -132t-170.5 -46q-74 0 -121 24.5t-75 66.5t-38 95t-10 111v833h190v-846q0 -61 31 -96t92 -35q72 0 115 41t80 133v803h194v-1112h-161z" />
<glyph unicode="v" horiz-adv-x="759" d="M397 301l164 811h180l-272 -1112h-164l-287 1112h213z" />
<glyph unicode="w" horiz-adv-x="1075" d="M463 1112h172l127 -797l119 797h176l-221 -1112h-152l-135 817l-139 -817h-177l-215 1112h199l117 -797z" />
<glyph unicode="x" horiz-adv-x="700" d="M186 0h-168l240 594l-209 518h174l131 -332l121 332h160l-201 -504l248 -608h-180l-164 420z" />
<glyph unicode="y" horiz-adv-x="757" d="M401 303l156 809h182l-288 -1194q-18 -78 -41 -144.5t-59 -115.5t-89 -78t-131 -29q-43 0 -77 7.5t-66 27.5l41 81l41 81q14 -10 29.5 -16t31.5 -6q43 0 91 61t83 221l-289 1104h213z" />
<glyph unicode="z" horiz-adv-x="663" d="M84 1112h514v-119l-377 -852h418v-141h-612v119l368 850h-311v143z" />
<glyph unicode="{" horiz-adv-x="694" d="M528 1559q-37 0 -66.5 -10.5t-49 -40t-29.5 -85t-10 -145.5v-299q0 -115 -44 -177.5t-134 -92.5q98 -43 138 -111t40 -186v-308q0 -98 10 -156.5t30.5 -87t50.5 -36.5t66 -8h103v-129h-115q-53 0 -105.5 14t-94.5 51t-68.5 98.5t-26.5 157.5v344q0 154 -27.5 217.5 t-99.5 63.5h-76v147h76q78 0 102.5 64.5t24.5 197.5v357q0 82 25.5 137t66.5 88t92.5 46t102.5 13h123v-124h-105z" />
<glyph unicode="|" horiz-adv-x="266" d="M61 1677h146v-2054h-146v2054z" />
<glyph unicode="}" horiz-adv-x="698" d="M61 1559v124h123q51 0 102.5 -13t92.5 -46t66.5 -88t25.5 -137v-361q0 -129 24.5 -193.5t100.5 -64.5h78v-147h-78q-68 0 -96.5 -61.5t-28.5 -209.5v-354q0 -96 -26.5 -157.5t-68.5 -98.5t-93.5 -51t-102.5 -14h-119v129h101q39 0 67.5 8t49 36.5t30.5 87t10 156.5v308 q0 117 44.5 186.5t134.5 106.5q-86 31 -132.5 101.5t-46.5 186.5v285q0 94 -10 149.5t-29.5 84t-48 38t-67.5 9.5h-103z" />
<glyph unicode="~" horiz-adv-x="1150" d="M61 672q41 53 106.5 94t158.5 41q72 0 135 -18.5t121.5 -42t114 -42t112.5 -18.5t124.5 44t156.5 144v-188q-59 -66 -127 -99.5t-162 -33.5q-63 0 -123 18.5t-117 42t-114.5 42t-114.5 18.5q-53 0 -122 -47t-149 -146v191z" />
<glyph unicode="&#xa1;" horiz-adv-x="360" d="M59 -449l39 1125h164l39 -1125h-242zM84 1153h192v-266h-192v266z" />
<glyph unicode="&#xa2;" horiz-adv-x="788" d="M358 0v205q-109 10 -169 59t-88.5 127t-34 178.5t-5.5 210.5q0 109 5.5 207t34 175t88 126t169.5 62v176h134v-176q66 -6 110.5 -30t72 -67t42 -108.5t18.5 -155.5l-157 -22q-4 68 -13.5 110.5t-27 69.5t-46 37t-71.5 10q-59 0 -93 -28.5t-50.5 -82t-20.5 -130t-4 -173.5 q0 -98 3 -177t18.5 -134t48 -85t92.5 -30q51 0 82.5 17.5t49 51.5t26 84t12.5 114l157 -21q-4 -66 -13 -131.5t-35.5 -118.5t-74 -92t-126.5 -51v-207h-134z" />
<glyph unicode="&#xa3;" horiz-adv-x="960" d="M541 627q14 -43 19 -93.5t5 -97.5q0 -72 -15 -147.5t-46 -141.5q35 -29 68.5 -43t70.5 -14q90 0 132 56.5t46 146.5l105 -29q6 -35 6 -65q0 -59 -22.5 -106.5t-58.5 -81.5t-82 -51t-91 -17q-78 0 -133.5 35.5t-108.5 82.5q-41 -45 -98 -70.5t-137 -25.5q-55 0 -89 13.5 t-53.5 37t-25.5 53t-6 64.5q0 31 8 59.5t28.5 52t53.5 38t82 14.5q57 0 105 -25.5t89 -56.5q12 35 17.5 76t5.5 80q0 72 -13.5 134t-29.5 122h-221l16 131h164l-75 214q-36 108 -36 236q0 92 15.5 160t52.5 111t96 64.5t147 21.5q111 0 171.5 -27t91 -83t40 -142t15.5 -205 l-164 -23q-4 70 -9 130.5t-20.5 104.5t-44 68.5t-80.5 24.5q-86 0 -112.5 -48t-26.5 -159q0 -63 11.5 -120.5t30 -112.5t39 -108.5t38.5 -106.5h285l-17 -131h-239zM215 205q-43 0 -63.5 -21.5t-20.5 -52.5q0 -27 19.5 -50.5t60.5 -23.5q51 0 85 20.5t58 51.5 q-29 25 -65.5 50.5t-73.5 25.5z" />
<glyph unicode="&#xa5;" horiz-adv-x="659" d="M254 643v172l-229 711h155l162 -529l158 529h141l-229 -711v-172h155v-119h-155v-190h155v-119h-155v-215h-158v215h-154v119h154v190h-154v119h154z" />
<glyph unicode="&#xa7;" horiz-adv-x="739" d="M381 1602q86 0 138 -12.5t83 -42t45.5 -79t24.5 -120.5l-152 -29q-10 70 -31.5 99.5t-91.5 29.5q-59 0 -93 -25.5t-34 -93.5q0 -61 23.5 -107t105.5 -87l119 -58q53 -25 90 -60.5t57.5 -92t20.5 -150.5q0 -111 -37 -186.5t-121 -112.5q35 -23 62.5 -47.5t48 -57t31 -75.5 t10.5 -102q0 -158 -77 -244t-251 -86q-156 0 -231.5 80t-75.5 266l166 24q0 -41 7 -79.5t22.5 -70.5t42 -51.5t67.5 -19.5q98 0 129 44t31 120q0 92 -46 144.5t-124 87.5q-61 27 -108.5 56.5t-81 68t-51 89t-17.5 119.5q0 53 10 99.5t34 81t63.5 57t99.5 33.5 q-96 51 -148.5 120.5t-52.5 190.5q0 63 13.5 114.5t47 88.5t90 56.5t142.5 19.5zM389 909q-72 0 -104.5 -34.5t-32.5 -126.5q0 -86 24.5 -131.5t106.5 -45.5q84 0 111.5 43t27.5 129q0 98 -32.5 132t-100.5 34z" />
<glyph unicode="&#xa8;" horiz-adv-x="624" d="M229 1255h-168v246h168v-246zM563 1255h-168v246h168v-246z" />
<glyph unicode="&#xa9;" horiz-adv-x="1589" d="M805 1548q360 0 541.5 -194.5t181.5 -593.5t-189.5 -594t-533.5 -195q-358 0 -551 194.5t-193 594.5q0 395 191 591.5t553 196.5zM805 1450q-121 0 -232.5 -38t-197.5 -120t-137.5 -214t-51.5 -318q0 -188 51.5 -318.5t137.5 -212.5t197.5 -118.5t232.5 -36.5 q119 0 227.5 36.5t190.5 118.5t130 213t48 318q0 186 -48 317t-129 214t-189.5 121t-229.5 38zM793 1098q-53 0 -99.5 -19.5t-81 -60.5t-55 -106.5t-20.5 -157.5t19 -158t54 -106.5t81 -59t102 -18.5q45 0 86 10t73.5 34.5t53 65.5t22.5 103l113 -9q-18 -297 -348 -297 q-375 0 -375 435q0 217 98 326.5t277 109.5q166 0 254 -65.5t94 -229.5l-113 -14q-2 70 -21.5 111.5t-52 65t-74.5 32t-87 8.5z" />
<glyph unicode="&#xaa;" horiz-adv-x="571" d="M281 1540q70 0 112.5 -16.5t66 -48t32 -79.5t8.5 -112v-323q0 -23 13 -29t34 -6l-12 -105h-17q-57 0 -84.5 20.5t-36.5 59.5q-18 -37 -58 -62.5t-112 -25.5q-49 0 -80.5 17.5t-50 46t-27 64.5t-8.5 73q0 70 8.5 117t39 75.5t91 42t162.5 13.5v36q0 68 -15 92.5t-68 24.5 q-47 0 -62.5 -28.5t-19.5 -90.5l-115 11q4 61 12 105t29.5 72.5t59 42t98.5 13.5zM258 928q41 0 64.5 24.5t39.5 81.5v131q-53 -2 -86.5 -9t-52 -23.5t-26 -44t-7.5 -68.5q0 -43 17.5 -67.5t50.5 -24.5z" />
<glyph unicode="&#xab;" horiz-adv-x="677" d="M610 231l-313 365l313 369l49 -54l-225 -315l225 -313zM336 231l-313 365l313 369l49 -54l-225 -315l225 -313z" />
<glyph unicode="&#xad;" horiz-adv-x="448" d="M23 537l16 129h389l-16 -129h-389z" />
<glyph unicode="&#xae;" horiz-adv-x="1030" d="M618 844l-88 205h-81v-205h-89v479h175q84 0 120.5 -33t36.5 -98q0 -16 -5 -34.5t-16.5 -37t-26.5 -33t-36 -20.5l111 -223h-101zM547 1122q35 0 49 19.5t14 48.5q0 35 -19.5 48t-53.5 13h-88v-129h98zM522 1546q446 0 447 -467q0 -244 -116 -356.5t-331 -112.5 q-223 0 -342 117t-119 352q0 229 119 348t342 119zM522 1481q-78 0 -148.5 -21.5t-123.5 -70t-86 -125t-33 -185.5t33 -185.5t87 -125.5t124.5 -71.5t146.5 -22.5q74 0 142.5 22.5t121 71.5t83 126t30.5 185q0 106 -30.5 183t-82 125.5t-120 71t-144.5 22.5z" />
<glyph unicode="&#xaf;" horiz-adv-x="839" d="M780 1413v-133h-721v133h721z" />
<glyph unicode="&#xb0;" horiz-adv-x="526" d="M264 1548q109 0 156 -62.5t47 -154.5q0 -90 -48 -153.5t-155 -63.5q-109 0 -156 63.5t-47 153.5q0 92 47 154.5t156 62.5zM264 1487q-78 0 -108.5 -45t-30.5 -111q0 -63 30.5 -109t108.5 -46q74 0 106.5 46t32.5 109q0 66 -32.5 111t-106.5 45z" />
<glyph unicode="&#xb2;" horiz-adv-x="587" d="M287 1671q-53 0 -69.5 -50t-24.5 -179l-132 18q4 82 10.5 145.5t29 104.5t68.5 62.5t128 21.5q61 0 102 -15.5t65.5 -49t34 -86t9.5 -127.5q0 -84 -24.5 -164t-62.5 -154t-83 -136.5t-88 -111.5h276l-6 -123h-452v115q55 51 109 117.5t97 140.5t70 155t27 161 q0 86 -20.5 120.5t-63.5 34.5z" />
<glyph unicode="&#xb3;" horiz-adv-x="600" d="M297 1794q76 0 119 -19.5t64.5 -55.5t27.5 -85t6 -108q0 -92 -22.5 -133t-67.5 -66q61 -16 88 -65.5t27 -151.5q0 -61 -5.5 -115.5t-30 -95.5t-73.5 -64.5t-135 -23.5q-68 0 -110 15.5t-68.5 44t-37.5 69.5t-18 94l125 39q10 -68 31 -102.5t76 -34.5q70 0 89 45t19 137 q0 72 -19.5 107t-90.5 35h-82l12 120h70q49 0 70.5 28t21.5 105q0 94 -20.5 126t-65.5 32t-61.5 -29.5t-24.5 -113.5l-131 14q4 70 15 119t35 77.5t64 42t103 13.5z" />
<glyph unicode="&#xb4;" horiz-adv-x="555" d="M537 1427l-365 -215l-70 78l332 258z" />
<glyph unicode="&#xb5;" horiz-adv-x="768" d="M82 -449v1561h149v-893q10 -57 48 -78.5t92 -21.5q68 0 103.5 53t57.5 131v809h154v-1112h-115q-10 31 -13 54.5t-3 64.5q-31 -66 -78 -102.5t-110 -36.5q-53 0 -81 14t-55 39v-482h-149z" />
<glyph unicode="&#xb6;" horiz-adv-x="956" d="M346 1073q-145 10 -210.5 71.5t-65.5 149.5q0 47 18 89t58 74t99.5 50.5t143.5 18.5h543l-94 -180v-1639h-154v1362h-182v-1065q0 -90 -24.5 -148.5t-66.5 -93t-96.5 -49t-115.5 -14.5q-57 0 -102.5 16.5t-69.5 36.5l30 113q27 -18 60 -29.5t69 -11.5q37 0 66 7 t50.5 28.5t32.5 58.5t11 98v1057z" />
<glyph unicode="&#xb7;" horiz-adv-x="313" d="M254 629h-193v266h193v-266z" />
<glyph unicode="&#xb8;" horiz-adv-x="473" d="M186 10h72l-6 -98q90 0 125 -44t35 -116t-57.5 -111.5t-141.5 -39.5q-78 0 -152 32l25 62q55 -23 102 -23q49 0 84 24.5t35 76.5q0 53 -35.5 72.5t-109.5 23.5z" />
<glyph unicode="&#xb9;" horiz-adv-x="407" d="M61 1661q70 10 112 44t75 89h98v-967h-147v760q-23 -18 -53.5 -31.5t-67.5 -13.5z" />
<glyph unicode="&#xba;" horiz-adv-x="610" d="M305 1540q90 0 139.5 -29.5t73 -80t27.5 -116t4 -136.5q0 -72 -4 -138.5t-27.5 -117t-73 -80t-139.5 -29.5t-140 29.5t-72.5 80t-27 117t-4.5 138.5t4.5 137t27 115.5t72.5 80t140 29.5zM305 1421q-74 0 -90 -59t-16 -184q0 -127 16 -186.5t90 -59.5q72 0 88.5 59.5 t16.5 186.5q0 125 -16.5 184t-88.5 59z" />
<glyph unicode="&#xbb;" horiz-adv-x="677" d="M23 283l225 313l-225 315l49 54l313 -369l-313 -365zM297 283l225 313l-225 315l49 54l313 -369l-313 -365z" />
<glyph unicode="&#xbc;" horiz-adv-x="1462" d="M297 -205l586 1807h143l-589 -1807h-140zM88 1491q70 10 112 44t75 89h98v-967h-147v760q-23 -18 -53.5 -31.5t-67.5 -13.5zM866 117l263 664h165v-639h54l-13 -125h-41v-187h-147v187h-281v100zM1147 142v370l-149 -370h149z" />
<glyph unicode="&#xbd;" horiz-adv-x="1466" d="M297 -205l586 1807h143l-589 -1807h-140zM88 1491q70 10 112 44t75 89h98v-967h-147v760q-23 -18 -53.5 -31.5t-67.5 -13.5zM1149 674q-53 0 -69.5 -50t-24.5 -179l-132 18q4 82 10.5 145.5t29 104.5t68.5 62.5t128 21.5q61 0 102 -15.5t65.5 -49t34 -86t9.5 -127.5 q0 -84 -24.5 -164t-62.5 -154t-83 -136.5t-88 -111.5h276l-6 -123h-452v115q55 51 109 117.5t97 140.5t70 155t27 161q0 86 -20.5 120.5t-63.5 34.5z" />
<glyph unicode="&#xbe;" horiz-adv-x="1462" d="M381 -205l586 1807h143l-589 -1807h-140zM866 117l263 664h165v-639h54l-13 -125h-41v-187h-147v187h-281v100zM1147 142v370l-149 -370h149zM324 1624q76 0 119 -19.5t64.5 -55.5t27.5 -85t6 -108q0 -92 -22.5 -133t-67.5 -66q61 -16 88 -65.5t27 -151.5 q0 -61 -5.5 -115.5t-30 -95.5t-73.5 -64.5t-135 -23.5q-68 0 -110 15.5t-68.5 44t-37.5 69.5t-18 94l125 39q10 -68 31 -102.5t76 -34.5q70 0 89 45t19 137q0 72 -19.5 107t-90.5 35h-82l12 120h70q49 0 70.5 28t21.5 105q0 94 -20.5 126t-65.5 32t-61.5 -29.5t-24.5 -113.5 l-131 14q4 70 15 119t35 77.5t64 42t103 13.5z" />
<glyph unicode="&#xbf;" horiz-adv-x="768" d="M236 -68q0 -115 26.5 -168t116.5 -53q51 0 83 20.5t49 63.5t24.5 106.5t11.5 149.5l182 -24q-6 -125 -19.5 -214t-51 -147.5t-106.5 -86.5t-183 -28q-102 0 -167 21.5t-102 67t-51 117t-14 173.5q0 86 23.5 151.5t58.5 119t75.5 98.5t75.5 92t58.5 99.5t23.5 119.5 q0 57 -18 113h160q16 -29 22 -61.5t6 -69.5q0 -74 -21.5 -133.5t-52 -110.5t-68.5 -98t-68.5 -96.5t-52 -102.5t-21.5 -119zM311 1186h193v-266h-193v266z" />
<glyph unicode="&#xc0;" horiz-adv-x="862" d="M559 367h-285l-63 -367h-193l304 1526h215l307 -1526h-223zM289 528h252l-123 668zM266 1991l332 -260l-68 -76l-367 217z" />
<glyph unicode="&#xc1;" horiz-adv-x="862" d="M559 367h-285l-63 -367h-193l304 1526h215l307 -1526h-223zM289 528h252l-123 668zM693 1841l-365 -215l-70 78l332 258z" />
<glyph unicode="&#xc2;" horiz-adv-x="862" d="M559 367h-285l-63 -367h-193l304 1526h215l307 -1526h-223zM289 528h252l-123 668zM206 1733l156 260h131l160 -262l-107 -51l-120 213l-121 -217z" />
<glyph unicode="&#xc3;" horiz-adv-x="862" d="M559 367h-285l-63 -367h-193l304 1526h215l307 -1526h-223zM289 528h252l-123 668zM98 1760q23 92 71 131t110 39q41 0 79.5 -15.5t73.5 -34.5l67 -33q32 -15 60 -16q57 0 78 113l121 -39q-25 -98 -76 -140t-113 -42q-41 0 -77.5 14t-72.5 32l-68 31q-32 14 -60 15 q-25 0 -44.5 -29t-35.5 -82z" />
<glyph unicode="&#xc4;" horiz-adv-x="862" d="M559 367h-285l-63 -367h-193l304 1526h215l307 -1526h-223zM289 528h252l-123 668zM346 1669h-168v246h168v-246zM680 1669h-168v246h168v-246z" />
<glyph unicode="&#xc5;" horiz-adv-x="862" d="M559 367h-285l-63 -367h-193l304 1526h215l307 -1526h-223zM289 528h252l-123 668zM633 1731q0 -176 -203 -176q-205 0 -205 176q0 174 205 174q203 0 203 -174zM553 1731q0 104 -123 104t-123 -104t123 -105q123 1 123 105z" />
<glyph unicode="&#xc6;" horiz-adv-x="1101" d="M293 387l-55 -387h-209l268 1526h768v-160h-356v-481h292l-14 -162h-278v-567h358v-156h-549v387h-225zM315 551h203v815h-86z" />
<glyph unicode="&#xc7;" horiz-adv-x="909" d="M401 -23q-123 10 -191.5 64.5t-101 153t-40 241t-7.5 326.5q0 195 8.5 342t47.5 247.5t120.5 150.5t229.5 50q137 0 214 -27.5t115 -91t48 -165t14 -248.5l-199 -27q-4 127 -9 205t-23.5 121t-55 58.5t-104.5 15.5t-106.5 -36t-57 -112t-24 -195.5t-5.5 -287.5 q0 -170 5.5 -289t24 -194.5t57 -109.5t106.5 -34t104.5 20.5t54 66.5t21.5 122t8 188l203 -16q-10 -137 -21.5 -238.5t-48 -169t-110.5 -100.5t-205 -35l-4 -61q92 0 126 -44t34 -116t-57.5 -111.5t-141.5 -39.5q-35 0 -74 8t-77 24l26 62q55 -23 103 -23q49 0 83.5 24.5 t34.5 76.5q0 51 -34.5 71.5t-110.5 24.5z" />
<glyph unicode="&#xc8;" horiz-adv-x="722" d="M668 1526v-160h-383v-481h321l-14 -162h-307v-567h393v-156h-596v1526h586zM197 1991l332 -260l-68 -76l-367 217z" />
<glyph unicode="&#xc9;" horiz-adv-x="722" d="M668 1526v-160h-383v-481h321l-14 -162h-307v-567h393v-156h-596v1526h586zM623 1841l-365 -215l-70 78l332 258z" />
<glyph unicode="&#xca;" horiz-adv-x="722" d="M668 1526v-160h-383v-481h321l-14 -162h-307v-567h393v-156h-596v1526h586zM137 1733l156 260h131l160 -262l-107 -51l-120 213l-121 -217z" />
<glyph unicode="&#xcb;" horiz-adv-x="722" d="M668 1526v-160h-383v-481h321l-14 -162h-307v-567h393v-156h-596v1526h586zM276 1669h-168v246h168v-246zM610 1669h-168v246h168v-246z" />
<glyph unicode="&#xcc;" horiz-adv-x="366" d="M285 1526v-1526h-203v1526h203zM25 1991l332 -260l-68 -76l-367 217z" />
<glyph unicode="&#xcd;" horiz-adv-x="366" d="M285 1526v-1526h-203v1526h203zM451 1841l-365 -215l-70 78l332 258z" />
<glyph unicode="&#xce;" horiz-adv-x="366" d="M285 1526v-1526h-203v1526h203zM-35 1733l156 260h131l160 -262l-107 -51l-120 213l-121 -217z" />
<glyph unicode="&#xcf;" horiz-adv-x="366" d="M285 1526v-1526h-203v1526h203zM104 1669h-168v246h168v-246zM438 1669h-168v246h168v-246z" />
<glyph unicode="&#xd0;" d="M8 887h74v639h342q166 0 261 -48t143.5 -143.5t60.5 -239t12 -333.5q0 -209 -11 -354.5t-57.5 -235.5t-139.5 -131t-255 -41h-356v725h-74v162zM283 1370v-483h247l-16 -162h-231v-557h159q86 0 136.5 32.5t76 104.5t32.5 184.5t7 272.5q0 168 -6 283.5t-31.5 187.5 t-80 104.5t-148.5 32.5h-145z" />
<glyph unicode="&#xd1;" horiz-adv-x="911" d="M78 1526h211l370 -1057v1057h175v-1526h-209l-373 1055v-1055h-174v1526zM124 1760q23 92 71 131t110 39q41 0 79.5 -15.5t73.5 -34.5l67 -33q32 -15 60 -16q57 0 78 113l121 -39q-25 -98 -76 -140t-113 -42q-41 0 -77.5 14t-72.5 32l-68 31q-32 14 -60 15 q-25 0 -44.5 -29t-35.5 -82z" />
<glyph unicode="&#xd2;" d="M487 1552q152 0 235 -49t123 -147.5t48 -246.5t8 -347q0 -201 -8 -348.5t-48 -245.5t-123 -146.5t-235 -48.5t-236.5 50.5t-126.5 148.5t-52.5 245.5t-10.5 344.5q0 195 10.5 342t52.5 247.5t126.5 150.5t236.5 50zM487 1393q-74 0 -115.5 -36t-63 -112t-28 -195.5 t-6.5 -287.5q0 -170 6.5 -289t28 -194.5t63.5 -109.5t115 -34q72 0 112 34t59.5 109.5t23.5 194.5t4 289q0 168 -4 287.5t-23.5 196.5t-59.5 112t-112 35zM318 1991l332 -260l-68 -76l-367 217z" />
<glyph unicode="&#xd3;" d="M487 1552q152 0 235 -49t123 -147.5t48 -246.5t8 -347q0 -201 -8 -348.5t-48 -245.5t-123 -146.5t-235 -48.5t-236.5 50.5t-126.5 148.5t-52.5 245.5t-10.5 344.5q0 195 10.5 342t52.5 247.5t126.5 150.5t236.5 50zM487 1393q-74 0 -115.5 -36t-63 -112t-28 -195.5 t-6.5 -287.5q0 -170 6.5 -289t28 -194.5t63.5 -109.5t115 -34q72 0 112 34t59.5 109.5t23.5 194.5t4 289q0 168 -4 287.5t-23.5 196.5t-59.5 112t-112 35zM744 1841l-365 -215l-70 78l332 258z" />
<glyph unicode="&#xd4;" d="M487 1552q152 0 235 -49t123 -147.5t48 -246.5t8 -347q0 -201 -8 -348.5t-48 -245.5t-123 -146.5t-235 -48.5t-236.5 50.5t-126.5 148.5t-52.5 245.5t-10.5 344.5q0 195 10.5 342t52.5 247.5t126.5 150.5t236.5 50zM487 1393q-74 0 -115.5 -36t-63 -112t-28 -195.5 t-6.5 -287.5q0 -170 6.5 -289t28 -194.5t63.5 -109.5t115 -34q72 0 112 34t59.5 109.5t23.5 194.5t4 289q0 168 -4 287.5t-23.5 196.5t-59.5 112t-112 35zM258 1733l156 260h131l160 -262l-107 -51l-120 213l-121 -217z" />
<glyph unicode="&#xd5;" d="M487 1552q152 0 235 -49t123 -147.5t48 -246.5t8 -347q0 -201 -8 -348.5t-48 -245.5t-123 -146.5t-235 -48.5t-236.5 50.5t-126.5 148.5t-52.5 245.5t-10.5 344.5q0 195 10.5 342t52.5 247.5t126.5 150.5t236.5 50zM487 1393q-74 0 -115.5 -36t-63 -112t-28 -195.5 t-6.5 -287.5q0 -170 6.5 -289t28 -194.5t63.5 -109.5t115 -34q72 0 112 34t59.5 109.5t23.5 194.5t4 289q0 168 -4 287.5t-23.5 196.5t-59.5 112t-112 35zM149 1760q23 92 71 131t110 39q41 0 79.5 -15.5t73.5 -34.5l67 -33q32 -15 60 -16q57 0 78 113l121 -39 q-25 -98 -76 -140t-113 -42q-41 0 -77.5 14t-72.5 32l-68 31q-32 14 -60 15q-25 0 -44.5 -29t-35.5 -82z" />
<glyph unicode="&#xd6;" d="M487 1552q152 0 235 -49t123 -147.5t48 -246.5t8 -347q0 -201 -8 -348.5t-48 -245.5t-123 -146.5t-235 -48.5t-236.5 50.5t-126.5 148.5t-52.5 245.5t-10.5 344.5q0 195 10.5 342t52.5 247.5t126.5 150.5t236.5 50zM487 1393q-74 0 -115.5 -36t-63 -112t-28 -195.5 t-6.5 -287.5q0 -170 6.5 -289t28 -194.5t63.5 -109.5t115 -34q72 0 112 34t59.5 109.5t23.5 194.5t4 289q0 168 -4 287.5t-23.5 196.5t-59.5 112t-112 35zM397 1669h-168v246h168v-246zM731 1669h-168v246h168v-246z" />
<glyph unicode="&#xd7;" horiz-adv-x="894" d="M356 760l-295 297l91 90l294 -297l297 297l91 -90l-295 -297l295 -295l-91 -92l-297 297l-294 -297l-91 92z" />
<glyph unicode="&#xd8;" d="M487 1552q135 0 220 -43l30 84l97 -43l-39 -108q39 -47 60.5 -112.5t31.5 -150.5t12 -189.5t2 -227.5q0 -201 -8 -348.5t-48 -245.5t-123 -146.5t-235 -48.5q-131 0 -213 37l-32 -88l-95 39l39 111q-43 45 -68.5 110.5t-37.5 151.5t-15.5 193.5t-3.5 234.5 q0 195 10.5 342t52.5 247.5t126.5 150.5t236.5 50zM487 1393q-74 0 -115.5 -36t-63 -112t-28 -195.5t-6.5 -287.5q0 -131 3.5 -231.5t13.5 -172.5l344 953q-46 82 -148 82zM686 762q0 111 -1 200t-7 158l-336 -919q47 -66 145 -66q72 0 112 34t59.5 109.5t23.5 194.5t4 289z " />
<glyph unicode="&#xd9;" horiz-adv-x="888" d="M281 1526v-920q0 -125 4 -214t20.5 -146.5t49 -84t89.5 -26.5q55 0 88 26.5t49.5 84t20.5 146.5t4 214v920h205v-1086q0 -111 -12.5 -196.5t-50 -146t-110.5 -92.5t-194 -32q-117 0 -189.5 31t-111.5 90.5t-52 146.5t-13 199v1086h203zM281 1991l332 -260l-68 -76 l-367 217z" />
<glyph unicode="&#xda;" horiz-adv-x="888" d="M281 1526v-920q0 -125 4 -214t20.5 -146.5t49 -84t89.5 -26.5q55 0 88 26.5t49.5 84t20.5 146.5t4 214v920h205v-1086q0 -111 -12.5 -196.5t-50 -146t-110.5 -92.5t-194 -32q-117 0 -189.5 31t-111.5 90.5t-52 146.5t-13 199v1086h203zM707 1841l-365 -215l-70 78 l332 258z" />
<glyph unicode="&#xdb;" horiz-adv-x="888" d="M281 1526v-920q0 -125 4 -214t20.5 -146.5t49 -84t89.5 -26.5q55 0 88 26.5t49.5 84t20.5 146.5t4 214v920h205v-1086q0 -111 -12.5 -196.5t-50 -146t-110.5 -92.5t-194 -32q-117 0 -189.5 31t-111.5 90.5t-52 146.5t-13 199v1086h203zM219 1733l156 260h131l160 -262 l-107 -51l-120 213l-121 -217z" />
<glyph unicode="&#xdc;" horiz-adv-x="888" d="M281 1526v-920q0 -125 4 -214t20.5 -146.5t49 -84t89.5 -26.5q55 0 88 26.5t49.5 84t20.5 146.5t4 214v920h205v-1086q0 -111 -12.5 -196.5t-50 -146t-110.5 -92.5t-194 -32q-117 0 -189.5 31t-111.5 90.5t-52 146.5t-13 199v1086h203zM360 1669h-168v246h168v-246z M694 1669h-168v246h168v-246z" />
<glyph unicode="&#xdd;" horiz-adv-x="782" d="M399 854l193 672h170l-268 -883v-643h-201v643l-275 883h199zM652 1841l-365 -215l-70 78l332 258z" />
<glyph unicode="&#xde;" horiz-adv-x="849" d="M285 1227h-4q164 0 268 -11.5t164.5 -53.5t83 -125t22.5 -224q0 -135 -20.5 -227t-71.5 -149.5t-140 -82t-227 -24.5h-75v-330h-203v1526h203v-299zM283 1061v-574h102q133 0 183 77t50 237q0 143 -49 201.5t-178 58.5h-108z" />
<glyph unicode="&#xdf;" horiz-adv-x="911" d="M424 1649q123 0 197.5 -33t113.5 -88t51.5 -130t12.5 -159q0 -90 -10.5 -152.5t-32 -104.5t-58 -67.5t-88.5 -40.5q68 -10 116 -32.5t79 -67.5t44 -116.5t13 -182.5q0 -135 -8 -230t-51 -155.5t-133 -88.5t-254 -28v158q82 0 130 14.5t73.5 54.5t32.5 107.5t7 175.5 q0 68 -7 122t-30.5 93t-65.5 60.5t-110 23.5l-4 152q53 0 85 17.5t49.5 51t22.5 86t5 123.5q0 76 -6 130.5t-24.5 88t-53.5 49t-90 15.5q-49 0 -78.5 -17.5t-47 -62.5t-24 -123t-6.5 -198v-1094h-192v1217q0 115 17.5 196.5t57.5 133.5t105.5 77t161.5 25z" />
<glyph unicode="&#xe0;" horiz-adv-x="808" d="M391 1130q106 0 172 -24.5t102.5 -74.5t49 -125t12.5 -173v-518q0 -59 23.5 -73.5t52.5 -14.5l-17 -127q-104 0 -151 36t-57 87q-39 -68 -100.5 -107t-176.5 -39q-74 0 -121 26t-75.5 69t-40 97t-11.5 112q0 109 16.5 183.5t67.5 120.5t147.5 65.5t256.5 19.5v84 q0 57 -4.5 99t-19.5 69.5t-44 40t-78 12.5q-84 0 -111.5 -45t-35.5 -150l-162 15q6 86 19.5 149.5t45 105.5t89 61t151.5 19zM541 557q-98 -6 -157.5 -17.5t-90.5 -39t-41 -76.5t-10 -131q0 -84 22.5 -128t85.5 -44q80 0 126 51t65 147v238zM240 1577l332 -260l-68 -76 l-367 217z" />
<glyph unicode="&#xe1;" horiz-adv-x="808" d="M391 1130q106 0 172 -24.5t102.5 -74.5t49 -125t12.5 -173v-518q0 -59 23.5 -73.5t52.5 -14.5l-17 -127q-104 0 -151 36t-57 87q-39 -68 -100.5 -107t-176.5 -39q-74 0 -121 26t-75.5 69t-40 97t-11.5 112q0 109 16.5 183.5t67.5 120.5t147.5 65.5t256.5 19.5v84 q0 57 -4.5 99t-19.5 69.5t-44 40t-78 12.5q-84 0 -111.5 -45t-35.5 -150l-162 15q6 86 19.5 149.5t45 105.5t89 61t151.5 19zM541 557q-98 -6 -157.5 -17.5t-90.5 -39t-41 -76.5t-10 -131q0 -84 22.5 -128t85.5 -44q80 0 126 51t65 147v238zM668 1427l-365 -215l-70 78 l332 258z" />
<glyph unicode="&#xe2;" horiz-adv-x="808" d="M391 1130q106 0 172 -24.5t102.5 -74.5t49 -125t12.5 -173v-518q0 -59 23.5 -73.5t52.5 -14.5l-17 -127q-104 0 -151 36t-57 87q-39 -68 -100.5 -107t-176.5 -39q-74 0 -121 26t-75.5 69t-40 97t-11.5 112q0 109 16.5 183.5t67.5 120.5t147.5 65.5t256.5 19.5v84 q0 57 -4.5 99t-19.5 69.5t-44 40t-78 12.5q-84 0 -111.5 -45t-35.5 -150l-162 15q6 86 19.5 149.5t45 105.5t89 61t151.5 19zM541 557q-98 -6 -157.5 -17.5t-90.5 -39t-41 -76.5t-10 -131q0 -84 22.5 -128t85.5 -44q80 0 126 51t65 147v238zM180 1319l156 260h131l160 -262 l-107 -51l-120 213l-121 -217z" />
<glyph unicode="&#xe3;" horiz-adv-x="808" d="M391 1130q106 0 172 -24.5t102.5 -74.5t49 -125t12.5 -173v-518q0 -59 23.5 -73.5t52.5 -14.5l-17 -127q-104 0 -151 36t-57 87q-39 -68 -100.5 -107t-176.5 -39q-74 0 -121 26t-75.5 69t-40 97t-11.5 112q0 109 16.5 183.5t67.5 120.5t147.5 65.5t256.5 19.5v84 q0 57 -4.5 99t-19.5 69.5t-44 40t-78 12.5q-84 0 -111.5 -45t-35.5 -150l-162 15q6 86 19.5 149.5t45 105.5t89 61t151.5 19zM541 557q-98 -6 -157.5 -17.5t-90.5 -39t-41 -76.5t-10 -131q0 -84 22.5 -128t85.5 -44q80 0 126 51t65 147v238zM71 1346q23 92 71 131t110 39 q41 0 79.5 -15.5t73.5 -34.5l67 -33q32 -15 60 -16q57 0 78 113l121 -39q-25 -98 -76 -140t-113 -42q-41 0 -77.5 14t-72.5 32l-68 31q-32 14 -60 15q-25 0 -44.5 -29t-35.5 -82z" />
<glyph unicode="&#xe4;" horiz-adv-x="808" d="M391 1130q106 0 172 -24.5t102.5 -74.5t49 -125t12.5 -173v-518q0 -59 23.5 -73.5t52.5 -14.5l-17 -127q-104 0 -151 36t-57 87q-39 -68 -100.5 -107t-176.5 -39q-74 0 -121 26t-75.5 69t-40 97t-11.5 112q0 109 16.5 183.5t67.5 120.5t147.5 65.5t256.5 19.5v84 q0 57 -4.5 99t-19.5 69.5t-44 40t-78 12.5q-84 0 -111.5 -45t-35.5 -150l-162 15q6 86 19.5 149.5t45 105.5t89 61t151.5 19zM541 557q-98 -6 -157.5 -17.5t-90.5 -39t-41 -76.5t-10 -131q0 -84 22.5 -128t85.5 -44q80 0 126 51t65 147v238zM321 1255h-168v246h168v-246z M655 1255h-168v246h168v-246z" />
<glyph unicode="&#xe5;" horiz-adv-x="808" d="M391 1130q106 0 172 -24.5t102.5 -74.5t49 -125t12.5 -173v-518q0 -59 23.5 -73.5t52.5 -14.5l-17 -127q-104 0 -151 36t-57 87q-39 -68 -100.5 -107t-176.5 -39q-74 0 -121 26t-75.5 69t-40 97t-11.5 112q0 109 16.5 183.5t67.5 120.5t147.5 65.5t256.5 19.5v84 q0 57 -4.5 99t-19.5 69.5t-44 40t-78 12.5q-84 0 -111.5 -45t-35.5 -150l-162 15q6 86 19.5 149.5t45 105.5t89 61t151.5 19zM541 557q-98 -6 -157.5 -17.5t-90.5 -39t-41 -76.5t-10 -131q0 -84 22.5 -128t85.5 -44q80 0 126 51t65 147v238zM608 1368q0 -176 -203 -176 q-205 0 -205 176q0 174 205 174q203 0 203 -174zM528 1368q0 104 -123 104t-123 -104t123 -105q123 1 123 105z" />
<glyph unicode="&#xe6;" horiz-adv-x="1331" d="M911 1130q131 0 204 -46t106.5 -117.5t41 -159.5t7.5 -172v-86h-537q0 -84 5 -160t23.5 -134t58.5 -92t112 -34q102 0 137 56.5t45 164.5l156 -22q-10 -86 -33 -151.5t-62.5 -109.5t-102 -67t-152.5 -23q-68 0 -115 13.5t-80 38t-53.5 58.5t-34.5 77q-16 -41 -40 -76 t-61.5 -59.5t-93 -38t-133.5 -13.5q-74 0 -121 27t-75.5 70t-40 97t-11.5 110q0 109 16.5 182.5t68 119.5t147.5 66.5t256 20.5v84q0 57 -4 99t-19.5 69.5t-44 40t-78.5 12.5q-43 0 -69.5 -11.5t-43 -36t-23.5 -61.5t-11 -86l-162 15q6 86 19.5 149.5t45 105.5t89 61 t151.5 19q111 0 170.5 -37.5t79.5 -103.5q27 66 93.5 103.5t168.5 37.5zM549 557q-98 -6 -157.5 -17.5t-90.5 -39t-40 -76.5t-9 -131q0 -84 21.5 -128t84.5 -44q82 0 127 51t64 147v238zM915 993q-61 0 -96 -24.5t-53 -67.5t-23.5 -103.5t-7.5 -133.5h357q0 63 -2.5 123.5 t-18.5 105.5t-52 72.5t-104 27.5z" />
<glyph unicode="&#xe7;" horiz-adv-x="792" d="M356 -18q-109 8 -168 58t-87.5 127t-34 177t-5.5 211q0 119 6.5 223.5t42 182t110.5 123.5t210 46q86 0 142.5 -19t91 -62t51 -113t20.5 -170l-157 -25q-8 127 -36 181.5t-112 54.5q-66 0 -101.5 -28.5t-53 -84t-20.5 -133.5t-3 -176t3 -177t18.5 -134.5t48 -85 t92.5 -29.5q51 0 82.5 18.5t49 52t26 83t12.5 110.5l157 -16q-4 -74 -15 -144.5t-44 -126t-92.5 -91t-159.5 -38.5l-4 -65q92 0 127 -44t35 -116t-58.5 -111.5t-140.5 -39.5q-37 0 -76 8t-77 24l26 62q51 -23 103 -23q47 0 82.5 24.5t35.5 76.5q0 51 -34.5 71.5t-110.5 24.5 z" />
<glyph unicode="&#xe8;" horiz-adv-x="841" d="M424 1130q131 0 203.5 -45t107.5 -116.5t41 -159.5t6 -174v-86h-538q0 -84 5 -160t24.5 -134t59.5 -92t111 -34q100 0 136 59.5t47 161.5l155 -22q-10 -86 -32.5 -151.5t-62.5 -109.5t-102.5 -67t-152.5 -23q-133 0 -206.5 48.5t-110.5 128t-45.5 183t-8.5 214.5 q0 119 8.5 225.5t44.5 184t108.5 123.5t201.5 46zM426 993q-61 0 -95 -24.5t-52.5 -67.5t-23.5 -103.5t-7 -133.5h354v81q0 51 -7 96.5t-25.5 79t-53.5 53t-90 19.5zM256 1577l332 -260l-68 -76l-367 217z" />
<glyph unicode="&#xe9;" horiz-adv-x="841" d="M424 1130q131 0 203.5 -45t107.5 -116.5t41 -159.5t6 -174v-86h-538q0 -84 5 -160t24.5 -134t59.5 -92t111 -34q100 0 136 59.5t47 161.5l155 -22q-10 -86 -32.5 -151.5t-62.5 -109.5t-102.5 -67t-152.5 -23q-133 0 -206.5 48.5t-110.5 128t-45.5 183t-8.5 214.5 q0 119 8.5 225.5t44.5 184t108.5 123.5t201.5 46zM426 993q-61 0 -95 -24.5t-52.5 -67.5t-23.5 -103.5t-7 -133.5h354v81q0 51 -7 96.5t-25.5 79t-53.5 53t-90 19.5zM684 1427l-365 -215l-70 78l332 258z" />
<glyph unicode="&#xea;" horiz-adv-x="841" d="M424 1130q131 0 203.5 -45t107.5 -116.5t41 -159.5t6 -174v-86h-538q0 -84 5 -160t24.5 -134t59.5 -92t111 -34q100 0 136 59.5t47 161.5l155 -22q-10 -86 -32.5 -151.5t-62.5 -109.5t-102.5 -67t-152.5 -23q-133 0 -206.5 48.5t-110.5 128t-45.5 183t-8.5 214.5 q0 119 8.5 225.5t44.5 184t108.5 123.5t201.5 46zM426 993q-61 0 -95 -24.5t-52.5 -67.5t-23.5 -103.5t-7 -133.5h354v81q0 51 -7 96.5t-25.5 79t-53.5 53t-90 19.5zM196 1319l156 260h131l160 -262l-107 -51l-120 213l-121 -217z" />
<glyph unicode="&#xeb;" horiz-adv-x="841" d="M424 1130q131 0 203.5 -45t107.5 -116.5t41 -159.5t6 -174v-86h-538q0 -84 5 -160t24.5 -134t59.5 -92t111 -34q100 0 136 59.5t47 161.5l155 -22q-10 -86 -32.5 -151.5t-62.5 -109.5t-102.5 -67t-152.5 -23q-133 0 -206.5 48.5t-110.5 128t-45.5 183t-8.5 214.5 q0 119 8.5 225.5t44.5 184t108.5 123.5t201.5 46zM426 993q-61 0 -95 -24.5t-52.5 -67.5t-23.5 -103.5t-7 -133.5h354v81q0 51 -7 96.5t-25.5 79t-53.5 53t-90 19.5zM338 1255h-168v246h168v-246zM672 1255h-168v246h168v-246z" />
<glyph unicode="&#xec;" horiz-adv-x="358" d="M21 1577l332 -260l-68 -76l-367 217zM276 0h-194v1112h194v-1112z" />
<glyph unicode="&#xed;" horiz-adv-x="358" d="M447 1427l-365 -215l-70 78l332 258zM276 0h-194v1112h194v-1112z" />
<glyph unicode="&#xee;" horiz-adv-x="358" d="M276 0h-194v1112h194v-1112zM-41 1319l156 260h131l160 -262l-107 -51l-120 213l-121 -217z" />
<glyph unicode="&#xef;" horiz-adv-x="358" d="M100 1255h-168v246h168v-246zM434 1255h-168v246h168v-246zM276 0h-194v1112h194v-1112z" />
<glyph unicode="&#xf0;" horiz-adv-x="919" d="M754 1393q45 -129 54 -326t9 -453q0 -150 -6 -268.5t-42 -200.5t-112.5 -125t-218.5 -43q-141 0 -217 42t-111.5 115t-42 172.5t-6.5 213.5q0 115 5.5 214.5t34 173t90 115.5t171.5 42q115 0 180.5 -20.5t102.5 -43.5q-2 78 -11 161t-38 143l-176 -95l-27 84l162 88 q-31 45 -77 70t-116 27l35 147q111 -6 195 -41t131 -115l106 60l29 -84zM418 909q-59 0 -93 -23.5t-49.5 -70.5t-18.5 -120.5t-3 -174.5q0 -102 3 -176t21.5 -121t55.5 -70.5t104 -23.5q68 0 105 23.5t55 70.5t21.5 121t3.5 176q0 119 -6.5 195t-28 119t-61 59t-109.5 16z " />
<glyph unicode="&#xf1;" horiz-adv-x="882" d="M244 1112q2 -12 5 -32.5t6 -45t5 -47t2 -37.5q49 86 119 133t176 47q74 0 121 -24.5t74.5 -66.5t38 -95t10.5 -110v-834h-193v844q0 61 -32.5 96t-96.5 35q-72 0 -116 -41t-89 -133v-801h-192v1112h162zM110 1346q23 92 71 131t110 39q41 0 79.5 -15.5t73.5 -34.5l67 -33 q32 -15 60 -16q57 0 78 113l121 -39q-25 -98 -76 -140t-113 -42q-41 0 -77.5 14t-72.5 32l-68 31q-32 14 -60 15q-25 0 -44.5 -29t-35.5 -82z" />
<glyph unicode="&#xf2;" horiz-adv-x="878" d="M438 1130q141 0 218 -47t113 -126.5t42 -185t6 -220.5t-6 -218.5t-42 -182t-112.5 -126t-218.5 -47.5q-141 0 -217 47.5t-111.5 126t-42 182t-6.5 218.5t6.5 220.5t42 185t112.5 126.5t216 47zM438 975q-68 0 -104.5 -24.5t-55 -77t-21.5 -132t-3 -190.5t3 -189.5 t21.5 -131t55.5 -77t104 -24.5q68 0 105 24.5t55 77t21.5 131t3.5 189.5t-3.5 190.5t-21.5 132t-55 77t-105 24.5zM275 1577l332 -260l-68 -76l-367 217z" />
<glyph unicode="&#xf3;" horiz-adv-x="878" d="M438 1130q141 0 218 -47t113 -126.5t42 -185t6 -220.5t-6 -218.5t-42 -182t-112.5 -126t-218.5 -47.5q-141 0 -217 47.5t-111.5 126t-42 182t-6.5 218.5t6.5 220.5t42 185t112.5 126.5t216 47zM438 975q-68 0 -104.5 -24.5t-55 -77t-21.5 -132t-3 -190.5t3 -189.5 t21.5 -131t55.5 -77t104 -24.5q68 0 105 24.5t55 77t21.5 131t3.5 189.5t-3.5 190.5t-21.5 132t-55 77t-105 24.5zM701 1427l-365 -215l-70 78l332 258z" />
<glyph unicode="&#xf4;" horiz-adv-x="878" d="M438 1130q141 0 218 -47t113 -126.5t42 -185t6 -220.5t-6 -218.5t-42 -182t-112.5 -126t-218.5 -47.5q-141 0 -217 47.5t-111.5 126t-42 182t-6.5 218.5t6.5 220.5t42 185t112.5 126.5t216 47zM438 975q-68 0 -104.5 -24.5t-55 -77t-21.5 -132t-3 -190.5t3 -189.5 t21.5 -131t55.5 -77t104 -24.5q68 0 105 24.5t55 77t21.5 131t3.5 189.5t-3.5 190.5t-21.5 132t-55 77t-105 24.5zM215 1319l156 260h131l160 -262l-107 -51l-120 213l-121 -217z" />
<glyph unicode="&#xf5;" horiz-adv-x="878" d="M438 1130q141 0 218 -47t113 -126.5t42 -185t6 -220.5t-6 -218.5t-42 -182t-112.5 -126t-218.5 -47.5q-141 0 -217 47.5t-111.5 126t-42 182t-6.5 218.5t6.5 220.5t42 185t112.5 126.5t216 47zM438 975q-68 0 -104.5 -24.5t-55 -77t-21.5 -132t-3 -190.5t3 -189.5 t21.5 -131t55.5 -77t104 -24.5q68 0 105 24.5t55 77t21.5 131t3.5 189.5t-3.5 190.5t-21.5 132t-55 77t-105 24.5zM108 1346q23 92 71 131t110 39q41 0 79.5 -15.5t73.5 -34.5l67 -33q32 -15 60 -16q57 0 78 113l121 -39q-25 -98 -76 -140t-113 -42q-41 0 -77.5 14t-72.5 32 l-68 31q-32 14 -60 15q-25 0 -44.5 -29t-35.5 -82z" />
<glyph unicode="&#xf6;" horiz-adv-x="878" d="M438 1130q141 0 218 -47t113 -126.5t42 -185t6 -220.5t-6 -218.5t-42 -182t-112.5 -126t-218.5 -47.5q-141 0 -217 47.5t-111.5 126t-42 182t-6.5 218.5t6.5 220.5t42 185t112.5 126.5t216 47zM438 975q-68 0 -104.5 -24.5t-55 -77t-21.5 -132t-3 -190.5t3 -189.5 t21.5 -131t55.5 -77t104 -24.5q68 0 105 24.5t55 77t21.5 131t3.5 189.5t-3.5 190.5t-21.5 132t-55 77t-105 24.5zM356 1255h-168v246h168v-246zM690 1255h-168v246h168v-246z" />
<glyph unicode="&#xf7;" horiz-adv-x="1085" d="M61 696v129h963v-129h-963zM639 203h-193v266h193v-266zM639 1049h-193v266h193v-266z" />
<glyph unicode="&#xf8;" horiz-adv-x="878" d="M438 1130q86 0 148 -18l32 88l97 -45l-33 -90q49 -37 76.5 -91t41 -121t15.5 -143.5t2 -158.5q0 -115 -6 -218.5t-42 -182t-112.5 -126t-218.5 -47.5q-82 0 -143 19l-27 -74l-94 39l27 76q-53 37 -81 91t-41 120.5t-15.5 143.5t-2.5 159q0 115 6.5 220.5t42 185 t112.5 126.5t216 47zM438 975q-68 0 -104.5 -24.5t-55 -77t-21.5 -132t-3 -190.5q0 -104 2 -181t18 -128l256 714q-37 19 -92 19zM623 551q0 98 -3.5 173t-15.5 126l-256 -705q33 -16 90 -16q68 0 105 24.5t55 77t21.5 131t3.5 189.5z" />
<glyph unicode="&#xf9;" horiz-adv-x="843" d="M623 0q-4 10 -8 32l-6 45q-3 24 -4 46t-1 37q-43 -86 -107.5 -132t-170.5 -46q-74 0 -121 24.5t-75 66.5t-38 95t-10 111v833h190v-846q0 -61 31 -96t92 -35q72 0 115 41t80 133v803h194v-1112h-161zM258 1577l332 -260l-68 -76l-367 217z" />
<glyph unicode="&#xfa;" horiz-adv-x="843" d="M623 0q-4 10 -8 32l-6 45q-3 24 -4 46t-1 37q-43 -86 -107.5 -132t-170.5 -46q-74 0 -121 24.5t-75 66.5t-38 95t-10 111v833h190v-846q0 -61 31 -96t92 -35q72 0 115 41t80 133v803h194v-1112h-161zM684 1427l-365 -215l-70 78l332 258z" />
<glyph unicode="&#xfb;" horiz-adv-x="843" d="M623 0q-4 10 -8 32l-6 45q-3 24 -4 46t-1 37q-43 -86 -107.5 -132t-170.5 -46q-74 0 -121 24.5t-75 66.5t-38 95t-10 111v833h190v-846q0 -61 31 -96t92 -35q72 0 115 41t80 133v803h194v-1112h-161zM198 1319l156 260h131l160 -262l-107 -51l-120 213l-121 -217z" />
<glyph unicode="&#xfc;" horiz-adv-x="843" d="M623 0q-4 10 -8 32l-6 45q-3 24 -4 46t-1 37q-43 -86 -107.5 -132t-170.5 -46q-74 0 -121 24.5t-75 66.5t-38 95t-10 111v833h190v-846q0 -61 31 -96t92 -35q72 0 115 41t80 133v803h194v-1112h-161zM338 1255h-168v246h168v-246zM672 1255h-168v246h168v-246z" />
<glyph unicode="&#xfd;" horiz-adv-x="757" d="M401 303l156 809h182l-288 -1194q-18 -78 -41 -144.5t-59 -115.5t-89 -78t-131 -29q-43 0 -77 7.5t-66 27.5l41 81l41 81q14 -10 29.5 -16t31.5 -6q43 0 91 61t83 221l-289 1104h213zM641 1427l-365 -215l-70 78l332 258z" />
<glyph unicode="&#xfe;" horiz-adv-x="833" d="M786 604q0 -129 -5 -242.5t-33.5 -198.5t-90 -133t-174.5 -48q-80 0 -132 34.5t-81 96.5v-562h-188v2063l197 35v-664q14 25 37.5 51.5t56.5 47t77 33.5t101 13q86 0 133 -38.5t70.5 -108.5t27.5 -166t4 -213zM436 133q51 0 83 22.5t49.5 77t22.5 144.5t5 225 q0 111 -5 183.5t-19.5 115.5t-40 59.5t-66.5 16.5q-74 0 -124 -43t-73 -109v-563q4 -16 19.5 -37.5t39 -42t51 -35t58.5 -14.5z" />
<glyph unicode="&#xff;" horiz-adv-x="757" d="M401 303l156 809h182l-288 -1194q-18 -78 -41 -144.5t-59 -115.5t-89 -78t-131 -29q-43 0 -77 7.5t-66 27.5l41 81l41 81q14 -10 29.5 -16t31.5 -6q43 0 91 61t83 221l-289 1104h213zM295 1255h-168v246h168v-246zM629 1255h-168v246h168v-246z" />
<glyph unicode="&#x100;" horiz-adv-x="862" d="M559 367h-285l-63 -367h-193l304 1526h215l307 -1526h-223zM289 528h252l-123 668zM790 1827v-133h-721v133h721z" />
<glyph unicode="&#x101;" horiz-adv-x="808" d="M391 1130q106 0 172 -24.5t102.5 -74.5t49 -125t12.5 -173v-518q0 -59 23.5 -73.5t52.5 -14.5l-17 -127q-104 0 -151 36t-57 87q-39 -68 -100.5 -107t-176.5 -39q-74 0 -121 26t-75.5 69t-40 97t-11.5 112q0 109 16.5 183.5t67.5 120.5t147.5 65.5t256.5 19.5v84 q0 57 -4.5 99t-19.5 69.5t-44 40t-78 12.5q-84 0 -111.5 -45t-35.5 -150l-162 15q6 86 19.5 149.5t45 105.5t89 61t151.5 19zM541 557q-98 -6 -157.5 -17.5t-90.5 -39t-41 -76.5t-10 -131q0 -84 22.5 -128t85.5 -44q80 0 126 51t65 147v238zM768 1413v-133h-721v133h721z " />
<glyph unicode="&#x102;" horiz-adv-x="862" d="M559 367h-285l-63 -367h-193l304 1526h215l307 -1526h-223zM289 528h252l-123 668zM737 1923q-29 -121 -105.5 -191.5t-195.5 -70.5t-204 71t-107 193l100 35q8 -39 25.5 -74.5t44 -63.5t62.5 -44t79 -16q86 0 141.5 60t71.5 142z" />
<glyph unicode="&#x103;" horiz-adv-x="808" d="M391 1130q106 0 172 -24.5t102.5 -74.5t49 -125t12.5 -173v-518q0 -59 23.5 -73.5t52.5 -14.5l-17 -127q-104 0 -151 36t-57 87q-39 -68 -100.5 -107t-176.5 -39q-74 0 -121 26t-75.5 69t-40 97t-11.5 112q0 109 16.5 183.5t67.5 120.5t147.5 65.5t256.5 19.5v84 q0 57 -4.5 99t-19.5 69.5t-44 40t-78 12.5q-84 0 -111.5 -45t-35.5 -150l-162 15q6 86 19.5 149.5t45 105.5t89 61t151.5 19zM541 557q-98 -6 -157.5 -17.5t-90.5 -39t-41 -76.5t-10 -131q0 -84 22.5 -128t85.5 -44q80 0 126 51t65 147v238zM710 1509 q-29 -121 -105.5 -191.5t-195.5 -70.5t-204 71t-107 193l100 35q8 -39 25.5 -74.5t44 -63.5t62.5 -44t79 -16q86 0 141.5 60t71.5 142z" />
<glyph unicode="&#x104;" horiz-adv-x="862" d="M559 367h-285l-63 -367h-193l304 1526h215l307 -1526q-25 -33 -46.5 -67.5t-38 -65.5t-26.5 -56.5t-10 -39.5q0 -33 24.5 -46.5t61.5 -13.5q39 0 84 12.5t86 34.5l-59 -149q-115 -57 -203 -58q-51 0 -83 24t-32 75q0 20 7 47t25.5 66.5t51.5 97t86 139.5h-151zM289 528 h252l-123 668z" />
<glyph unicode="&#x105;" horiz-adv-x="808" d="M391 1130q106 0 172 -24.5t102.5 -74.5t49 -125t12.5 -173v-518q0 -59 23.5 -73.5t52.5 -14.5l-17 -127q-47 -70 -83.5 -131.5t-36.5 -97.5q0 -33 24.5 -46.5t61.5 -13.5t83 12.5t87 34.5l-60 -149q-115 -57 -203 -58q-51 0 -82.5 24t-31.5 75q0 20 7 47t25.5 66.5 t51.5 97t86 139.5q-66 6 -97.5 46t-39.5 77q-39 -68 -100.5 -107t-176.5 -39q-74 0 -121 26t-75.5 69t-40 97t-11.5 112q0 109 16.5 183.5t67.5 120.5t147.5 65.5t256.5 19.5v84q0 121 -29 171t-117 50q-84 0 -111.5 -45t-35.5 -150l-162 15q6 86 19.5 149.5t45 105.5t89 61 t151.5 19zM541 557q-98 -6 -157.5 -17.5t-90.5 -39t-41 -76.5t-10 -131q0 -84 22.5 -128t85.5 -44q80 0 126 51t65 147v238z" />
<glyph unicode="&#x106;" horiz-adv-x="909" d="M467 1393q-68 0 -106.5 -36t-57 -112t-24 -195.5t-5.5 -287.5q0 -170 5.5 -289t24 -194.5t57 -109.5t106.5 -34t104.5 20.5t54 66.5t21.5 122t8 188l203 -16q-10 -139 -21.5 -240.5t-49 -169t-111.5 -100.5t-209 -33q-147 0 -229 50.5t-121 148.5t-47.5 245.5t-8.5 344.5 q0 195 8.5 342t47.5 247.5t120.5 150.5t229.5 50q137 0 214 -27.5t115 -91t48 -165t14 -248.5l-199 -27q-4 127 -9 205t-23.5 121t-55 58.5t-104.5 15.5zM734 1841l-365 -215l-70 78l332 258z" />
<glyph unicode="&#x107;" horiz-adv-x="792" d="M430 1130q86 0 142.5 -19t91 -62t51 -113t20.5 -170l-157 -25q-8 127 -36 181.5t-112 54.5q-66 0 -101.5 -28.5t-53 -84t-20.5 -133.5t-3 -176t3 -177t18.5 -134.5t48 -85t92.5 -29.5q51 0 82.5 18.5t49 52t26 83t12.5 110.5l157 -16q-4 -74 -15 -145.5t-45 -128 t-97.5 -91.5t-169.5 -35q-129 0 -201 46.5t-105.5 126t-40 184t-6.5 221.5q0 119 6.5 223.5t42 182t110.5 123.5t210 46zM674 1427l-365 -215l-70 78l332 258z" />
<glyph unicode="&#x108;" horiz-adv-x="909" d="M467 1393q-68 0 -106.5 -36t-57 -112t-24 -195.5t-5.5 -287.5q0 -170 5.5 -289t24 -194.5t57 -109.5t106.5 -34t104.5 20.5t54 66.5t21.5 122t8 188l203 -16q-10 -139 -21.5 -240.5t-49 -169t-111.5 -100.5t-209 -33q-147 0 -229 50.5t-121 148.5t-47.5 245.5t-8.5 344.5 q0 195 8.5 342t47.5 247.5t120.5 150.5t229.5 50q137 0 214 -27.5t115 -91t48 -165t14 -248.5l-199 -27q-4 127 -9 205t-23.5 121t-55 58.5t-104.5 15.5zM229 1733l156 260h131l160 -262l-107 -51l-120 213l-121 -217z" />
<glyph unicode="&#x109;" horiz-adv-x="792" d="M430 1130q86 0 142.5 -19t91 -62t51 -113t20.5 -170l-157 -25q-8 127 -36 181.5t-112 54.5q-66 0 -101.5 -28.5t-53 -84t-20.5 -133.5t-3 -176t3 -177t18.5 -134.5t48 -85t92.5 -29.5q51 0 82.5 18.5t49 52t26 83t12.5 110.5l157 -16q-4 -74 -15 -145.5t-45 -128 t-97.5 -91.5t-169.5 -35q-129 0 -201 46.5t-105.5 126t-40 184t-6.5 221.5q0 119 6.5 223.5t42 182t110.5 123.5t210 46zM172 1319l156 260h131l160 -262l-107 -51l-120 213l-121 -217z" />
<glyph unicode="&#x10a;" horiz-adv-x="909" d="M467 1393q-68 0 -106.5 -36t-57 -112t-24 -195.5t-5.5 -287.5q0 -170 5.5 -289t24 -194.5t57 -109.5t106.5 -34t104.5 20.5t54 66.5t21.5 122t8 188l203 -16q-10 -139 -21.5 -240.5t-49 -169t-111.5 -100.5t-209 -33q-147 0 -229 50.5t-121 148.5t-47.5 245.5t-8.5 344.5 q0 195 8.5 342t47.5 247.5t120.5 150.5t229.5 50q137 0 214 -27.5t115 -91t48 -165t14 -248.5l-199 -27q-4 127 -9 205t-23.5 121t-55 58.5t-104.5 15.5zM538 1669h-168v246h168v-246z" />
<glyph unicode="&#x10b;" horiz-adv-x="792" d="M430 1130q86 0 142.5 -19t91 -62t51 -113t20.5 -170l-157 -25q-8 127 -36 181.5t-112 54.5q-66 0 -101.5 -28.5t-53 -84t-20.5 -133.5t-3 -176t3 -177t18.5 -134.5t48 -85t92.5 -29.5q51 0 82.5 18.5t49 52t26 83t12.5 110.5l157 -16q-4 -74 -15 -145.5t-45 -128 t-97.5 -91.5t-169.5 -35q-129 0 -201 46.5t-105.5 126t-40 184t-6.5 221.5q0 119 6.5 223.5t42 182t110.5 123.5t210 46zM479 1255h-168v246h168v-246z" />
<glyph unicode="&#x10c;" horiz-adv-x="909" d="M467 1393q-68 0 -106.5 -36t-57 -112t-24 -195.5t-5.5 -287.5q0 -170 5.5 -289t24 -194.5t57 -109.5t106.5 -34t104.5 20.5t54 66.5t21.5 122t8 188l203 -16q-10 -139 -21.5 -240.5t-49 -169t-111.5 -100.5t-209 -33q-147 0 -229 50.5t-121 148.5t-47.5 245.5t-8.5 344.5 q0 195 8.5 342t47.5 247.5t120.5 150.5t229.5 50q137 0 214 -27.5t115 -91t48 -165t14 -248.5l-199 -27q-4 127 -9 205t-23.5 121t-55 58.5t-104.5 15.5zM676 1919l-156 -258h-131l-160 260l107 52l119 -213l123 217z" />
<glyph unicode="&#x10d;" horiz-adv-x="792" d="M430 1130q86 0 142.5 -19t91 -62t51 -113t20.5 -170l-157 -25q-8 127 -36 181.5t-112 54.5q-66 0 -101.5 -28.5t-53 -84t-20.5 -133.5t-3 -176t3 -177t18.5 -134.5t48 -85t92.5 -29.5q51 0 82.5 18.5t49 52t26 83t12.5 110.5l157 -16q-4 -74 -15 -145.5t-45 -128 t-97.5 -91.5t-169.5 -35q-129 0 -201 46.5t-105.5 126t-40 184t-6.5 221.5q0 119 6.5 223.5t42 182t110.5 123.5t210 46zM619 1505l-156 -258h-131l-160 260l107 52l119 -213l123 217z" />
<glyph unicode="&#x10e;" d="M424 1526q166 0 261 -48t143.5 -143.5t60.5 -239t12 -333.5q0 -209 -11 -354.5t-57.5 -235.5t-139.5 -131t-255 -41h-356v1526h342zM283 1370v-1202h159q86 0 136.5 32.5t76 104.5t32.5 184.5t7 272.5q0 168 -6 283.5t-31.5 187.5t-80 104.5t-148.5 32.5h-145zM658 1919 l-156 -258h-131l-160 260l107 52l119 -213l123 217z" />
<glyph unicode="&#x10f;" horiz-adv-x="1097" d="M793 0h-162q-4 12 -6 32.5l-4.5 44t-3.5 45t-1 36.5q-33 -78 -93 -128t-165 -50q-106 0 -165.5 43t-89 116.5t-36 172t-6.5 210.5q0 137 7.5 250t38 192.5t93 122.5t173.5 43q90 0 147.5 -40.5t81.5 -94.5v619l191 35v-1649zM418 975q-57 0 -89 -25.5t-48.5 -79 t-20.5 -138.5t-4 -204q0 -102 3 -177t16.5 -124t42 -73.5t79.5 -24.5q49 0 83 16.5t57.5 44t39 65.5t25.5 81v510q-27 59 -76 94t-108 35zM1089 1480q0 -53 -31.5 -108.5t-78.5 -96.5l-49 33q29 29 47 65t18 77h-88v198h182v-168z" />
<glyph unicode="&#x110;" d="M8 887h74v639h342q166 0 261 -48t143.5 -143.5t60.5 -239t12 -333.5q0 -209 -11 -354.5t-57.5 -235.5t-139.5 -131t-255 -41h-356v725h-74v162zM283 1370v-483h247l-16 -162h-231v-557h159q86 0 136.5 32.5t76 104.5t32.5 184.5t7 272.5q0 168 -6 283.5t-31.5 187.5 t-80 104.5t-148.5 32.5h-145z" />
<glyph unicode="&#x111;" horiz-adv-x="874" d="M793 1460h65l-16 -129h-49v-1331h-162q-4 12 -6 32.5l-4.5 44t-3.5 45t-1 36.5q-33 -78 -93 -128t-165 -50q-106 0 -165.5 43t-89 116.5t-36 172t-6.5 210.5q0 137 7.5 250t38 192.5t93 122.5t173.5 43q90 0 147.5 -40.5t81.5 -94.5v336h-196l16 129h180v154l191 35v-189 zM418 975q-57 0 -89 -25.5t-48.5 -79t-20.5 -138.5t-4 -204q0 -102 3 -177t16.5 -124t42 -73.5t79.5 -24.5q49 0 83 16.5t57.5 44t39 65.5t25.5 81v510q-27 59 -76 94t-108 35z" />
<glyph unicode="&#x112;" horiz-adv-x="722" d="M668 1526v-160h-383v-481h321l-14 -162h-307v-567h393v-156h-596v1526h586zM725 1827v-133h-721v133h721z" />
<glyph unicode="&#x113;" horiz-adv-x="841" d="M424 1130q131 0 203.5 -45t107.5 -116.5t41 -159.5t6 -174v-86h-538q0 -84 5 -160t24.5 -134t59.5 -92t111 -34q100 0 136 59.5t47 161.5l155 -22q-10 -86 -32.5 -151.5t-62.5 -109.5t-102.5 -67t-152.5 -23q-133 0 -206.5 48.5t-110.5 128t-45.5 183t-8.5 214.5 q0 119 8.5 225.5t44.5 184t108.5 123.5t201.5 46zM426 993q-61 0 -95 -24.5t-52.5 -67.5t-23.5 -103.5t-7 -133.5h354v81q0 51 -7 96.5t-25.5 79t-53.5 53t-90 19.5zM780 1413v-133h-721v133h721z" />
<glyph unicode="&#x114;" horiz-adv-x="722" d="M668 1526v-160h-383v-481h321l-14 -162h-307v-567h393v-156h-596v1526h586zM667 1923q-29 -121 -105.5 -191.5t-195.5 -70.5t-204 71t-107 193l100 35q8 -39 25.5 -74.5t44 -63.5t62.5 -44t79 -16q86 0 141.5 60t71.5 142z" />
<glyph unicode="&#x115;" horiz-adv-x="841" d="M424 1130q131 0 203.5 -45t107.5 -116.5t41 -159.5t6 -174v-86h-538q0 -84 5 -160t24.5 -134t59.5 -92t111 -34q100 0 136 59.5t47 161.5l155 -22q-10 -86 -32.5 -151.5t-62.5 -109.5t-102.5 -67t-152.5 -23q-133 0 -206.5 48.5t-110.5 128t-45.5 183t-8.5 214.5 q0 119 8.5 225.5t44.5 184t108.5 123.5t201.5 46zM426 993q-61 0 -95 -24.5t-52.5 -67.5t-23.5 -103.5t-7 -133.5h354v81q0 51 -7 96.5t-25.5 79t-53.5 53t-90 19.5zM727 1509q-29 -121 -105.5 -191.5t-195.5 -70.5t-204 71t-107 193l100 35q8 -39 25.5 -74.5t44 -63.5 t62.5 -44t79 -16q86 0 141.5 60t71.5 142z" />
<glyph unicode="&#x116;" horiz-adv-x="722" d="M668 1526v-160h-383v-481h321l-14 -162h-307v-567h393v-156h-596v1526h586zM444 1669h-168v246h168v-246z" />
<glyph unicode="&#x117;" horiz-adv-x="841" d="M424 1130q131 0 203.5 -45t107.5 -116.5t41 -159.5t6 -174v-86h-538q0 -84 5 -160t24.5 -134t59.5 -92t111 -34q100 0 136 59.5t47 161.5l155 -22q-10 -86 -32.5 -151.5t-62.5 -109.5t-102.5 -67t-152.5 -23q-133 0 -206.5 48.5t-110.5 128t-45.5 183t-8.5 214.5 q0 119 8.5 225.5t44.5 184t108.5 123.5t201.5 46zM426 993q-61 0 -95 -24.5t-52.5 -67.5t-23.5 -103.5t-7 -133.5h354v81q0 51 -7 96.5t-25.5 79t-53.5 53t-90 19.5zM503 1255h-168v246h168v-246z" />
<glyph unicode="&#x118;" horiz-adv-x="722" d="M668 1526v-160h-383v-481h321l-14 -162h-307v-567h393v-156q-25 -33 -46.5 -67.5t-37.5 -65.5t-26.5 -56.5t-10.5 -39.5q0 -33 24.5 -46.5t61.5 -13.5q39 0 84 12.5t86 34.5l-59 -149q-115 -57 -203 -58q-51 0 -83 24t-32 75q0 20 7.5 47t25.5 66.5t51 97t86 139.5h-524 v1526h586z" />
<glyph unicode="&#x119;" horiz-adv-x="841" d="M424 1130q131 0 203.5 -45t107.5 -116.5t41 -159.5t6 -174v-86h-538q0 -84 5 -160t24.5 -134t59.5 -92t111 -34q100 0 136 56.5t47 164.5l155 -22q-16 -129 -60 -212t-138 -116q-47 -68 -84 -132.5t-37 -96.5q0 -33 24.5 -46.5t61.5 -13.5q39 0 84 12.5t86 34.5l-60 -149 q-115 -57 -202 -58q-51 0 -83 24t-32 75q0 45 15.5 88t39 84t51 81t52.5 81l-33 -4q-16 -2 -35 -3q-133 0 -206.5 48.5t-110.5 128t-45.5 183t-8.5 214.5q0 119 8.5 225.5t44.5 184t108.5 123.5t201.5 46zM426 993q-61 0 -95 -24.5t-52.5 -67.5t-23.5 -103.5t-7 -133.5h354 v81q0 51 -7 96.5t-25.5 79t-53.5 53t-90 19.5z" />
<glyph unicode="&#x11a;" horiz-adv-x="722" d="M668 1526v-160h-383v-481h321l-14 -162h-307v-567h393v-156h-596v1526h586zM584 1919l-156 -258h-131l-160 260l107 52l119 -213l123 217z" />
<glyph unicode="&#x11b;" horiz-adv-x="841" d="M424 1130q131 0 203.5 -45t107.5 -116.5t41 -159.5t6 -174v-86h-538q0 -84 5 -160t24.5 -134t59.5 -92t111 -34q100 0 136 59.5t47 161.5l155 -22q-10 -86 -32.5 -151.5t-62.5 -109.5t-102.5 -67t-152.5 -23q-133 0 -206.5 48.5t-110.5 128t-45.5 183t-8.5 214.5 q0 119 8.5 225.5t44.5 184t108.5 123.5t201.5 46zM426 993q-61 0 -95 -24.5t-52.5 -67.5t-23.5 -103.5t-7 -133.5h354v81q0 51 -7 96.5t-25.5 79t-53.5 53t-90 19.5zM643 1505l-156 -258h-131l-160 260l107 52l119 -213l123 217z" />
<glyph unicode="&#x11c;" horiz-adv-x="915" d="M848 782v-782h-150l-18 145q-14 -35 -35.5 -65.5t-54.5 -54t-80 -38t-111 -14.5q-123 0 -191.5 56.5t-100 161t-39 252t-7.5 329.5q0 178 8.5 322.5t47.5 246t120.5 156.5t231.5 55q133 0 207 -26.5t110.5 -84t46 -148.5t15.5 -218l-168 -41q-4 96 -10 164t-26.5 111 t-58.5 62.5t-108 19.5q-76 0 -118 -39t-62.5 -116t-25.5 -193.5t-5 -270.5q0 -143 4 -261t22.5 -201t54.5 -129t99 -46q90 0 145.5 57.5t65.5 149.5v281h-190l27 159h354zM233 1733l156 260h131l160 -262l-107 -51l-120 213l-121 -217z" />
<glyph unicode="&#x11d;" horiz-adv-x="770" d="M702 774q0 -72 -14 -137.5t-47 -115.5t-85 -79.5t-126 -29.5h-37q-18 0 -35 2q-29 -16 -41 -38t-12 -63q0 -35 22.5 -65.5t73.5 -30.5h109q49 0 94 -17.5t81 -54t56.5 -95t20.5 -140.5q0 -195 -78 -277t-246 -82h-172q-131 0 -194.5 72t-63.5 182q0 137 55.5 197.5 t172.5 79.5q-31 12 -54.5 26.5t-39 36t-22.5 52t-7 75.5q0 80 32.5 126t94.5 63q-86 43 -123 123t-37 190q0 63 12 123.5t47 108t96.5 77t157.5 29.5q35 0 64.5 -5t54.5 -13q20 66 48 121t63 88l114 -62q-41 -29 -78.5 -82t-62.5 -108q61 -47 83.5 -123t22.5 -154zM178 -135 q0 -55 13.5 -89t42 -53.5t73.5 -26.5t107 -7q111 0 154.5 42t43.5 144q0 98 -45 130t-143 32q-61 0 -107.5 -6t-77 -24.5t-46 -52.5t-15.5 -89zM393 535q74 0 101.5 53t27.5 182q0 127 -26.5 175t-102.5 48t-101.5 -50t-25.5 -173q0 -125 25.5 -180t101.5 -55zM159 1319 l156 260h131l160 -262l-107 -51l-120 213l-121 -217z" />
<glyph unicode="&#x11e;" horiz-adv-x="915" d="M848 782v-782h-150l-18 145q-14 -35 -35.5 -65.5t-54.5 -54t-80 -38t-111 -14.5q-123 0 -191.5 56.5t-100 161t-39 252t-7.5 329.5q0 178 8.5 322.5t47.5 246t120.5 156.5t231.5 55q133 0 207 -26.5t110.5 -84t46 -148.5t15.5 -218l-168 -41q-4 96 -10 164t-26.5 111 t-58.5 62.5t-108 19.5q-76 0 -118 -39t-62.5 -116t-25.5 -193.5t-5 -270.5q0 -143 4 -261t22.5 -201t54.5 -129t99 -46q90 0 145.5 57.5t65.5 149.5v281h-190l27 159h354zM764 1923q-29 -121 -105.5 -191.5t-195.5 -70.5t-204 71t-107 193l100 35q8 -39 25.5 -74.5t44 -63.5 t62.5 -44t79 -16q86 0 141.5 60t71.5 142z" />
<glyph unicode="&#x11f;" horiz-adv-x="770" d="M702 774q0 -72 -14 -137.5t-47 -115.5t-85 -79.5t-126 -29.5h-37q-18 0 -35 2q-29 -16 -41 -38t-12 -63q0 -35 22.5 -65.5t73.5 -30.5h109q49 0 94 -17.5t81 -54t56.5 -95t20.5 -140.5q0 -195 -78 -277t-246 -82h-172q-131 0 -194.5 72t-63.5 182q0 137 55.5 197.5 t172.5 79.5q-31 12 -54.5 26.5t-39 36t-22.5 52t-7 75.5q0 80 32.5 126t94.5 63q-86 43 -123 123t-37 190q0 63 12 123.5t47 108t96.5 77t157.5 29.5q35 0 64.5 -5t54.5 -13q20 66 48 121t63 88l114 -62q-41 -29 -78.5 -82t-62.5 -108q61 -47 83.5 -123t22.5 -154zM178 -135 q0 -55 13.5 -89t42 -53.5t73.5 -26.5t107 -7q111 0 154.5 42t43.5 144q0 98 -45 130t-143 32q-61 0 -107.5 -6t-77 -24.5t-46 -52.5t-15.5 -89zM393 535q74 0 101.5 53t27.5 182q0 127 -26.5 175t-102.5 48t-101.5 -50t-25.5 -173q0 -125 25.5 -180t101.5 -55zM690 1509 q-29 -121 -105.5 -191.5t-195.5 -70.5t-204 71t-107 193l100 35q8 -39 25.5 -74.5t44 -63.5t62.5 -44t79 -16q86 0 141.5 60t71.5 142z" />
<glyph unicode="&#x120;" horiz-adv-x="915" d="M848 782v-782h-150l-18 145q-14 -35 -35.5 -65.5t-54.5 -54t-80 -38t-111 -14.5q-123 0 -191.5 56.5t-100 161t-39 252t-7.5 329.5q0 178 8.5 322.5t47.5 246t120.5 156.5t231.5 55q133 0 207 -26.5t110.5 -84t46 -148.5t15.5 -218l-168 -41q-4 96 -10 164t-26.5 111 t-58.5 62.5t-108 19.5q-76 0 -118 -39t-62.5 -116t-25.5 -193.5t-5 -270.5q0 -143 4 -261t22.5 -201t54.5 -129t99 -46q90 0 145.5 57.5t65.5 149.5v281h-190l27 159h354zM540 1669h-168v246h168v-246z" />
<glyph unicode="&#x121;" horiz-adv-x="770" d="M702 774q0 -72 -14 -137.5t-47 -115.5t-85 -79.5t-126 -29.5h-37q-18 0 -35 2q-29 -16 -41 -38t-12 -63q0 -35 22.5 -65.5t73.5 -30.5h109q49 0 94 -17.5t81 -54t56.5 -95t20.5 -140.5q0 -195 -78 -277t-246 -82h-172q-131 0 -194.5 72t-63.5 182q0 137 55.5 197.5 t172.5 79.5q-31 12 -54.5 26.5t-39 36t-22.5 52t-7 75.5q0 80 32.5 126t94.5 63q-86 43 -123 123t-37 190q0 63 12 123.5t47 108t96.5 77t157.5 29.5q35 0 64.5 -5t54.5 -13q20 66 48 121t63 88l114 -62q-41 -29 -78.5 -82t-62.5 -108q61 -47 83.5 -123t22.5 -154zM178 -135 q0 -55 13.5 -89t42 -53.5t73.5 -26.5t107 -7q111 0 154.5 42t43.5 144q0 98 -45 130t-143 32q-61 0 -107.5 -6t-77 -24.5t-46 -52.5t-15.5 -89zM393 535q74 0 101.5 53t27.5 182q0 127 -26.5 175t-102.5 48t-101.5 -50t-25.5 -173q0 -125 25.5 -180t101.5 -55zM469 1255 h-168v246h168v-246z" />
<glyph unicode="&#x122;" horiz-adv-x="915" d="M848 782v-782h-150l-18 145q-14 -35 -35.5 -65.5t-54.5 -54t-80 -38t-111 -14.5q-123 0 -191.5 56.5t-100 161t-39 252t-7.5 329.5q0 178 8.5 322.5t47.5 246t120.5 156.5t231.5 55q133 0 207 -26.5t110.5 -84t46 -148.5t15.5 -218l-168 -41q-4 96 -10 164t-26.5 111 t-58.5 62.5t-108 19.5q-76 0 -118 -39t-62.5 -116t-25.5 -193.5t-5 -270.5q0 -143 4 -261t22.5 -201t54.5 -129t99 -46q90 0 145.5 57.5t65.5 149.5v281h-190l27 159h354zM548 -244q0 -53 -31.5 -108.5t-78.5 -96.5l-49 33q29 29 47 65t18 77h-88v198h182v-168z" />
<glyph unicode="&#x123;" horiz-adv-x="770" d="M702 774q0 -72 -14 -137.5t-47 -115.5t-85 -79.5t-126 -29.5h-37q-18 0 -35 2q-29 -16 -41 -38t-12 -63q0 -35 22.5 -65.5t73.5 -30.5h109q49 0 94 -17.5t81 -54t56.5 -95t20.5 -140.5q0 -195 -78 -277t-246 -82h-172q-131 0 -194.5 72t-63.5 182q0 137 55.5 197.5 t172.5 79.5q-31 12 -54.5 26.5t-39 36t-22.5 52t-7 75.5q0 80 32.5 126t94.5 63q-86 43 -123 123t-37 190q0 63 12 123.5t47 108t96.5 77t157.5 29.5q35 0 64.5 -5t54.5 -13q20 66 48 121t63 88l114 -62q-41 -29 -78.5 -82t-62.5 -108q61 -47 83.5 -123t22.5 -154zM178 -135 q0 -55 13.5 -89t42 -53.5t73.5 -26.5t107 -7q111 0 154.5 42t43.5 144q0 98 -45 130t-143 32q-61 0 -107.5 -6t-77 -24.5t-46 -52.5t-15.5 -89zM393 535q74 0 101.5 53t27.5 182q0 127 -26.5 175t-102.5 48t-101.5 -50t-25.5 -173q0 -125 25.5 -180t101.5 -55zM495 1480 q0 -53 -31.5 -108.5t-78.5 -96.5l-49 33q29 29 47 65t18 77h-88v198h182v-168z" />
<glyph unicode="&#x124;" horiz-adv-x="923" d="M287 1526v-658h352v658h203v-1526h-203v709h-352v-709h-205v1526h205zM237 1733l156 260h131l160 -262l-107 -51l-120 213l-121 -217z" />
<glyph unicode="&#x125;" horiz-adv-x="882" d="M608 0v844q0 61 -32.5 96t-96.5 35q-72 0 -116 -41t-89 -133v-801h-192v1614l192 35v-682q47 72 112 117.5t171 45.5q74 0 121 -24.5t74.5 -66.5t38 -95t10.5 -110v-834h-193zM-37 1733l156 260h131l160 -262l-107 -51l-120 213l-121 -217z" />
<glyph unicode="&#x126;" horiz-adv-x="923" d="M287 1526v-271h352v271h203v-1526h-203v709h-352v-709h-205v1526h205zM639 868v254h-352v-254h352z" />
<glyph unicode="&#x127;" horiz-adv-x="882" d="M274 1331v-364q47 72 112 117.5t171 45.5q74 0 121 -24.5t74.5 -66.5t38 -95t10.5 -110v-834h-193v817q0 80 -27.5 119t-101.5 39q-72 0 -116 -41t-89 -133v-801h-192v1331h-70l17 129h53v154l192 35v-189h191l-16 -129h-175z" />
<glyph unicode="&#x128;" horiz-adv-x="366" d="M285 1526v-1526h-203v1526h203zM-144 1760q23 92 71 131t110 39q41 0 79.5 -15.5t73.5 -34.5l67 -33q32 -15 60 -16q57 0 78 113l121 -39q-25 -98 -76 -140t-113 -42q-41 0 -77.5 14t-72.5 32l-68 31q-32 14 -60 15q-25 0 -44.5 -29t-35.5 -82z" />
<glyph unicode="&#x129;" horiz-adv-x="358" d="M-148 1346q23 92 71 131t110 39q41 0 79.5 -15.5t73.5 -34.5l67 -33q32 -15 60 -16q57 0 78 113l121 -39q-25 -98 -76 -140t-113 -42q-41 0 -77.5 14t-72.5 32l-68 31q-32 14 -60 15q-25 0 -44.5 -29t-35.5 -82zM276 0h-194v1112h194v-1112z" />
<glyph unicode="&#x12a;" horiz-adv-x="366" d="M285 1526v-1526h-203v1526h203zM547 1827v-133h-721v133h721z" />
<glyph unicode="&#x12b;" horiz-adv-x="358" d="M544 1413v-133h-721v133h721zM276 0h-194v1112h194v-1112z" />
<glyph unicode="&#x12c;" horiz-adv-x="366" d="M285 1526v-1526h-203v1526h203zM493 1923q-29 -121 -105.5 -191.5t-195.5 -70.5t-204 71t-107 193l100 35q8 -39 25.5 -74.5t44 -63.5t62.5 -44t79 -16q86 0 141.5 60t71.5 142z" />
<glyph unicode="&#x12d;" horiz-adv-x="358" d="M489 1509q-29 -121 -105.5 -191.5t-195.5 -70.5t-204 71t-107 193l100 35q8 -39 25.5 -74.5t44 -63.5t62.5 -44t79 -16q86 0 141.5 60t71.5 142zM276 0h-194v1112h194v-1112z" />
<glyph unicode="&#x12e;" horiz-adv-x="366" d="M285 1526v-1526l-84 -133.5t-37 -95.5q0 -33 24.5 -46.5t61.5 -13.5q39 0 84 12.5t86 34.5l-60 -149q-115 -57 -202 -58q-51 0 -82 24t-31 75q0 20 6 48t24.5 67.5t51.5 97t86 137.5h-131v1526h203z" />
<glyph unicode="&#x12f;" horiz-adv-x="356" d="M274 0q-25 -33 -46 -67.5t-37.5 -65.5t-26.5 -56.5t-10 -39.5q0 -33 24.5 -46.5t61.5 -13.5q39 0 84 12.5t86 34.5l-60 -149q-115 -57 -203 -58q-51 0 -82.5 24t-31.5 75q0 20 7 47t25.5 66.5t51.5 97t86 139.5h-121v1112h192v-1112zM274 1337h-192v267h192v-267z" />
<glyph unicode="&#x130;" horiz-adv-x="366" d="M285 1526v-1526h-203v1526h203zM266 1669h-168v246h168v-246z" />
<glyph unicode="&#x131;" horiz-adv-x="358" d="M276 0h-194v1112h194v-1112z" />
<glyph unicode="&#x132;" horiz-adv-x="1103" d="M285 1526v-1526h-203v1526h203zM1022 369q0 -92 -9.5 -166t-43 -125t-101 -78t-182.5 -27q-74 0 -126 14.5t-88 44t-60.5 72.5t-43.5 101l158 61q16 -66 48 -98.5t108 -32.5q47 0 74.5 12.5t42 40t18.5 68.5t4 100v1170h201v-1157z" />
<glyph unicode="&#x133;" horiz-adv-x="751" d="M274 0h-192v1112h192v-1112zM274 1339h-192v267h192v-267zM670 1339h-192v267h192v-267zM478 1112h192v-1186q0 -111 -14.5 -183.5t-45 -114.5t-79.5 -59.5t-121 -17.5q-70 0 -113 19.5t-65 46.5l37 137q20 -29 50 -39t58 -10q27 0 46.5 9.5t31.5 38t17.5 82.5t5.5 145 v1132z" />
<glyph unicode="&#x134;" horiz-adv-x="753" d="M672 369q0 -92 -9.5 -166t-43 -125t-101 -78t-182.5 -27q-74 0 -126 14.5t-88 44t-60.5 72.5t-43.5 101l158 61q16 -66 48 -98.5t108 -32.5q47 0 74.5 12.5t42 40t18.5 68.5t4 100v1170h201v-1157zM350 1733l156 260h131l160 -262l-107 -51l-120 213l-121 -217z" />
<glyph unicode="&#x135;" horiz-adv-x="382" d="M109 1112h192v-1186q0 -111 -14.5 -183.5t-45 -114.5t-79.5 -59.5t-121 -17.5q-70 0 -113 19.5t-65 46.5l37 137q20 -29 50 -39t58 -10q27 0 46.5 9.5t31.5 38t17.5 82.5t5.5 145v1132zM-16 1319l155 260h131l160 -262l-106 -51l-121 213l-121 -217z" />
<glyph unicode="&#x136;" horiz-adv-x="880" d="M436 799l-151 -264v-535h-203v1526h203v-678l307 678h229l-268 -500l307 -1026h-235zM536 -244q0 -53 -31.5 -108.5t-78.5 -96.5l-49 33q29 29 47 65t18 77h-88v198h182v-168z" />
<glyph unicode="&#x137;" horiz-adv-x="806" d="M424 610l-150 -200v-410h-192v1614l192 35v-1014l271 477h225l-223 -319l250 -793h-230zM499 -244q0 -53 -31.5 -108.5t-78.5 -96.5l-49 33q29 29 47 65t18 77h-88v198h182v-168z" />
<glyph unicode="&#x138;" horiz-adv-x="806" d="M424 610l-150 -200v-410h-192v1112h192v-477l271 477h225l-223 -319l250 -793h-230z" />
<glyph unicode="&#x139;" horiz-adv-x="626" d="M287 1526v-1370h313v-156h-518v1526h205zM469 1841l-365 -215l-70 78l332 258z" />
<glyph unicode="&#x13a;" horiz-adv-x="356" d="M82 0v1614l192 35v-1649h-192zM449 1841l-365 -215l-70 78l332 258z" />
<glyph unicode="&#x13b;" horiz-adv-x="626" d="M287 1526v-1370h313v-156h-518v1526h205zM409 -244q0 -53 -31.5 -108.5t-78.5 -96.5l-49 33q29 29 47 65t18 77h-88v198h182v-168z" />
<glyph unicode="&#x13c;" horiz-adv-x="356" d="M82 0v1614l192 35v-1649h-192zM274 -244q0 -53 -31.5 -108.5t-78.5 -96.5l-49 33q29 29 47 65t18 77h-88v198h182v-168z" />
<glyph unicode="&#x13d;" horiz-adv-x="667" d="M287 1526v-1370h313v-156h-518v1526h205zM555 1480q0 -53 -31.5 -108.5t-78.5 -96.5l-49 33q29 29 47 65t18 77h-88v198h182v-168z" />
<glyph unicode="&#x13e;" horiz-adv-x="579" d="M82 0v1614l192 35v-1649h-192zM571 1480q0 -53 -31.5 -108.5t-78.5 -96.5l-49 33q29 29 47 65t18 77h-88v198h182v-168z" />
<glyph unicode="&#x13f;" horiz-adv-x="626" d="M287 1526v-1370h313v-156h-518v1526h205zM525.822 616.073h-179.947v249.115h179.947v-249.115z" />
<glyph unicode="&#x140;" horiz-adv-x="550" d="M82 0v1614l192 35v-1649h-192zM527.822 614.073h-179.947v249.115h179.947v-249.115z" />
<glyph unicode="&#x141;" horiz-adv-x="620" d="M74 715v811h205v-699l151 86l53 -94l-204 -119v-544h313v-156h-518v588l-45 -27l-56 98z" />
<glyph unicode="&#x142;" horiz-adv-x="407" d="M10 635l-53 96l147 78v805l199 35v-738l100 56l52 -95l-152 -81v-791h-199v686z" />
<glyph unicode="&#x143;" horiz-adv-x="911" d="M78 1526h211l370 -1057v1057h175v-1526h-209l-373 1055v-1055h-174v1526zM734 1841l-365 -215l-70 78l332 258z" />
<glyph unicode="&#x144;" horiz-adv-x="882" d="M244 1112q2 -12 5 -32.5t6 -45t5 -47t2 -37.5q49 86 119 133t176 47q74 0 121 -24.5t74.5 -66.5t38 -95t10.5 -110v-834h-193v844q0 61 -32.5 96t-96.5 35q-72 0 -116 -41t-89 -133v-801h-192v1112h162zM719 1427l-365 -215l-70 78l332 258z" />
<glyph unicode="&#x145;" horiz-adv-x="911" d="M78 1526h211l370 -1057v1057h175v-1526h-209l-373 1055v-1055h-174v1526zM540 -244q0 -53 -31.5 -108.5t-78.5 -96.5l-49 33q29 29 47 65t18 77h-88v198h182v-168z" />
<glyph unicode="&#x146;" horiz-adv-x="882" d="M244 1112q2 -12 5 -32.5t6 -45t5 -47t2 -37.5q49 86 119 133t176 47q74 0 121 -24.5t74.5 -66.5t38 -95t10.5 -110v-834h-193v844q0 61 -32.5 96t-96.5 35q-72 0 -116 -41t-89 -133v-801h-192v1112h162zM538 -244q0 -53 -31.5 -108.5t-78.5 -96.5l-49 33q29 29 47 65 t18 77h-88v198h182v-168z" />
<glyph unicode="&#x147;" horiz-adv-x="911" d="M78 1526h211l370 -1057v1057h175v-1526h-209l-373 1055v-1055h-174v1526zM678 1919l-156 -258h-131l-160 260l107 52l119 -213l123 217z" />
<glyph unicode="&#x148;" horiz-adv-x="882" d="M244 1112q2 -12 5 -32.5t6 -45t5 -47t2 -37.5q49 86 119 133t176 47q74 0 121 -24.5t74.5 -66.5t38 -95t10.5 -110v-834h-193v844q0 61 -32.5 96t-96.5 35q-72 0 -116 -41t-89 -133v-801h-192v1112h162zM664 1505l-156 -258h-131l-160 260l107 52l119 -213l123 217z" />
<glyph unicode="&#x149;" horiz-adv-x="882" d="M244 1112q2 -12 5 -32.5t6 -45t5 -47t2 -37.5q49 86 119 133t176 47q74 0 121 -24.5t74.5 -66.5t38 -95t10.5 -110v-834h-193v844q0 61 -32.5 96t-96.5 35q-72 0 -116 -41t-89 -133v-801h-192v1112h162zM317 1480q0 -53 -31.5 -108.5t-78.5 -96.5l-49 33q29 29 47 65 t18 77h-88v198h182v-168z" />
<glyph unicode="&#x14a;" horiz-adv-x="911" d="M78 1526h211l370 -1057v1057h175v-1600q0 -195 -57.5 -285t-203.5 -90q-70 0 -112.5 19.5t-65.5 46.5l17 69q8 34 18 68q20 -29 49 -41t58 -12t49 8t32.5 36t17.5 79t5 137l-195 547l-194 547v-1055h-174v1526z" />
<glyph unicode="&#x14b;" horiz-adv-x="882" d="M608 748q0 53 -3 95t-15 71.5t-38 45t-73 15.5q-72 0 -116 -41t-89 -133v-801h-192v1112h162q6 -29 11 -71t7 -91q49 86 119 133t176 47q74 0 121 -24.5t74.5 -66.5t38 -95t10.5 -110v-908q0 -111 -14.5 -183.5t-45 -114.5t-81 -59.5t-119.5 -17.5q-70 0 -113 19.5 t-66 46.5l35 137q20 -29 50 -39t59 -10q27 0 46 7t31.5 32t18.5 73t6 128v803z" />
<glyph unicode="&#x14c;" d="M487 1552q152 0 235 -49t123 -147.5t48 -246.5t8 -347q0 -201 -8 -348.5t-48 -245.5t-123 -146.5t-235 -48.5t-236.5 50.5t-126.5 148.5t-52.5 245.5t-10.5 344.5q0 195 10.5 342t52.5 247.5t126.5 150.5t236.5 50zM487 1393q-74 0 -115.5 -36t-63 -112t-28 -195.5 t-6.5 -287.5q0 -170 6.5 -289t28 -194.5t63.5 -109.5t115 -34q72 0 112 34t59.5 109.5t23.5 194.5t4 289q0 168 -4 287.5t-23.5 196.5t-59.5 112t-112 35zM839 1827v-133h-721v133h721z" />
<glyph unicode="&#x14d;" horiz-adv-x="878" d="M438 1130q141 0 218 -47t113 -126.5t42 -185t6 -220.5t-6 -218.5t-42 -182t-112.5 -126t-218.5 -47.5q-141 0 -217 47.5t-111.5 126t-42 182t-6.5 218.5t6.5 220.5t42 185t112.5 126.5t216 47zM438 975q-68 0 -104.5 -24.5t-55 -77t-21.5 -132t-3 -190.5t3 -189.5 t21.5 -131t55.5 -77t104 -24.5q68 0 105 24.5t55 77t21.5 131t3.5 189.5t-3.5 190.5t-21.5 132t-55 77t-105 24.5zM798 1413v-133h-721v133h721z" />
<glyph unicode="&#x14e;" d="M487 1552q152 0 235 -49t123 -147.5t48 -246.5t8 -347q0 -201 -8 -348.5t-48 -245.5t-123 -146.5t-235 -48.5t-236.5 50.5t-126.5 148.5t-52.5 245.5t-10.5 344.5q0 195 10.5 342t52.5 247.5t126.5 150.5t236.5 50zM487 1393q-74 0 -115.5 -36t-63 -112t-28 -195.5 t-6.5 -287.5q0 -170 6.5 -289t28 -194.5t63.5 -109.5t115 -34q72 0 112 34t59.5 109.5t23.5 194.5t4 289q0 168 -4 287.5t-23.5 196.5t-59.5 112t-112 35zM786 1923q-29 -121 -105.5 -191.5t-195.5 -70.5t-204 71t-107 193l100 35q8 -39 25.5 -74.5t44 -63.5t62.5 -44 t79 -16q86 0 141.5 60t71.5 142z" />
<glyph unicode="&#x14f;" horiz-adv-x="878" d="M438 1130q141 0 218 -47t113 -126.5t42 -185t6 -220.5t-6 -218.5t-42 -182t-112.5 -126t-218.5 -47.5q-141 0 -217 47.5t-111.5 126t-42 182t-6.5 218.5t6.5 220.5t42 185t112.5 126.5t216 47zM438 975q-68 0 -104.5 -24.5t-55 -77t-21.5 -132t-3 -190.5t3 -189.5 t21.5 -131t55.5 -77t104 -24.5q68 0 105 24.5t55 77t21.5 131t3.5 189.5t-3.5 190.5t-21.5 132t-55 77t-105 24.5zM745 1509q-29 -121 -105.5 -191.5t-195.5 -70.5t-204 71t-107 193l100 35q8 -39 25.5 -74.5t44 -63.5t62.5 -44t79 -16q86 0 141.5 60t71.5 142z" />
<glyph unicode="&#x150;" d="M487 1552q152 0 235 -49t123 -147.5t48 -246.5t8 -347q0 -201 -8 -348.5t-48 -245.5t-123 -146.5t-235 -48.5t-236.5 50.5t-126.5 148.5t-52.5 245.5t-10.5 344.5q0 195 10.5 342t52.5 247.5t126.5 150.5t236.5 50zM487 1393q-74 0 -115.5 -36t-63 -112t-28 -195.5 t-6.5 -287.5q0 -170 6.5 -289t28 -194.5t63.5 -109.5t115 -34q72 0 112 34t59.5 109.5t23.5 194.5t4 289q0 168 -4 287.5t-23.5 196.5t-59.5 112t-112 35zM573 1710l142 277l84 -43l-160 -270zM313 1710l140 277l84 -43l-158 -270z" />
<glyph unicode="&#x151;" horiz-adv-x="878" d="M438 1130q141 0 218 -47t113 -126.5t42 -185t6 -220.5t-6 -218.5t-42 -182t-112.5 -126t-218.5 -47.5q-141 0 -217 47.5t-111.5 126t-42 182t-6.5 218.5t6.5 220.5t42 185t112.5 126.5t216 47zM438 975q-68 0 -104.5 -24.5t-55 -77t-21.5 -132t-3 -190.5t3 -189.5 t21.5 -131t55.5 -77t104 -24.5q68 0 105 24.5t55 77t21.5 131t3.5 189.5t-3.5 190.5t-21.5 132t-55 77t-105 24.5zM532 1296l142 277l84 -43l-160 -270zM272 1296l140 277l84 -43l-158 -270z" />
<glyph unicode="&#x152;" horiz-adv-x="1312" d="M483 1550q90 0 146.5 -26.5t93.5 -75.5v78h539v-160h-369v-481h309l-16 -162h-293v-567h379v-156h-547v76q-66 -100 -242 -101q-150 0 -234.5 50.5t-125.5 148.5t-51.5 245.5t-10.5 342.5q0 193 10.5 340t51.5 246.5t125.5 150.5t234.5 51zM487 1393q-74 0 -115.5 -36 t-63 -112t-28 -195.5t-6.5 -287.5q0 -170 6.5 -289t28 -194.5t63.5 -109.5t115 -34q72 0 112 34t59.5 109.5t23.5 194.5t4 289q0 168 -4 287.5t-23.5 196.5t-59.5 112t-112 35z" />
<glyph unicode="&#x153;" horiz-adv-x="1400" d="M983 1130q131 0 204 -45t107.5 -116.5t40.5 -159.5t6 -174v-86h-536q0 -84 4 -160t23.5 -134t59.5 -92t112 -34q102 0 137 56.5t45 164.5l155 -22q-10 -86 -32.5 -151.5t-62.5 -109.5t-102.5 -67t-152.5 -23q-111 0 -177 40t-93 108q-29 -68 -97.5 -108t-185.5 -40 q-141 0 -217 47.5t-111.5 126t-42 182t-6.5 218.5t6.5 220.5t42 185t112.5 126.5t216 47q117 0 184.5 -39.5t96.5 -103.5q29 66 92 104.5t172 38.5zM438 975q-68 0 -104.5 -24.5t-55 -77t-21.5 -132t-3 -190.5t3 -189.5t21.5 -131t55.5 -77t104 -24.5q68 0 105 24.5t55 77 t21.5 131t3.5 189.5t-3.5 190.5t-21.5 132t-55 77t-105 24.5zM987 993q-61 0 -96 -24.5t-53.5 -67.5t-23.5 -103.5t-7 -133.5h356q0 63 -2 122.5t-18.5 105.5t-52 73.5t-103.5 27.5z" />
<glyph unicode="&#x154;" horiz-adv-x="825" d="M582 0l-146 684h-151v-684h-203v1526h324q127 0 203.5 -22.5t117.5 -71t54.5 -122t13.5 -175.5q0 -86 -7.5 -158t-27 -126t-53 -91t-86.5 -51l186 -709h-225zM432 840q57 0 91 14t52.5 48t23.5 89.5t5 134.5q0 70 -5 118t-23.5 77t-56.5 42t-101 13h-133v-536h147z M691 1841l-365 -215l-70 78l332 258z" />
<glyph unicode="&#x155;" horiz-adv-x="573" d="M233 1112q16 -88 17 -182q41 86 123 134t190 48l-16 -192q-72 0 -119 -14.5t-79 -42t-49 -70.5t-26 -99v-694h-192v1112h151zM566 1427l-365 -215l-70 78l332 258z" />
<glyph unicode="&#x156;" horiz-adv-x="825" d="M582 0l-146 684h-151v-684h-203v1526h324q127 0 203.5 -22.5t117.5 -71t54.5 -122t13.5 -175.5q0 -86 -7.5 -158t-27 -126t-53 -91t-86.5 -51l186 -709h-225zM432 840q57 0 91 14t52.5 48t23.5 89.5t5 134.5q0 70 -5 118t-23.5 77t-56.5 42t-101 13h-133v-536h147z M495 -244q0 -53 -31.5 -108.5t-78.5 -96.5l-49 33q29 29 47 65t18 77h-88v198h182v-168z" />
<glyph unicode="&#x157;" horiz-adv-x="573" d="M233 1112q16 -88 17 -182q41 86 123 134t190 48l-16 -192q-72 0 -119 -14.5t-79 -42t-49 -70.5t-26 -99v-694h-192v1112h151zM260 -244q0 -53 -31.5 -108.5t-78.5 -96.5l-49 33q29 29 47 65t18 77h-88v198h182v-168z" />
<glyph unicode="&#x158;" horiz-adv-x="825" d="M582 0l-146 684h-151v-684h-203v1526h324q127 0 203.5 -22.5t117.5 -71t54.5 -122t13.5 -175.5q0 -86 -7.5 -158t-27 -126t-53 -91t-86.5 -51l186 -709h-225zM432 840q57 0 91 14t52.5 48t23.5 89.5t5 134.5q0 70 -5 118t-23.5 77t-56.5 42t-101 13h-133v-536h147z M635 1919l-156 -258h-131l-160 260l107 52l119 -213l123 217z" />
<glyph unicode="&#x159;" horiz-adv-x="573" d="M233 1112q16 -88 17 -182q41 86 123 134t190 48l-16 -192q-72 0 -119 -14.5t-79 -42t-49 -70.5t-26 -99v-694h-192v1112h151zM510 1505l-156 -258h-131l-160 260l107 52l119 -213l123 217z" />
<glyph unicode="&#x15a;" horiz-adv-x="817" d="M420 1552q102 0 164.5 -26.5t96.5 -72.5t45 -109.5t15 -135.5l-161 -22q-4 49 -9.5 88t-22 65.5t-46 40t-80.5 13.5q-53 0 -85 -14.5t-49.5 -40t-23.5 -63.5t-6 -85q0 -59 13.5 -103.5t38 -78t58 -59t74.5 -50.5q61 -35 120 -73t105 -94t73.5 -139t27.5 -210 q0 -197 -85 -303.5t-294 -106.5q-102 0 -166.5 26t-103.5 82t-57.5 146t-26.5 219l174 35q4 -96 14 -162.5t29.5 -107.5t52.5 -58.5t84 -17.5q55 0 89 16.5t52.5 48t25.5 80t7 111.5q0 74 -14 127t-42 92t-69 71t-92 62q-55 33 -105.5 72t-90 92.5t-63.5 123t-24 165.5 q0 82 17.5 147.5t58.5 111.5t110 71.5t171 25.5zM687 1841l-365 -215l-70 78l332 258z" />
<glyph unicode="&#x15b;" horiz-adv-x="731" d="M371 1130q86 0 138 -12t83 -41.5t45 -79t27 -120.5l-152 -29q-10 70 -31.5 99.5t-91.5 29.5q-59 0 -94 -25.5t-35 -93.5q0 -61 23.5 -104t89.5 -80l124 -67q56 -30 96 -67.5t62.5 -93t22.5 -143.5q0 -160 -77 -245t-251 -85q-156 0 -231.5 80t-75.5 266l166 25 q0 -45 6 -85t21.5 -70.5t42 -48t69.5 -17.5q98 0 129 43t31 119q0 92 -46 139t-128 86q-61 29 -108.5 59.5t-79 69.5t-49 90t-17.5 123q0 63 13 114.5t47 88.5t89.5 56t141.5 19zM643 1427l-365 -215l-70 78l332 258z" />
<glyph unicode="&#x15c;" horiz-adv-x="817" d="M420 1552q102 0 164.5 -26.5t96.5 -72.5t45 -109.5t15 -135.5l-161 -22q-4 49 -9.5 88t-22 65.5t-46 40t-80.5 13.5q-53 0 -85 -14.5t-49.5 -40t-23.5 -63.5t-6 -85q0 -59 13.5 -103.5t38 -78t58 -59t74.5 -50.5q61 -35 120 -73t105 -94t73.5 -139t27.5 -210 q0 -197 -85 -303.5t-294 -106.5q-102 0 -166.5 26t-103.5 82t-57.5 146t-26.5 219l174 35q4 -96 14 -162.5t29.5 -107.5t52.5 -58.5t84 -17.5q55 0 89 16.5t52.5 48t25.5 80t7 111.5q0 74 -14 127t-42 92t-69 71t-92 62q-55 33 -105.5 72t-90 92.5t-63.5 123t-24 165.5 q0 82 17.5 147.5t58.5 111.5t110 71.5t171 25.5zM184 1733l156 260h131l160 -262l-107 -51l-120 213l-121 -217z" />
<glyph unicode="&#x15d;" horiz-adv-x="731" d="M371 1130q86 0 138 -12t83 -41.5t45 -79t27 -120.5l-152 -29q-10 70 -31.5 99.5t-91.5 29.5q-59 0 -94 -25.5t-35 -93.5q0 -61 23.5 -104t89.5 -80l124 -67q56 -30 96 -67.5t62.5 -93t22.5 -143.5q0 -160 -77 -245t-251 -85q-156 0 -231.5 80t-75.5 266l166 25 q0 -45 6 -85t21.5 -70.5t42 -48t69.5 -17.5q98 0 129 43t31 119q0 92 -46 139t-128 86q-61 29 -108.5 59.5t-79 69.5t-49 90t-17.5 123q0 63 13 114.5t47 88.5t89.5 56t141.5 19zM141 1319l156 260h131l160 -262l-107 -51l-120 213l-121 -217z" />
<glyph unicode="&#x15e;" horiz-adv-x="817" d="M354 -25q-90 4 -149.5 32t-94 84t-52 144.5t-23.5 210.5l174 35q4 -96 14 -162.5t29.5 -107.5t52.5 -58.5t84 -17.5q55 0 89 16.5t52.5 48t25.5 80t7 111.5q0 78 -15.5 131t-43 92t-68.5 69t-90 60q-55 33 -105.5 73t-90 94.5t-63.5 124t-24 161.5q0 82 17.5 147.5 t58.5 111.5t109.5 71.5t171.5 25.5q102 0 164.5 -26.5t96.5 -72.5t45 -109.5t15 -135.5l-161 -22q-4 49 -9.5 88t-22 65.5t-46 40t-80.5 13.5q-53 0 -85 -14.5t-49.5 -40t-23.5 -63.5t-6 -85q0 -59 13.5 -103.5t38 -78t58 -59t74.5 -50.5l122 -74q58 -37 103.5 -93t73 -139 t27.5 -210q0 -188 -77 -292.5t-261 -115.5l-4 -63q90 0 125 -44t35 -116t-57.5 -111.5t-141.5 -39.5q-78 0 -151 32l26 62q55 -23 103 -23q49 0 83.5 24.5t34.5 76.5q0 51 -34.5 71.5t-110.5 24.5z" />
<glyph unicode="&#x15f;" horiz-adv-x="731" d="M317 -25q-141 8 -207.5 87t-66.5 257l166 25q0 -45 7 -85t22.5 -70.5t42 -48t67.5 -17.5q98 0 129 43t31 119q0 45 -12.5 78.5t-36 59.5t-55 47.5t-70.5 39.5q-61 29 -108.5 59.5t-79 69.5t-49 90t-17.5 123q0 63 13 114.5t47 88.5t89.5 56t141.5 19t138 -12t83 -41.5 t45 -79t27 -120.5l-152 -29q-10 70 -31.5 99.5t-91.5 29.5q-59 0 -94 -25.5t-35 -93.5q0 -61 23.5 -104t89.5 -80q68 -39 123 -67.5t96 -66.5t63.5 -92.5t22.5 -144.5q0 -147 -67.5 -232t-217.5 -96l-4 -63q90 0 125 -44t35 -116t-58.5 -111.5t-140.5 -39.5q-78 0 -151 32 l24 62q57 -23 105 -23q47 0 82.5 24.5t35.5 76.5q0 51 -35.5 71.5t-109.5 24.5z" />
<glyph unicode="&#x160;" horiz-adv-x="817" d="M420 1552q102 0 164.5 -26.5t96.5 -72.5t45 -109.5t15 -135.5l-161 -22q-4 49 -9.5 88t-22 65.5t-46 40t-80.5 13.5q-53 0 -85 -14.5t-49.5 -40t-23.5 -63.5t-6 -85q0 -59 13.5 -103.5t38 -78t58 -59t74.5 -50.5q61 -35 120 -73t105 -94t73.5 -139t27.5 -210 q0 -197 -85 -303.5t-294 -106.5q-102 0 -166.5 26t-103.5 82t-57.5 146t-26.5 219l174 35q4 -96 14 -162.5t29.5 -107.5t52.5 -58.5t84 -17.5q55 0 89 16.5t52.5 48t25.5 80t7 111.5q0 74 -14 127t-42 92t-69 71t-92 62q-55 33 -105.5 72t-90 92.5t-63.5 123t-24 165.5 q0 82 17.5 147.5t58.5 111.5t110 71.5t171 25.5zM631 1919l-156 -258h-131l-160 260l107 52l119 -213l123 217z" />
<glyph unicode="&#x161;" horiz-adv-x="731" d="M371 1130q86 0 138 -12t83 -41.5t45 -79t27 -120.5l-152 -29q-10 70 -31.5 99.5t-91.5 29.5q-59 0 -94 -25.5t-35 -93.5q0 -61 23.5 -104t89.5 -80l124 -67q56 -30 96 -67.5t62.5 -93t22.5 -143.5q0 -160 -77 -245t-251 -85q-156 0 -231.5 80t-75.5 266l166 25 q0 -45 6 -85t21.5 -70.5t42 -48t69.5 -17.5q98 0 129 43t31 119q0 92 -46 139t-128 86q-61 29 -108.5 59.5t-79 69.5t-49 90t-17.5 123q0 63 13 114.5t47 88.5t89.5 56t141.5 19zM588 1505l-156 -258h-131l-160 260l107 52l119 -213l123 217z" />
<glyph unicode="&#x162;" horiz-adv-x="739" d="M729 1526v-160h-260v-1366h-203v1366h-254v160h717zM458 -244q0 -53 -31.5 -108.5t-78.5 -96.5l-49 33q29 29 47 65t18 77h-88v198h182v-168z" />
<glyph unicode="&#x163;" horiz-adv-x="561" d="M274 1112h279l-16 -137h-263v-690q0 -63 29 -99t62 -36q45 0 70.5 23.5t47.5 70.5l80 -119q-27 -53 -88 -94t-160 -41q-111 0 -172 64.5t-61 205.5v715h-84l14 137h70v281l192 32v-313zM376 -244q0 -53 -31.5 -108.5t-78.5 -96.5l-49 33q29 29 47 65t18 77h-88v198h182 v-168z" />
<glyph unicode="&#x164;" horiz-adv-x="739" d="M729 1526v-160h-260v-1366h-203v1366h-254v160h717zM592 1919l-156 -258h-131l-160 260l107 52l119 -213l123 217z" />
<glyph unicode="&#x165;" horiz-adv-x="647" d="M274 1112h279l-16 -137h-263v-690q0 -63 29 -99t62 -36q45 0 70.5 23.5t47.5 70.5l80 -119q-27 -53 -88 -94t-160 -41q-111 0 -172 64.5t-61 205.5v715h-84l14 137h70v281l192 32v-313zM639 1480q0 -53 -31.5 -108.5t-78.5 -96.5l-49 33q29 29 47 65t18 77h-88v198h182 v-168z" />
<glyph unicode="&#x166;" horiz-adv-x="739" d="M266 1118v248h-254v160h717v-160h-260v-248h227v-133h-227v-985h-203v985h-223v133h223z" />
<glyph unicode="&#x167;" horiz-adv-x="561" d="M274 1112h279l-16 -137h-263v-189h242l-12 -133h-230v-368q0 -63 29 -99t62 -36q45 0 70.5 23.5t47.5 70.5l80 -119q-27 -53 -88 -94t-160 -41q-111 0 -172 64.5t-61 205.5v393h-84l16 133h68v189h-84l14 137h70v281l192 32v-313z" />
<glyph unicode="&#x168;" horiz-adv-x="888" d="M281 1526v-920q0 -125 4 -214t20.5 -146.5t49 -84t89.5 -26.5q55 0 88 26.5t49.5 84t20.5 146.5t4 214v920h205v-1086q0 -111 -12.5 -196.5t-50 -146t-110.5 -92.5t-194 -32q-117 0 -189.5 31t-111.5 90.5t-52 146.5t-13 199v1086h203zM112 1760q23 92 71 131t110 39 q41 0 79.5 -15.5t73.5 -34.5l67 -33q32 -15 60 -16q57 0 78 113l121 -39q-25 -98 -76 -140t-113 -42q-41 0 -77.5 14t-72.5 32l-68 31q-32 14 -60 15q-25 0 -44.5 -29t-35.5 -82z" />
<glyph unicode="&#x169;" horiz-adv-x="843" d="M623 0q-4 10 -8 32l-6 45q-3 24 -4 46t-1 37q-43 -86 -107.5 -132t-170.5 -46q-74 0 -121 24.5t-75 66.5t-38 95t-10 111v833h190v-846q0 -61 31 -96t92 -35q72 0 115 41t80 133v803h194v-1112h-161zM90 1346q23 92 71 131t110 39q41 0 79.5 -15.5t73.5 -34.5l67 -33 q32 -15 60 -16q57 0 78 113l121 -39q-25 -98 -76 -140t-113 -42q-41 0 -77.5 14t-72.5 32l-68 31q-32 14 -60 15q-25 0 -44.5 -29t-35.5 -82z" />
<glyph unicode="&#x16a;" horiz-adv-x="888" d="M281 1526v-920q0 -125 4 -214t20.5 -146.5t49 -84t89.5 -26.5q55 0 88 26.5t49.5 84t20.5 146.5t4 214v920h205v-1086q0 -111 -12.5 -196.5t-50 -146t-110.5 -92.5t-194 -32q-117 0 -189.5 31t-111.5 90.5t-52 146.5t-13 199v1086h203zM805 1827v-133h-721v133h721z" />
<glyph unicode="&#x16b;" horiz-adv-x="843" d="M623 0q-4 10 -8 32l-6 45q-3 24 -4 46t-1 37q-43 -86 -107.5 -132t-170.5 -46q-74 0 -121 24.5t-75 66.5t-38 95t-10 111v833h190v-846q0 -61 31 -96t92 -35q72 0 115 41t80 133v803h194v-1112h-161zM782 1413v-133h-721v133h721z" />
<glyph unicode="&#x16c;" horiz-adv-x="888" d="M281 1526v-920q0 -125 4 -214t20.5 -146.5t49 -84t89.5 -26.5q55 0 88 26.5t49.5 84t20.5 146.5t4 214v920h205v-1086q0 -111 -12.5 -196.5t-50 -146t-110.5 -92.5t-194 -32q-117 0 -189.5 31t-111.5 90.5t-52 146.5t-13 199v1086h203zM749 1923q-29 -121 -105.5 -191.5 t-195.5 -70.5t-204 71t-107 193l100 35q8 -39 25.5 -74.5t44 -63.5t62.5 -44t79 -16q86 0 141.5 60t71.5 142z" />
<glyph unicode="&#x16d;" horiz-adv-x="843" d="M623 0q-4 10 -8 32l-6 45q-3 24 -4 46t-1 37q-43 -86 -107.5 -132t-170.5 -46q-74 0 -121 24.5t-75 66.5t-38 95t-10 111v833h190v-846q0 -61 31 -96t92 -35q72 0 115 41t80 133v803h194v-1112h-161zM727 1509q-29 -121 -105.5 -191.5t-195.5 -70.5t-204 71t-107 193 l100 35q8 -39 25.5 -74.5t44 -63.5t62.5 -44t79 -16q86 0 141.5 60t71.5 142z" />
<glyph unicode="&#x16e;" horiz-adv-x="888" d="M281 1526v-920q0 -125 4 -214t20.5 -146.5t49 -84t89.5 -26.5q55 0 88 26.5t49.5 84t20.5 146.5t4 214v920h205v-1086q0 -111 -12.5 -196.5t-50 -146t-110.5 -92.5t-194 -32q-117 0 -189.5 31t-111.5 90.5t-52 146.5t-13 199v1086h203zM647 1731q0 -176 -203 -176 q-205 0 -205 176q0 174 205 174q203 0 203 -174zM567 1731q0 104 -123 104t-123 -104t123 -105q123 1 123 105z" />
<glyph unicode="&#x16f;" horiz-adv-x="843" d="M623 0q-4 10 -8 32l-6 45q-3 24 -4 46t-1 37q-43 -86 -107.5 -132t-170.5 -46q-74 0 -121 24.5t-75 66.5t-38 95t-10 111v833h190v-846q0 -61 31 -96t92 -35q72 0 115 41t80 133v803h194v-1112h-161zM625 1368q0 -176 -203 -176q-205 0 -205 176q0 174 205 174 q203 0 203 -174zM545 1368q0 104 -123 104t-123 -104t123 -105q123 1 123 105z" />
<glyph unicode="&#x170;" horiz-adv-x="888" d="M281 1526v-920q0 -125 4 -214t20.5 -146.5t49 -84t89.5 -26.5q55 0 88 26.5t49.5 84t20.5 146.5t4 214v920h205v-1086q0 -111 -12.5 -196.5t-50 -146t-110.5 -92.5t-194 -32q-117 0 -189.5 31t-111.5 90.5t-52 146.5t-13 199v1086h203zM536 1710l142 277l84 -43 l-160 -270zM276 1710l140 277l84 -43l-158 -270z" />
<glyph unicode="&#x171;" horiz-adv-x="843" d="M623 0q-4 10 -8 32l-6 45q-3 24 -4 46t-1 37q-43 -86 -107.5 -132t-170.5 -46q-74 0 -121 24.5t-75 66.5t-38 95t-10 111v833h190v-846q0 -61 31 -96t92 -35q72 0 115 41t80 133v803h194v-1112h-161zM514 1296l142 277l84 -43l-160 -270zM254 1296l140 277l84 -43 l-158 -270z" />
<glyph unicode="&#x172;" horiz-adv-x="888" d="M281 1526v-973q0 -111 4 -190.5t19 -130t48 -74t92 -23.5q57 0 89 23.5t48.5 74t20.5 130t4 190.5v973h205v-1086q0 -86 -7 -157.5t-27.5 -128t-58.5 -95.5t-100 -59q-18 -33 -39 -67l-39 -63q-17 -30 -28.5 -55.5t-11.5 -43.5q0 -33 25.5 -46.5t62.5 -13.5t83 12.5 t87 34.5l-60 -149q-115 -57 -202 -58q-51 0 -83 24t-32 75q0 55 38 132t120 200q-23 -4 -46.5 -6.5t-48.5 -2.5q-123 0 -194.5 31t-110.5 91.5t-50 147.5t-11 197v1086h203z" />
<glyph unicode="&#x173;" horiz-adv-x="843" d="M623 0q-8 35 -13.5 76t-5.5 84q-43 -86 -107.5 -132t-170.5 -46q-74 0 -121 24.5t-75 66.5t-38 95t-10 111v833h190v-766q0 -49 3.5 -87t14.5 -63.5t32.5 -40t56.5 -14.5q80 0 128 42t83 126v803h194v-1112q-25 -33 -46 -67.5t-37.5 -65.5t-26.5 -56.5t-10 -39.5 q0 -33 24.5 -46.5t61.5 -13.5q39 0 84 12.5t86 34.5l-60 -149q-115 -57 -203 -58q-51 0 -82.5 24t-31.5 75q0 59 41 142t127 208h-88z" />
<glyph unicode="&#x174;" horiz-adv-x="1327" d="M565 1526h209l170 -1215l152 1215h213l-256 -1526h-199l-184 1227l-178 -1227h-220l-254 1526h218l155 -1219zM438 1733l156 260h131l160 -262l-107 -51l-120 213l-121 -217z" />
<glyph unicode="&#x175;" horiz-adv-x="1075" d="M463 1112h172l127 -797l119 797h176l-221 -1112h-152l-135 817l-139 -817h-177l-215 1112h199l117 -797zM313 1319l156 260h131l160 -262l-107 -51l-120 213l-121 -217z" />
<glyph unicode="&#x176;" horiz-adv-x="782" d="M399 854l193 672h170l-268 -883v-643h-201v643l-275 883h199zM165 1733l156 260h131l160 -262l-107 -51l-120 213l-121 -217z" />
<glyph unicode="&#x177;" horiz-adv-x="757" d="M401 303l156 809h182l-288 -1194q-18 -78 -41 -144.5t-59 -115.5t-89 -78t-131 -29q-43 0 -77 7.5t-66 27.5l41 81l41 81q14 -10 29.5 -16t31.5 -6q43 0 91 61t83 221l-289 1104h213zM153 1319l156 260h131l160 -262l-107 -51l-120 213l-121 -217z" />
<glyph unicode="&#x178;" horiz-adv-x="782" d="M399 854l193 672h170l-268 -883v-643h-201v643l-275 883h199zM307 1669h-168v246h168v-246zM641 1669h-168v246h168v-246z" />
<glyph unicode="&#x179;" horiz-adv-x="720" d="M94 1526h570v-131l-428 -1237h450v-158h-657v135l434 1229h-369v162zM639 1841l-365 -215l-70 78l332 258z" />
<glyph unicode="&#x17a;" horiz-adv-x="663" d="M84 1112h514v-119l-377 -852h418v-141h-612v119l368 850h-311v143zM611 1427l-365 -215l-70 78l332 258z" />
<glyph unicode="&#x17b;" horiz-adv-x="720" d="M94 1526h570v-131l-428 -1237h450v-158h-657v135l434 1229h-369v162zM444 1669h-168v246h168v-246z" />
<glyph unicode="&#x17c;" horiz-adv-x="663" d="M84 1112h514v-119l-377 -852h418v-141h-612v119l368 850h-311v143zM415 1255h-168v246h168v-246z" />
<glyph unicode="&#x17d;" horiz-adv-x="720" d="M94 1526h570v-131l-428 -1237h450v-158h-657v135l434 1229h-369v162zM582 1919l-156 -258h-131l-160 260l107 52l119 -213l123 217z" />
<glyph unicode="&#x17e;" horiz-adv-x="663" d="M84 1112h514v-119l-377 -852h418v-141h-612v119l368 850h-311v143zM555 1505l-156 -258h-131l-160 260l107 52l119 -213l123 217z" />
<glyph unicode="&#x17f;" horiz-adv-x="509" d="M268 0h-192v1268q0 111 14 183.5t45 114.5t80 59t121 17q70 0 113 -19t65 -46l-35 -137q-20 23 -46.5 36t-65.5 13q-29 0 -47.5 -8t-29.5 -34t-16.5 -73t-5.5 -125v-1249z" />
<glyph unicode="&#x1fa;" horiz-adv-x="862" d="M559 367h-285l-63 -367h-193l304 1526h215l307 -1526h-223zM289 528h252l-123 668zM635 1731q0 -176 -203 -176q-205 0 -205 176q0 174 205 174q203 0 203 -174zM555 1731q0 104 -123 104t-123 -104t123 -105q123 1 123 105zM1039.13 1806.8l-291.684 -172.181 l-55.9395 62.4658l265.312 206.617z" />
<glyph unicode="&#x1fb;" horiz-adv-x="808" d="M391 1130q106 0 172 -24.5t102.5 -74.5t49 -125t12.5 -173v-518q0 -59 23.5 -73.5t52.5 -14.5l-17 -127q-104 0 -151 36t-57 87q-39 -68 -100.5 -107t-176.5 -39q-74 0 -121 26t-75.5 69t-40 97t-11.5 112q0 109 16.5 183.5t67.5 120.5t147.5 65.5t256.5 19.5v84 q0 57 -4.5 99t-19.5 69.5t-44 40t-78 12.5q-84 0 -111.5 -45t-35.5 -150l-162 15q6 86 19.5 149.5t45 105.5t89 61t151.5 19zM541 557q-98 -6 -157.5 -17.5t-90.5 -39t-41 -76.5t-10 -131q0 -84 22.5 -128t85.5 -44q80 0 126 51t65 147v238zM608 1368q0 -176 -203 -176 q-205 0 -205 176q0 174 205 174q203 0 203 -174zM528 1368q0 104 -123 104t-123 -104t123 -105q123 1 123 105zM1004.13 1461.8l-291.684 -172.181l-55.9395 62.4658l265.312 206.617z" />
<glyph unicode="&#x1fc;" horiz-adv-x="1101" d="M293 387l-55 -387h-209l268 1526h768v-160h-356v-481h292l-14 -162h-278v-567h358v-156h-549v387h-225zM315 551h203v815h-86zM861 1841l-365 -215l-70 78l332 258z" />
<glyph unicode="&#x1fd;" horiz-adv-x="1331" d="M911 1130q131 0 204 -46t106.5 -117.5t41 -159.5t7.5 -172v-86h-537q0 -84 5 -160t23.5 -134t58.5 -92t112 -34q102 0 137 56.5t45 164.5l156 -22q-10 -86 -33 -151.5t-62.5 -109.5t-102 -67t-152.5 -23q-68 0 -115 13.5t-80 38t-53.5 58.5t-34.5 77q-16 -41 -40 -76 t-61.5 -59.5t-93 -38t-133.5 -13.5q-74 0 -121 27t-75.5 70t-40 97t-11.5 110q0 109 16.5 182.5t68 119.5t147.5 66.5t256 20.5v84q0 57 -4 99t-19.5 69.5t-44 40t-78.5 12.5q-43 0 -69.5 -11.5t-43 -36t-23.5 -61.5t-11 -86l-162 15q6 86 19.5 149.5t45 105.5t89 61 t151.5 19q111 0 170.5 -37.5t79.5 -103.5q27 66 93.5 103.5t168.5 37.5zM549 557q-98 -6 -157.5 -17.5t-90.5 -39t-40 -76.5t-9 -131q0 -84 21.5 -128t84.5 -44q82 0 127 51t64 147v238zM915 993q-61 0 -96 -24.5t-53 -67.5t-23.5 -103.5t-7.5 -133.5h357q0 63 -2.5 123.5 t-18.5 105.5t-52 72.5t-104 27.5zM943 1427l-365 -215l-70 78l332 258z" />
<glyph unicode="&#x1fe;" d="M760 1841l-365 -215l-70 78l332 258zM487 1552q135 0 220 -43l30 84l97 -43l-39 -108q39 -47 60.5 -112.5t31.5 -150.5t12 -189.5t2 -227.5q0 -201 -8 -348.5t-48 -245.5t-123 -146.5t-235 -48.5q-131 0 -213 37l-32 -88l-95 39l39 111q-43 45 -68.5 110.5t-37.5 151.5 t-15.5 193.5t-3.5 234.5q0 195 10.5 342t52.5 247.5t126.5 150.5t236.5 50zM487 1393q-74 0 -115.5 -36t-63 -112t-28 -195.5t-6.5 -287.5q0 -131 3.5 -231.5t13.5 -172.5l344 953q-46 82 -148 82zM686 762q0 111 -1 200t-7 158l-336 -919q47 -66 145 -66q72 0 112 34 t59.5 109.5t23.5 194.5t4 289z" />
<glyph unicode="&#x1ff;" horiz-adv-x="878" d="M717 1427l-365 -215l-70 78l332 258zM438 1130q86 0 148 -18l32 88l97 -45l-33 -90q49 -37 76.5 -91t41 -121t15.5 -143.5t2 -158.5q0 -115 -6 -218.5t-42 -182t-112.5 -126t-218.5 -47.5q-82 0 -143 19l-27 -74l-94 39l27 76q-53 37 -81 91t-41 120.5t-15.5 143.5 t-2.5 159q0 115 6.5 220.5t42 185t112.5 126.5t216 47zM438 975q-68 0 -104.5 -24.5t-55 -77t-21.5 -132t-3 -190.5q0 -104 2 -181t18 -128l256 714q-37 19 -92 19zM623 551q0 98 -3.5 173t-15.5 126l-256 -705q33 -16 90 -16q68 0 105 24.5t55 77t21.5 131t3.5 189.5z" />
<glyph unicode="&#x218;" horiz-adv-x="817" d="M420 1552q102 0 164.5 -26.5t96.5 -72.5t45 -109.5t15 -135.5l-161 -22q-4 49 -9.5 88t-22 65.5t-46 40t-80.5 13.5q-53 0 -85 -14.5t-49.5 -40t-23.5 -63.5t-6 -85q0 -59 13.5 -103.5t38 -78t58 -59t74.5 -50.5q61 -35 120 -73t105 -94t73.5 -139t27.5 -210 q0 -197 -85 -303.5t-294 -106.5q-102 0 -166.5 26t-103.5 82t-57.5 146t-26.5 219l174 35q4 -96 14 -162.5t29.5 -107.5t52.5 -58.5t84 -17.5q55 0 89 16.5t52.5 48t25.5 80t7 111.5q0 74 -14 127t-42 92t-69 71t-92 62q-55 33 -105.5 72t-90 92.5t-63.5 123t-24 165.5 q0 82 17.5 147.5t58.5 111.5t110 71.5t171 25.5zM491 -244q0 -53 -31.5 -108.5t-78.5 -96.5l-49 33q29 29 47 65t18 77h-88v198h182v-168z" />
<glyph unicode="&#x219;" horiz-adv-x="731" d="M371 1130q86 0 138 -12t83 -41.5t45 -79t27 -120.5l-152 -29q-10 70 -31.5 99.5t-91.5 29.5q-59 0 -94 -25.5t-35 -93.5q0 -61 23.5 -104t89.5 -80l124 -67q56 -30 96 -67.5t62.5 -93t22.5 -143.5q0 -160 -77 -245t-251 -85q-156 0 -231.5 80t-75.5 266l166 25 q0 -45 6 -85t21.5 -70.5t42 -48t69.5 -17.5q98 0 129 43t31 119q0 92 -46 139t-128 86q-61 29 -108.5 59.5t-79 69.5t-49 90t-17.5 123q0 63 13 114.5t47 88.5t89.5 56t141.5 19zM456 -244q0 -53 -31.5 -108.5t-78.5 -96.5l-49 33q29 29 47 65t18 77h-88v198h182v-168z" />
<glyph unicode="&#x21a;" horiz-adv-x="739" d="M729 1526v-160h-260v-1366h-203v1366h-254v160h717zM462 -244q0 -53 -31.5 -108.5t-78.5 -96.5l-49 33q29 29 47 65t18 77h-88v198h182v-168z" />
<glyph unicode="&#x21b;" horiz-adv-x="561" d="M274 1112h279l-16 -137h-263v-690q0 -63 29 -99t62 -36q45 0 70.5 23.5t47.5 70.5l80 -119q-27 -53 -88 -94t-160 -41q-111 0 -172 64.5t-61 205.5v715h-84l14 137h70v281l192 32v-313zM381 -244q0 -53 -31.5 -108.5t-78.5 -96.5l-49 33q29 29 47 65t18 77h-88v198h182 v-168z" />
<glyph unicode="&#x2c6;" horiz-adv-x="569" d="M61 1319l156 260h131l160 -262l-107 -51l-120 213l-121 -217z" />
<glyph unicode="&#x2c7;" horiz-adv-x="569" d="M508 1505l-156 -258h-131l-160 260l107 52l119 -213l123 217z" />
<glyph unicode="&#x2d8;" horiz-adv-x="595" d="M604 1509q-29 -121 -105.5 -191.5t-195.5 -70.5t-204 71t-107 193l100 35q8 -39 25.5 -74.5t44 -63.5t62.5 -44t79 -16q86 0 141.5 60t71.5 142z" />
<glyph unicode="&#x2d9;" horiz-adv-x="284" d="M229 1255h-168v246h168v-246z" />
<glyph unicode="&#x2da;" horiz-adv-x="530" d="M469 1317q0 -176 -203 -176q-205 0 -205 176q0 174 205 174q203 0 203 -174zM389 1317q0 104 -123 104t-123 -104t123 -105q123 1 123 105z" />
<glyph unicode="&#x2db;" horiz-adv-x="452" d="M215 -115q-47 -74 -47 -116q0 -33 25.5 -46.5t62.5 -13.5t83 12.5t87 34.5l-59 -147q-115 -57 -203 -58q-51 0 -83 24t-32 75q0 41 22.5 100.5t75.5 138.5l72 111h70z" />
<glyph unicode="&#x2dc;" horiz-adv-x="782" d="M61 1346q23 92 71 131t110 39q41 0 79.5 -15.5t73.5 -34.5l67 -33q32 -15 60 -16q57 0 78 113l121 -39q-25 -98 -76 -140t-113 -42q-41 0 -77.5 14t-72.5 32l-68 31q-32 14 -60 15q-25 0 -44.5 -29t-35.5 -82z" />
<glyph unicode="&#x2dd;" horiz-adv-x="571" d="M315 1296l142 277l84 -43l-160 -270zM55 1296l140 277l84 -43l-158 -270z" />
<glyph unicode="&#x326;" horiz-adv-x="278" d="M231 -244q0 -53 -31.5 -108.5t-78.5 -96.5l-49 33q29 29 47 65t18 77h-88v198h182v-168z" />
<glyph unicode="&#x1e80;" horiz-adv-x="1327" d="M565 1526h209l170 -1215l152 1215h213l-256 -1526h-199l-184 1227l-178 -1227h-220l-254 1526h218l155 -1219zM486 1991l332 -260l-68 -76l-367 217z" />
<glyph unicode="&#x1e81;" horiz-adv-x="1075" d="M463 1112h172l127 -797l119 797h176l-221 -1112h-152l-135 817l-139 -817h-177l-215 1112h199l117 -797zM361 1577l332 -260l-68 -76l-367 217z" />
<glyph unicode="&#x1e82;" horiz-adv-x="1327" d="M565 1526h209l170 -1215l152 1215h213l-256 -1526h-199l-184 1227l-178 -1227h-220l-254 1526h218l155 -1219zM943 1841l-365 -215l-70 78l332 258z" />
<glyph unicode="&#x1e83;" horiz-adv-x="1075" d="M463 1112h172l127 -797l119 797h176l-221 -1112h-152l-135 817l-139 -817h-177l-215 1112h199l117 -797zM816 1427l-365 -215l-70 78l332 258z" />
<glyph unicode="&#x1e84;" horiz-adv-x="1327" d="M565 1526h209l170 -1215l152 1215h213l-256 -1526h-199l-184 1227l-178 -1227h-220l-254 1526h218l155 -1219zM579 1669h-168v246h168v-246zM913 1669h-168v246h168v-246z" />
<glyph unicode="&#x1e85;" horiz-adv-x="1075" d="M463 1112h172l127 -797l119 797h176l-221 -1112h-152l-135 817l-139 -817h-177l-215 1112h199l117 -797zM454 1255h-168v246h168v-246zM788 1255h-168v246h168v-246z" />
<glyph unicode="&#x1ef2;" horiz-adv-x="782" d="M399 854l193 672h170l-268 -883v-643h-201v643l-275 883h199zM213 1991l332 -260l-68 -76l-367 217z" />
<glyph unicode="&#x1ef3;" horiz-adv-x="757" d="M401 303l156 809h182l-288 -1194q-18 -78 -41 -144.5t-59 -115.5t-89 -78t-131 -29q-43 0 -77 7.5t-66 27.5l41 81l41 81q14 -10 29.5 -16t31.5 -6q43 0 91 61t83 221l-289 1104h213zM201 1577l332 -260l-68 -76l-367 217z" />
<glyph unicode="&#x2000;" horiz-adv-x="995" />
<glyph unicode="&#x2001;" horiz-adv-x="1992" />
<glyph unicode="&#x2002;" horiz-adv-x="995" />
<glyph unicode="&#x2003;" horiz-adv-x="1992" />
<glyph unicode="&#x2004;" horiz-adv-x="663" />
<glyph unicode="&#x2005;" horiz-adv-x="497" />
<glyph unicode="&#x2006;" horiz-adv-x="331" />
<glyph unicode="&#x2007;" horiz-adv-x="331" />
<glyph unicode="&#x2008;" horiz-adv-x="247" />
<glyph unicode="&#x2009;" horiz-adv-x="397" />
<glyph unicode="&#x200a;" horiz-adv-x="110" />
<glyph unicode="&#x2010;" horiz-adv-x="448" d="M23 537l16 129h389l-16 -129h-389z" />
<glyph unicode="&#x2011;" horiz-adv-x="448" d="M23 537l16 129h389l-16 -129h-389z" />
<glyph unicode="&#x2012;" horiz-adv-x="448" d="M23 537l16 129h389l-16 -129h-389z" />
<glyph unicode="&#x2013;" horiz-adv-x="811" d="M23 537l16 129h754l-15 -129h-755z" />
<glyph unicode="&#x2014;" horiz-adv-x="1234" d="M23 535l16 131h1178l-17 -131h-1177z" />
<glyph unicode="&#x2018;" horiz-adv-x="268" d="M37 1327q0 143 149 299l56 -43q-104 -104 -105 -219h94v-252h-194v215z" />
<glyph unicode="&#x2019;" horiz-adv-x="268" d="M231 1391q0 -74 -37.5 -149t-111.5 -152l-55 43q104 106 104 219h-94v254h194v-215z" />
<glyph unicode="&#x201a;" horiz-adv-x="264" d="M231 51q0 -74 -37.5 -148.5t-111.5 -152.5l-53 43q102 104 102 219h-94v254h194v-215z" />
<glyph unicode="&#x201c;" horiz-adv-x="567" d="M39 1327q0 143 149 299l54 -43q-102 -106 -103 -219h94v-252h-194v215zM338 1327q0 143 149 299l54 -43q-102 -102 -103 -219h94v-252h-194v215z" />
<glyph unicode="&#x201d;" horiz-adv-x="567" d="M530 1391q0 -143 -151 -301l-55 43q106 106 106 219h-94v254h194v-215zM231 1391q0 -74 -37.5 -149t-111.5 -152l-55 43q104 106 104 219h-94v254h194v-215z" />
<glyph unicode="&#x201e;" horiz-adv-x="567" d="M528 51q0 -143 -151 -301l-53 43q104 106 104 219h-94v254h194v-215zM229 51q0 -74 -37.5 -148.5t-111.5 -152.5l-53 43q102 104 102 219h-94v254h194v-215z" />
<glyph unicode="&#x2020;" horiz-adv-x="747" d="M459 1151v-1151h-158v1151h-240v131h240v242h158v-242h227v-131h-227z" />
<glyph unicode="&#x2021;" horiz-adv-x="761" d="M299 373v778h-238v131h238v242h160v-242h225v-131h-225v-778h225v-129h-225v-244h-160v244h-238v129h238z" />
<glyph unicode="&#x2022;" horiz-adv-x="690" d="M344 1026q57 0 109.5 -22.5t91.5 -62.5t61.5 -95t22.5 -121q0 -63 -22.5 -117.5t-61.5 -94.5t-91.5 -62.5t-109.5 -22.5q-61 0 -112.5 22.5t-89.5 62.5t-59.5 94.5t-21.5 117.5q0 66 21.5 121t59.5 95t89.5 62.5t112.5 22.5z" />
<glyph unicode="&#x2026;" horiz-adv-x="1564" d="M254 0h-193v266h193v-266zM879 0h-193v266h193v-266zM1505 0h-192v266h192v-266z" />
<glyph unicode="&#x202f;" horiz-adv-x="397" />
<glyph unicode="&#x2030;" horiz-adv-x="1538" d="M1278 819q72 0 112 -29.5t59 -84t23.5 -132t4.5 -174.5q0 -90 -4.5 -166.5t-23.5 -133t-59 -88t-112 -31.5t-112 31.5t-59.5 88t-23.5 133t-4 166.5q0 96 4 174t23.5 132.5t59.5 84t112 29.5zM1278 696q-31 0 -49.5 -16t-26.5 -51t-10 -92.5t-2 -137.5t2 -136t10 -93 t26.5 -53.5t49.5 -16.5q61 0 73.5 70t12.5 229q0 80 -2 137.5t-10.5 92.5t-25.5 51t-48 16zM262 1569q70 0 110 -30t59.5 -85t23.5 -133t4 -174q0 -90 -4 -166t-23.5 -133t-59.5 -89t-110 -32q-72 0 -111.5 32t-60 89t-25 133t-4.5 166q0 96 4.5 174t25 133t60 85t111.5 30z M205 0l536 1548h111l-533 -1548h-114zM262 1444q-33 0 -50 -16.5t-25.5 -51.5t-10.5 -92t-2 -137t2 -136.5t10.5 -93t25.5 -53t50 -16.5q61 0 72.5 69.5t11.5 229.5q0 80 -2 137t-9 92t-24.5 51.5t-48.5 16.5zM797 819q72 0 111.5 -29.5t59 -84t23.5 -132t4 -174.5 q0 -90 -4 -166.5t-23.5 -133t-59.5 -88t-111 -31.5q-72 0 -112 31.5t-60.5 88t-24.5 133t-4 166.5q0 96 4 174t24.5 132.5t60.5 84t112 29.5zM797 696q-31 0 -49.5 -16t-26.5 -51t-10 -92.5t-2 -137.5t2 -136t10 -93t26.5 -53.5t49.5 -16.5q61 0 73.5 70t12.5 229 q0 80 -2 137.5t-10.5 92.5t-25.5 51t-48 16z" />
<glyph unicode="&#x2039;" horiz-adv-x="403" d="M336 231l-313 365l313 369l49 -54l-225 -315l225 -313z" />
<glyph unicode="&#x203a;" horiz-adv-x="403" d="M23 283l225 313l-225 315l49 54l313 -369l-313 -365z" />
<glyph unicode="&#x2044;" horiz-adv-x="178" d="M-244 -205l586 1807h143l-589 -1807h-140z" />
<glyph unicode="&#x205f;" horiz-adv-x="497" />
<glyph unicode="&#x2070;" horiz-adv-x="622" d="M311 1794q92 0 142.5 -23.5t75 -81t28.5 -150.5t4 -234t-4 -236.5t-28.5 -153t-75 -81t-142.5 -23.5t-143 23.5t-74.5 81t-28 152.5t-4.5 237q0 141 4.5 234t28 150.5t74.5 81t143 23.5zM311 1671q-37 0 -58.5 -17.5t-31.5 -58.5t-13 -112.5t-3 -177.5q0 -109 3 -180.5 t13 -113.5t31.5 -58.5t58.5 -16.5t57.5 17.5t32 59.5t14.5 112.5t3 179.5q0 106 -3 176.5t-14.5 112.5t-33 59.5t-56.5 17.5z" />
<glyph unicode="&#x2074;" horiz-adv-x="604" d="M61 1114l263 664h165v-639h54l-13 -125h-41v-187h-147v187h-281v100zM342 1139v370l-149 -370h149z" />
<glyph unicode="&#x2075;" horiz-adv-x="620" d="M272 1647l-12 -234q23 18 58.5 28.5t72.5 10.5q53 0 86 -18.5t51.5 -56.5t24.5 -94t6 -130q0 -82 -6 -146.5t-30.5 -109.5t-76 -68.5t-141.5 -23.5q-94 0 -147.5 45t-96.5 135l107 76q25 -66 56.5 -96.5t84.5 -30.5q72 0 89.5 53t17.5 158q0 104 -19.5 141t-74.5 37 t-105 -43l-98 51l24 447h383l-14 -131h-240z" />
<glyph unicode="&#x2076;" horiz-adv-x="618" d="M309 1671q-66 0 -90 -63.5t-26 -214.5q29 29 75.5 45t102.5 16q63 0 101 -23.5t56.5 -64.5t23.5 -97.5t5 -123.5q0 -76 -6 -137.5t-31.5 -105.5t-75 -67.5t-135.5 -23.5q-90 0 -140 38t-73.5 101.5t-29 146.5t-5.5 175q0 154 12.5 254t40 159.5t75 84t114.5 24.5 q123 0 173 -49t56 -160l-112 -47q-6 63 -30 98t-81 35zM322 1327q-31 0 -65 -22.5t-54 -63.5q0 -78 3 -135t13 -95t30.5 -56.5t55.5 -18.5q70 0 89.5 55.5t19.5 143.5q0 100 -16.5 146t-75.5 46z" />
<glyph unicode="&#x2077;" horiz-adv-x="485" d="M47 1778h395v-95q-43 -59 -76.5 -155t-58 -212t-39 -243t-16.5 -246h-170q2 119 20.5 238t48 227.5t67.5 200.5t81 160h-266z" />
<glyph unicode="&#x2078;" horiz-adv-x="620" d="M428 1335q61 -29 96 -85t35 -160q0 -158 -57.5 -218.5t-188.5 -60.5q-133 0 -192.5 60.5t-59.5 218.5q0 109 28 166t99 83q-23 12 -40 26.5t-29.5 37t-18.5 58.5t-6 91q0 117 47 179.5t172 62.5q119 0 167 -60.5t48 -181.5q0 -109 -28.5 -153t-71.5 -64zM303 1276 q-55 -16 -79.5 -54t-24.5 -126q0 -90 24.5 -129t83.5 -39t82 40t23 128q0 43 -5.5 72.5t-17.5 49t-33.5 33t-52.5 25.5zM317 1397q39 16 66 48t27 111q0 72 -26 98.5t-67 26.5q-43 0 -68.5 -26.5t-25.5 -98.5q0 -43 6.5 -69.5t18.5 -43t29 -27.5t40 -19z" />
<glyph unicode="&#x2079;" horiz-adv-x="620" d="M305 934q66 0 92.5 73.5t28.5 227.5q-33 -27 -80 -43t-98 -16q-66 0 -102.5 23.5t-55 64.5t-24 97t-5.5 122q0 76 7.5 134t32 97t74.5 58.5t136 19.5q90 0 140.5 -34t74 -93t28.5 -138t5 -171q0 -154 -13.5 -257.5t-42 -168t-76.5 -92t-116 -27.5q-125 0 -182 58.5 t-61 168.5l114 45q4 -66 34 -107.5t89 -41.5zM297 1300q35 0 66.5 24t54.5 60q0 78 -3 132.5t-13.5 88t-32 48t-58.5 14.5q-68 0 -87 -44t-19 -138t16.5 -139.5t75.5 -45.5z" />
<glyph unicode="&#x207f;" horiz-adv-x="587" d="M172 1530q16 -29 18 -64q61 74 172 74q49 0 81 -16.5t50.5 -44t25.5 -62.5t7 -74v-516h-143v523q0 33 -16.5 52t-53.5 19q-31 0 -58.5 -19.5t-49.5 -51.5v-523h-144v703h111z" />
<glyph unicode="&#x2080;" horiz-adv-x="622" d="M311 823q92 0 142.5 -23.5t75 -81t28.5 -150.5t4 -234t-4 -236.5t-28.5 -153t-75 -81t-142.5 -23.5t-143 23.5t-74.5 81t-28 152.5t-4.5 237q0 141 4.5 234t28 150.5t74.5 81t143 23.5zM311 700q-37 0 -58.5 -17.5t-31.5 -58.5t-13 -112.5t-3 -177.5q0 -109 3 -180.5 t13 -113.5t31.5 -58.5t58.5 -16.5t57.5 17.5t32 59.5t14.5 112.5t3 179.5q0 106 -3 176.5t-14.5 112.5t-33 59.5t-56.5 17.5z" />
<glyph unicode="&#x2081;" horiz-adv-x="407" d="M61 690q70 10 112 44t75 89h98v-967h-147v760q-23 -18 -53.5 -31.5t-67.5 -13.5z" />
<glyph unicode="&#x2082;" horiz-adv-x="587" d="M287 700q-53 0 -69.5 -50t-24.5 -179l-132 18q4 82 10.5 145.5t29 104.5t68.5 62.5t128 21.5q61 0 102 -15.5t65.5 -49t34 -86t9.5 -127.5q0 -84 -24.5 -164t-62.5 -154t-83 -136.5t-88 -111.5h276l-6 -123h-452v115q55 51 109 117.5t97 140.5t70 155t27 161 q0 86 -20.5 120.5t-63.5 34.5z" />
<glyph unicode="&#x2083;" horiz-adv-x="600" d="M297 823q76 0 119 -19.5t64.5 -55.5t27.5 -85t6 -108q0 -92 -22.5 -133t-67.5 -66q61 -16 88 -65.5t27 -151.5q0 -61 -5.5 -115.5t-30 -95.5t-73.5 -64.5t-135 -23.5q-68 0 -110 15.5t-68.5 44t-37.5 69.5t-18 94l125 39q10 -68 31 -102.5t76 -34.5q70 0 89 45t19 137 q0 72 -19.5 107t-90.5 35h-82l12 120h70q49 0 70.5 28t21.5 105q0 94 -20.5 126t-65.5 32t-61.5 -29.5t-24.5 -113.5l-131 14q4 70 15 119t35 77.5t64 42t103 13.5z" />
<glyph unicode="&#x2084;" horiz-adv-x="604" d="M61 143l263 664h165v-639h54l-13 -125h-41v-187h-147v187h-281v100zM342 168v370l-149 -370h149z" />
<glyph unicode="&#x2085;" horiz-adv-x="620" d="M272 676l-12 -234q23 18 58.5 28.5t72.5 10.5q53 0 86 -18.5t51.5 -56.5t24.5 -94t6 -130q0 -82 -6 -146.5t-30.5 -109.5t-76 -68.5t-141.5 -23.5q-94 0 -147.5 45t-96.5 135l107 76q25 -66 56.5 -96.5t84.5 -30.5q72 0 89.5 53t17.5 158q0 104 -19.5 141t-74.5 37 t-105 -43l-98 51l24 447h383l-14 -131h-240z" />
<glyph unicode="&#x2086;" horiz-adv-x="618" d="M309 700q-66 0 -90 -63.5t-26 -214.5q29 29 75.5 45t102.5 16q63 0 101 -23.5t56.5 -64.5t23.5 -97.5t5 -123.5q0 -76 -6 -137.5t-31.5 -105.5t-75 -67.5t-135.5 -23.5q-90 0 -140 38t-73.5 101.5t-29 146.5t-5.5 175q0 154 12.5 254t40 159.5t75 84t114.5 24.5 q123 0 173 -49t56 -160l-112 -47q-6 63 -30 98t-81 35zM322 356q-31 0 -65 -22.5t-54 -63.5q0 -78 3 -135t13 -95t30.5 -56.5t55.5 -18.5q70 0 89.5 55.5t19.5 143.5q0 100 -16.5 146t-75.5 46z" />
<glyph unicode="&#x2087;" horiz-adv-x="487" d="M55 807h395v-95q-43 -59 -76.5 -155t-58 -212t-39 -243t-16.5 -246h-170q2 119 20.5 238t48 227.5t67.5 200.5t81 160h-266z" />
<glyph unicode="&#x2088;" horiz-adv-x="620" d="M428 364q61 -29 96 -85t35 -160q0 -158 -57.5 -218.5t-188.5 -60.5q-133 0 -192.5 60.5t-59.5 218.5q0 109 28 166t99 83q-23 12 -40 26.5t-29.5 37t-18.5 58.5t-6 91q0 117 47 179.5t172 62.5q119 0 167 -60.5t48 -181.5q0 -109 -28.5 -153t-71.5 -64zM303 305 q-55 -16 -79.5 -54t-24.5 -126q0 -90 24.5 -129t83.5 -39t82 40t23 128q0 43 -5.5 72.5t-17.5 49t-33.5 33t-52.5 25.5zM317 426q39 16 66 48t27 111q0 72 -26 98.5t-67 26.5q-43 0 -68.5 -26.5t-25.5 -98.5q0 -43 6.5 -69.5t18.5 -43t29 -27.5t40 -19z" />
<glyph unicode="&#x2089;" horiz-adv-x="620" d="M305 -37q66 0 92.5 73.5t28.5 227.5q-33 -27 -80 -43t-98 -16q-66 0 -102.5 23.5t-55 64.5t-24 97t-5.5 122q0 76 7.5 134t32 97t74.5 58.5t136 19.5q90 0 140.5 -34t74 -93t28.5 -138t5 -171q0 -154 -13.5 -257.5t-42 -168t-76.5 -92t-116 -27.5q-125 0 -182 58.5 t-61 168.5l114 45q4 -66 34 -107.5t89 -41.5zM297 329q35 0 66.5 24t54.5 60q0 78 -3 132.5t-13.5 88t-32 48t-58.5 14.5q-68 0 -87 -44t-19 -138t16.5 -139.5t75.5 -45.5z" />
<glyph unicode="&#x20ac;" horiz-adv-x="888" d="M535 1393q-70 0 -111 -29t-63.5 -88t-30.5 -152.5t-8 -222.5h315l-37 -86h-278v-94h237l-35 -84h-202q0 -145 9 -242.5t30.5 -155t58.5 -81t92 -23.5q51 0 86 12.5t56.5 37t34.5 63.5t24 92l151 -64q-10 -57 -28.5 -111t-56.5 -97t-102.5 -69t-164.5 -26q-135 0 -215 42 t-123 125t-55.5 207t-12.5 290h-92l25 84h67v94h-92l25 86h67q2 160 15.5 281t55.5 203.5t122 124.5t213 42q135 0 219 -26.5t133 -85.5l-84 -187q-41 72 -93 106t-152 34z" />
<glyph unicode="&#x2117;" horiz-adv-x="1589" d="M805 1548q360 0 541.5 -194.5t181.5 -593.5t-189.5 -594t-533.5 -195q-358 0 -551 194.5t-193 594.5q0 395 191 591.5t553 196.5zM805 1450q-121 0 -232.5 -38t-197.5 -120t-137.5 -214t-51.5 -318q0 -188 51.5 -318.5t137.5 -212.5t197.5 -118.5t232.5 -36.5 q119 0 227.5 36.5t190.5 118.5t130 213t48 318q0 186 -48 317t-129 214t-189.5 121t-229.5 38zM770 1202q104 0 171 -15.5t105.5 -44t54 -71.5t15.5 -98q0 -133 -75.5 -208t-235.5 -75h-148v-354h-116v854q66 4 122 8t107 4zM815 1104q-35 0 -76 -3t-82 -7v-312h160 q90 0 135 46t45 133q0 72 -41 107.5t-141 35.5z" />
<glyph unicode="&#x2122;" horiz-adv-x="1079" d="M410 1569v-101h-115v-565h-119v565h-115v101h349zM571 1346v-443h-100v666h150l124 -525l127 525h146v-666h-109v440l-112 -440h-109z" />
<glyph unicode="&#x2153;" horiz-adv-x="1466" d="M307 -205l586 1807h143l-589 -1807h-140zM88 1491q70 10 112 44t75 89h98v-967h-147v760q-23 -18 -53.5 -31.5t-67.5 -13.5zM1159 797q76 0 119 -19.5t64.5 -55.5t27.5 -85t6 -108q0 -92 -22.5 -133t-67.5 -66q61 -16 88 -65.5t27 -151.5q0 -61 -5.5 -115.5t-30 -95.5 t-73.5 -64.5t-135 -23.5q-68 0 -110 15.5t-68.5 44t-37.5 69.5t-18 94l125 39q10 -68 31 -102.5t76 -34.5q70 0 89 45t19 137q0 72 -19.5 107t-90.5 35h-82l12 120h70q49 0 70.5 28t21.5 105q0 94 -20.5 126t-65.5 32t-61.5 -29.5t-24.5 -113.5l-131 14q4 70 15 119t35 77.5 t64 42t103 13.5z" />
<glyph unicode="&#x2154;" horiz-adv-x="1466" d="M372 -205l586 1807h143l-589 -1807h-140zM314 1501q-53 0 -69.5 -50t-24.5 -179l-132 18q4 82 10.5 145.5t29 104.5t68.5 62.5t128 21.5q61 0 102 -15.5t65.5 -49t34 -86t9.5 -127.5q0 -84 -24.5 -164t-62.5 -154t-83 -136.5t-88 -111.5h276l-6 -123h-452v115 q55 51 109 117.5t97 140.5t70 155t27 161q0 86 -20.5 120.5t-63.5 34.5zM1159 797q76 0 119 -19.5t64.5 -55.5t27.5 -85t6 -108q0 -92 -22.5 -133t-67.5 -66q61 -16 88 -65.5t27 -151.5q0 -61 -5.5 -115.5t-30 -95.5t-73.5 -64.5t-135 -23.5q-68 0 -110 15.5t-68.5 44 t-37.5 69.5t-18 94l125 39q10 -68 31 -102.5t76 -34.5q70 0 89 45t19 137q0 72 -19.5 107t-90.5 35h-82l12 120h70q49 0 70.5 28t21.5 105q0 94 -20.5 126t-65.5 32t-61.5 -29.5t-24.5 -113.5l-131 14q4 70 15 119t35 77.5t64 42t103 13.5z" />
<glyph unicode="&#x215b;" horiz-adv-x="1443" d="M297 -205l586 1807h143l-589 -1807h-140zM88 1491q70 10 112 44t75 89h98v-967h-147v760q-23 -18 -53.5 -31.5t-67.5 -13.5zM1266 338q61 -29 96 -85t35 -160q0 -158 -57.5 -218.5t-188.5 -60.5q-133 0 -192.5 60.5t-59.5 218.5q0 109 28 166t99 83q-23 12 -40 26.5 t-29.5 37t-18.5 58.5t-6 91q0 117 47 179.5t172 62.5q119 0 167 -60.5t48 -181.5q0 -109 -28.5 -153t-71.5 -64zM1141 279q-55 -16 -79.5 -54t-24.5 -126q0 -90 24.5 -129t83.5 -39t82 40t23 128q0 43 -5.5 72.5t-17.5 49t-33.5 33t-52.5 25.5zM1155 400q39 16 66 48t27 111 q0 72 -26 98.5t-67 26.5q-43 0 -68.5 -26.5t-25.5 -98.5q0 -43 6.5 -69.5t18.5 -43t29 -27.5t40 -19z" />
<glyph unicode="&#x215c;" horiz-adv-x="1458" d="M370 -205l586 1807h143l-589 -1807h-140zM1280 338q61 -29 96 -85t35 -160q0 -158 -57.5 -218.5t-188.5 -60.5q-133 0 -192.5 60.5t-59.5 218.5q0 109 28 166t99 83q-23 12 -40 26.5t-29.5 37t-18.5 58.5t-6 91q0 117 47 179.5t172 62.5q119 0 167 -60.5t48 -181.5 q0 -109 -28.5 -153t-71.5 -64zM1155 279q-55 -16 -79.5 -54t-24.5 -126q0 -90 24.5 -129t83.5 -39t82 40t23 128q0 43 -5.5 72.5t-17.5 49t-33.5 33t-52.5 25.5zM1169 400q39 16 66 48t27 111q0 72 -26 98.5t-67 26.5q-43 0 -68.5 -26.5t-25.5 -98.5q0 -43 6.5 -69.5 t18.5 -43t29 -27.5t40 -19zM324 1624q76 0 119 -19.5t64.5 -55.5t27.5 -85t6 -108q0 -92 -22.5 -133t-67.5 -66q61 -16 88 -65.5t27 -151.5q0 -61 -5.5 -115.5t-30 -95.5t-73.5 -64.5t-135 -23.5q-68 0 -110 15.5t-68.5 44t-37.5 69.5t-18 94l125 39q10 -68 31 -102.5 t76 -34.5q70 0 89 45t19 137q0 72 -19.5 107t-90.5 35h-82l12 120h70q49 0 70.5 28t21.5 105q0 94 -20.5 126t-65.5 32t-61.5 -29.5t-24.5 -113.5l-131 14q4 70 15 119t35 77.5t64 42t103 13.5z" />
<glyph unicode="&#x215d;" horiz-adv-x="1454" d="M374 -205l586 1807h143l-589 -1807h-140zM299 1477l-12 -234q23 18 58.5 28.5t72.5 10.5q53 0 86 -18.5t51.5 -56.5t24.5 -94t6 -130q0 -82 -6 -146.5t-30.5 -109.5t-76 -68.5t-141.5 -23.5q-94 0 -147.5 45t-96.5 135l107 76q25 -66 56.5 -96.5t84.5 -30.5q72 0 89.5 53 t17.5 158q0 104 -19.5 141t-74.5 37t-105 -43l-98 51l24 447h383l-14 -131h-240zM1278 338q61 -29 96 -85t35 -160q0 -158 -57.5 -218.5t-188.5 -60.5q-133 0 -192.5 60.5t-59.5 218.5q0 109 28 166t99 83q-23 12 -40 26.5t-29.5 37t-18.5 58.5t-6 91q0 117 47 179.5 t172 62.5q119 0 167 -60.5t48 -181.5q0 -109 -28.5 -153t-71.5 -64zM1153 279q-55 -16 -79.5 -54t-24.5 -126q0 -90 24.5 -129t83.5 -39t82 40t23 128q0 43 -5.5 72.5t-17.5 49t-33.5 33t-52.5 25.5zM1167 400q39 16 66 48t27 111q0 72 -26 98.5t-67 26.5q-43 0 -68.5 -26.5 t-25.5 -98.5q0 -43 6.5 -69.5t18.5 -43t29 -27.5t40 -19z" />
<glyph unicode="&#x215e;" horiz-adv-x="1445" d="M350 -205l586 1807h143l-589 -1807h-140zM1266 338q61 -29 96 -85t35 -160q0 -158 -57.5 -218.5t-188.5 -60.5q-133 0 -192.5 60.5t-59.5 218.5q0 109 28 166t99 83q-23 12 -40 26.5t-29.5 37t-18.5 58.5t-6 91q0 117 47 179.5t172 62.5q119 0 167 -60.5t48 -181.5 q0 -109 -28.5 -153t-71.5 -64zM1141 279q-55 -16 -79.5 -54t-24.5 -126q0 -90 24.5 -129t83.5 -39t82 40t23 128q0 43 -5.5 72.5t-17.5 49t-33.5 33t-52.5 25.5zM1155 400q39 16 66 48t27 111q0 72 -26 98.5t-67 26.5q-43 0 -68.5 -26.5t-25.5 -98.5q0 -43 6.5 -69.5 t18.5 -43t29 -27.5t40 -19zM164 1608h395v-95q-43 -59 -76.5 -155t-58 -212t-39 -243t-16.5 -246h-170q2 119 20.5 238t48 227.5t67.5 200.5t81 160h-266z" />
<glyph unicode="&#x2212;" horiz-adv-x="1085" d="M61 696v129h963v-129h-963z" />
<glyph unicode="&#xe000;" horiz-adv-x="1110" d="M0 1110h1110v-1110h-1110v1110z" />
<glyph unicode="&#xf730;" horiz-adv-x="921" d="M461 1130q141 0 221 -39.5t120 -114.5t49 -182.5t9 -242.5t-10 -241.5t-50 -180.5t-120 -113t-219 -39q-141 0 -221 39t-120 113t-49.5 180.5t-9.5 241.5t9.5 242.5t49.5 182.5t120 114.5t221 39.5zM461 975q-74 0 -116 -25.5t-61.5 -79t-24.5 -133.5t-5 -186 q0 -109 5 -187.5t24.5 -131t61.5 -78t116 -25.5t114.5 25.5t60 78t25 131t5.5 187.5q0 106 -5.5 186t-25 133.5t-60 79t-114.5 25.5z" />
<glyph unicode="&#xf731;" horiz-adv-x="442" d="M18 944q45 8 80 20.5t63.5 32t52.5 47t46 68.5h121v-1112h-193v872q-41 -53 -145 -71z" />
<glyph unicode="&#xf732;" horiz-adv-x="817" d="M395 983q-53 0 -86 -17.5t-51 -55.5t-26.5 -98t-12.5 -148l-168 20q4 113 17.5 198t49.5 141t103.5 84t179.5 28q104 0 171 -24t104 -67t50 -102t13 -131q0 -86 -40 -186.5t-106.5 -192.5t-151.5 -168t-177 -114h504l-6 -150h-707v145q96 53 186.5 130t160 166 t111.5 184.5t42 185.5t-33 131t-127 41z" />
<glyph unicode="&#xf733;" horiz-adv-x="835" d="M406 1112q117 0 182 -29.5t97 -82t39 -125t7 -160.5q0 -78 -10 -130.5t-28.5 -88t-47.5 -58t-65 -39.5q117 -27 160.5 -108.5t43.5 -231.5q0 -90 -8 -171t-46 -141t-115.5 -95t-219.5 -35q-98 0 -159.5 21.5t-99.5 61.5t-58.5 96.5t-34.5 125.5l156 53q14 -47 28.5 -83.5 t36 -63.5t54 -41t83.5 -14q72 0 112 18.5t60.5 56t24.5 94t4 130.5q0 63 -6 110t-25.5 77t-55.5 44t-97 14h-107l15 148h88q43 0 69.5 9t40 36t18.5 71t5 115q0 70 -3 120t-15.5 83t-39 47.5t-73.5 14.5q-43 0 -70 -13.5t-42 -39t-22.5 -65.5t-13.5 -93l-178 16 q16 104 36.5 171t54.5 105.5t87.5 54t137.5 15.5z" />
<glyph unicode="&#xf734;" horiz-adv-x="757" d="M27 123l407 989h217v-960h99l-15 -152h-84v-397h-190v397h-434v123zM461 152v651l-275 -651h275z" />
<glyph unicode="&#xf735;" horiz-adv-x="825" d="M330 940l-27 -383q35 20 85 35.5t140 15.5q76 0 125 -28.5t76 -86t37 -144.5t10 -204q0 -129 -9 -229t-48 -169t-116 -105.5t-214 -36.5q-74 0 -129 15t-98 47t-76 79t-63 111l137 102q35 -92 83 -141t132 -49q70 0 108.5 22.5t57 67.5t21.5 113.5t3 160.5q0 82 -4 140.5 t-18.5 95.5t-44 54t-78.5 17q-66 0 -108 -17t-76 -50l-136 69l45 672h578l-18 -174h-375z" />
<glyph unicode="&#xf736;" horiz-adv-x="886" d="M449 1313q-66 0 -105 -24.5t-59.5 -85t-27.5 -160t-9 -248.5q53 70 127 109.5t178 39.5q98 0 153.5 -29.5t84 -87t36 -140.5t7.5 -187q0 -119 -10.5 -216.5t-49.5 -166t-115.5 -106.5t-209.5 -38q-141 0 -219 54.5t-116 147.5t-45.5 220t-7.5 275q0 248 18.5 403.5 t62.5 244.5t117 122t179 33q94 0 160 -16.5t108 -53.5t61 -93.5t24 -135.5l-158 -62q-4 49 -13.5 87t-29 62.5t-54 38t-87.5 13.5zM471 780q-76 0 -123 -42t-84 -126q0 -137 4 -229t21.5 -147.5t53.5 -78t101 -22.5q63 0 100.5 25.5t55.5 72t22.5 110t4.5 138.5 q0 90 -4.5 147.5t-19.5 91.5t-46 47t-86 13z" />
<glyph unicode="&#xf737;" horiz-adv-x="681" d="M51 1112h606v-127q-74 -94 -127 -247.5t-90 -340t-59.5 -391.5t-30.5 -401h-237q8 197 37.5 392.5t74.5 371.5t106.5 325.5t135.5 257.5h-432z" />
<glyph unicode="&#xf738;" horiz-adv-x="872" d="M590 766q57 -18 102 -49t74 -78t44 -115.5t15 -163.5q0 -121 -21.5 -198.5t-68.5 -124.5t-120.5 -65.5t-176.5 -18.5q-102 0 -176 18.5t-121 65.5t-68.5 125t-21.5 198q0 94 10.5 163t36 116t71.5 78t120 49q-51 18 -86 47t-56.5 70t-31 97t-9.5 132q0 84 16.5 147.5 t55.5 105.5t102.5 63.5t157.5 21.5q182 0 257 -82t75 -256q0 -152 -45 -229.5t-135 -116.5zM428 686q-51 -16 -86 -36.5t-56.5 -56.5t-30.5 -90t-9 -134q0 -145 38 -206t146 -61q55 0 90 14.5t55.5 46.5t28.5 83t8 123q0 80 -9 131t-30.5 86t-57.5 57.5t-87 42.5zM446 836 q39 18 67 38.5t46.5 51t26.5 77t8 115.5q0 109 -33 150t-112 41q-80 0 -116 -41t-36 -150q0 -70 8 -116t25.5 -76.5t46 -51t69.5 -38.5z" />
<glyph unicode="&#xf739;" horiz-adv-x="886" d="M428 -236q66 0 106.5 35t63.5 106.5t31 182.5t8 262q-47 -70 -120 -112.5t-183 -42.5q-98 0 -153.5 34.5t-84 97t-36 148.5t-7.5 191q0 121 10.5 209t49.5 146t115.5 86t209.5 28q141 0 219 -49.5t116 -137.5t45 -210t7 -269q0 -248 -20.5 -414t-65.5 -266t-119.5 -142 t-181.5 -42q-190 0 -278 85t-97 244l156 62q10 -104 58.5 -168t150.5 -64zM416 356q78 0 125 46.5t80 129.5q0 135 -4.5 221.5t-21.5 134.5t-53 65.5t-100 17.5q-63 0 -100 -16.5t-55.5 -52.5t-23.5 -92t-5 -138q0 -84 4 -144.5t19.5 -98.5t47.5 -55.5t87 -17.5z" />
<glyph unicode="&#xf740;" horiz-adv-x="577" d="M207 1493q27 20 62.5 33.5t86.5 13.5q59 0 92 -24.5t48.5 -72.5t18.5 -115.5t3 -153.5q0 -72 -4 -136.5t-22.5 -115t-58.5 -80t-109 -29.5q-63 0 -101.5 17.5t-60.5 46.5q-6 -29 -19 -50h-82v996l146 22v-352zM305 1421q-37 0 -63.5 -18.5t-42.5 -44.5v-375 q10 -18 34.5 -33.5t59.5 -15.5q57 0 73.5 54t16.5 190q0 137 -13.5 190t-64.5 53z" />
<glyph unicode="&#xf741;" horiz-adv-x="593" d="M532 827h-122q-8 16 -9 50q-20 -25 -59 -44.5t-92 -19.5q-68 0 -106 27.5t-56 76t-22.5 111t-4.5 129.5q0 86 4.5 156.5t24 121t59 78t111.5 27.5q41 0 75 -11t56 -28v322l141 24v-1020zM289 1421q-61 0 -76.5 -60.5t-15.5 -199.5q0 -111 13 -170t62 -59q39 0 61.5 12 t35 31.5t16.5 44t6 49.5v301q-34 51 -102 51z" />
<glyph unicode="&#xf742;" horiz-adv-x="591" d="M295 1540q86 0 133 -28.5t69.5 -73.5t26.5 -101.5t4 -111.5v-68h-335q0 -45 4 -86t16 -71.5t34.5 -49t59.5 -18.5q55 0 79 36t30 105l114 -16q-14 -119 -63 -181.5t-166 -62.5q-86 0 -134 30.5t-71.5 82t-29 117t-5.5 135.5q0 74 5.5 140t29 115.5t69.5 78t130 28.5z M297 1430q-66 0 -84 -50.5t-20 -126.5h204v43q0 53 -21.5 93.5t-78.5 40.5z" />
<glyph unicode="&#xf743;" horiz-adv-x="264" d="M205 827h-144v703h144v-703zM205 1632h-144v193h144v-193z" />
<glyph unicode="&#xf744;" horiz-adv-x="264" d="M61 827v1002l144 26v-1028h-144z" />
<glyph unicode="&#xf745;" horiz-adv-x="839" d="M492 1333q2 -12 2 -25v-30v-451h-144v504q0 41 -12 65.5t-51 24.5t-82 -90v-504h-144v703h121q4 -20 8 -62q29 39 63 54.5t77 15.5q53 0 88 -23.5t51 -58.5q31 47 65.5 65.5t81.5 18.5q49 0 81 -16.5t50.5 -44t25.5 -62.5t7 -74v-516h-143v504q0 41 -12.5 65.5 t-51.5 24.5q-40 0 -81 -88z" />
<glyph unicode="&#xf746;" horiz-adv-x="385" d="M180 1530q4 -14 6 -34.5t2 -43.5q35 35 71 56.5t89 21.5v-125q-47 0 -81 -18.5t-62 -69.5v-490h-144v703h119z" />
<glyph unicode="&#xf747;" horiz-adv-x="540" d="M276 1544q59 0 96.5 -12t59 -35.5t30.5 -58.5t13 -82l-113 -19q-4 47 -21 70t-58 23t-57.5 -20.5t-16.5 -53.5t19.5 -53.5t50 -37t64.5 -32.5t64.5 -42t50 -65t19.5 -98q0 -111 -51 -164t-162 -53q-102 0 -152.5 55.5t-50.5 186.5l121 16q0 -59 16.5 -100t69.5 -41 q47 0 65.5 22.5t18.5 65.5q0 37 -20.5 59.5t-51 41t-65.5 36.5t-65.5 44t-51 62.5t-20.5 94.5q0 88 41.5 139t156.5 51z" />
<glyph unicode="&#xf748;" horiz-adv-x="436" d="M231 1530h136v-111h-136v-405q0 -35 11.5 -51.5t40.5 -16.5q25 0 40 14.5t29 49.5l60 -90q-18 -37 -59.5 -68t-106.5 -31q-76 0 -117 42t-41 138v418h-61v111h61v166l143 26v-192z" />
<glyph unicode="&#xf8ff;" horiz-adv-x="1142" />
<glyph unicode="&#xfb00;" horiz-adv-x="970" d="M946 975h-217v-975h-190v975h-271v-975h-192v975h-88l16 137h72v156q0 111 14 183.5t45 114.5t80 59t121 17q70 0 113 -19t65 -46l-35 -137q-43 53 -106 53q-31 0 -50.5 -7t-31.5 -33t-17.5 -74t-5.5 -130v-137h271v156q0 111 14 183.5t45 114.5t80 59t121 17 q70 0 112.5 -19t65.5 -46l-37 -137q-43 53 -104 53q-31 0 -51.5 -7t-33 -33t-17.5 -74t-5 -130v-137h234z" />
<glyph unicode="&#xfb01;" horiz-adv-x="862" d="M780 0h-192v975h-320v-975h-192v975h-88l8 68l8 69h72v156q0 111 13 183.5t43 114.5t77 59t113 17t111.5 -19t66.5 -46l-2 -137q-18 23 -50 36t-69 13q-39 0 -61.5 -14.5t-33 -44t-13.5 -74.5t-3 -107v-137h512v-1112zM780 1339h-192v267h192v-267z" />
<glyph unicode="&#xfb02;" horiz-adv-x="862" d="M586 0v1423q-29 18 -60.5 29.5t-61.5 18t-53.5 9.5t-31.5 3q-35 0 -56.5 -9.5t-34 -36t-16.5 -71.5t-4 -117v-137h201l-16 -137h-185v-975h-192v975h-88l16 137h72v156q0 111 14 183.5t50 114.5t95.5 59t149.5 17q39 0 89 -14t85 -33q53 16 107.5 25.5t111.5 15.5v-1636 h-192z" />
<glyph unicode="&#xfb03;" horiz-adv-x="1323" d="M268 1112h271v156q0 111 13 183.5t43 114.5t76 59t111 17q66 0 112 -19t67 -46l-3 -137q-20 18 -53 31.5t-80 13.5q-29 0 -47 -7.5t-28.5 -32t-15.5 -71.5t-5 -125v-137h512v-1112h-190v975h-322v-975h-190v975h-271v-975h-192v975h-88l16 137h72v156q0 111 14 183.5 t45 114.5t80 59t121 17q70 0 113 -19t65 -46l-35 -137q-41 47 -119 47q-27 0 -44 -8.5t-28.5 -33t-15.5 -71.5t-4 -125v-137zM1241 1339h-190v267h190v-267z" />
<glyph unicode="&#xfb04;" horiz-adv-x="1357" d="M268 1112h271v156q0 111 14 183.5t50 114.5t94.5 59t148.5 17q39 0 89 -14t87 -33q53 16 108.5 25.5t108.5 15.5v-1636h-192v1430q-33 23 -82.5 43t-102.5 20q-41 0 -66.5 -8t-40 -34t-20.5 -74t-6 -128v-137h201l-15 -137h-186v-975h-190v975h-271v-975h-192v975h-88 l16 137h72v156q0 111 14 183.5t45 114.5t80 59t121 17q70 0 113 -19t65 -46l-35 -137q-41 47 -119 47q-27 0 -44 -8.5t-28.5 -33t-15.5 -71.5t-4 -125v-137z" />
<glyph horiz-adv-x="1142" />
<glyph horiz-adv-x="1142" />
</font>
</defs>
</svg>
